<svg width="24" height="24" viewBox="0 0 24 24" fill="none" xmlns="http://www.w3.org/2000/svg">
<path d="M8.56226 4C6.38317 4 4.44973 5.53314 4.01569 7.64201C3.93084 8.05411 4.19874 8.46179 4.61076 8.54664C5.02278 8.63142 5.43054 8.36352 5.51532 7.9515C5.80432 6.54732 7.10971 5.52347 8.56226 5.52347C8.98297 5.52347 9.324 5.18244 9.324 4.76174C9.324 4.34103 8.98297 4 8.56226 4ZM14.6561 4C14.2354 4 13.8944 4.34103 13.8944 4.76174C13.8944 5.18244 14.2354 5.52347 14.6561 5.52347C16.1104 5.52347 17.4397 6.54511 17.7269 7.9515C17.811 8.36368 18.2192 8.63074 18.6315 8.54664C19.0437 8.46247 19.3107 8.05426 19.2265 7.64201C18.7953 5.52979 16.8378 4 14.6561 4ZM11.6092 5.52347C7.82292 5.52347 4.75359 8.5928 4.75359 12.3791C4.75359 13.9868 5.32656 15.4947 6.25329 16.6638L4.99163 17.9254C4.69417 18.223 4.69417 18.723 4.99163 19.0205C5.28909 19.318 5.76532 19.2941 6.06286 18.9967L7.32444 17.735C8.49355 18.6617 10.0015 19.2347 11.6092 19.2347C13.2169 19.2347 14.7248 18.638 15.894 17.7112L17.1794 19.0205C17.4768 19.318 17.9531 19.2941 18.2506 18.9967C18.5481 18.6992 18.5242 18.223 18.2268 17.9254L16.9652 16.6401C17.8781 15.5332 18.4648 13.9868 18.4648 12.3791C18.4648 8.5928 15.3955 5.52347 11.6092 5.52347ZM11.6092 7.04694C14.5541 7.04694 16.9413 9.43422 16.9413 12.3791C16.9413 15.324 14.5541 17.7112 11.6092 17.7112C8.66433 17.7112 6.27706 15.324 6.27706 12.3791C6.27706 9.43422 8.66433 7.04694 11.6092 7.04694ZM11.6092 8.57041C11.1885 8.57041 10.8475 8.91144 10.8475 9.33215V11.6174H8.56226C8.14155 11.6174 7.80053 11.9584 7.80053 12.3791C7.80053 12.7998 8.14155 13.1408 8.56226 13.1408H11.6092C12.0299 13.1408 12.3709 12.7998 12.3709 12.3791V9.33215C12.3709 8.91144 12.0299 8.57041 11.6092 8.57041Z" fill="#2A343D"/>
</svg>
