<svg width="24" height="24" viewBox="0 0 24 24" fill="none" xmlns="http://www.w3.org/2000/svg">
<path d="M16.5218 15.8845C16.5569 15.868 16.5987 15.8585 16.6425 15.8585C16.6637 15.8585 16.6838 15.8605 16.7034 15.865L16.7013 15.8645C16.7519 15.8778 16.7772 15.9168 16.7772 15.9815C16.7684 16.069 16.7308 16.1465 16.6735 16.206C16.5786 16.311 16.4795 16.406 16.3732 16.494L16.3691 16.497C16.1746 16.6555 15.9589 16.8055 15.7319 16.9395L15.7087 16.952C15.4347 17.121 15.1148 17.2865 14.782 17.4295L14.7345 17.4475C14.3667 17.602 13.9317 17.736 13.4818 17.828L13.4359 17.836C12.9638 17.9405 12.422 18 11.8659 18C11.8602 18 11.855 18 11.8493 18H11.8504C11.2653 17.999 10.6993 17.9235 10.1606 17.782L10.206 17.792C9.65397 17.6565 9.1731 17.4815 8.71958 17.261L8.76137 17.2795C8.30114 17.0525 7.91108 16.8215 7.54115 16.5645L7.56952 16.583C7.22745 16.352 6.92923 16.121 6.647 15.873L6.65474 15.8795C6.44888 15.696 6.25901 15.505 6.08204 15.3025L6.0743 15.2935C6.04386 15.263 6.02012 15.226 6.00619 15.185L6.00568 15.183C6.00206 15.1735 6 15.162 6 15.1505C6 15.133 6.00464 15.1165 6.0129 15.1025C6.02683 15.0825 6.0454 15.067 6.06759 15.0565L6.06862 15.056C6.0872 15.047 6.10938 15.042 6.1326 15.042C6.13827 15.042 6.14343 15.0425 6.14911 15.043C6.17955 15.045 6.20638 15.056 6.22857 15.073H6.22805C6.79715 15.428 7.47614 15.798 8.1768 16.1315L8.30063 16.185C9.38103 16.6845 10.6492 16.9765 11.9876 16.9765C12.6372 16.9765 13.2703 16.9075 13.8791 16.7775L13.8213 16.788C14.846 16.5675 15.7479 16.256 16.5951 15.853L16.5228 15.884L16.5218 15.8845ZM17.952 15.1145C17.9825 15.191 18 15.28 18 15.3725C18 15.4465 17.9886 15.518 17.968 15.585L17.9696 15.5795C17.9273 15.8375 17.8586 16.068 17.7647 16.2865L17.7725 16.266C17.6461 16.5965 17.4448 16.8755 17.1874 17.094L17.1848 17.096C17.1064 17.1583 17.0465 17.1785 17.0052 17.1565C16.964 17.1345 16.964 17.0812 17.0052 16.9965C17.11 16.7765 17.2147 16.507 17.3004 16.229L17.3128 16.183C17.4208 15.8413 17.4357 15.6215 17.3576 15.5235C17.3303 15.4895 17.2942 15.463 17.2524 15.447L17.2508 15.4465C17.1961 15.425 17.1327 15.411 17.0661 15.4065H17.0641C16.988 15.3998 16.9201 15.3942 16.8603 15.3895C16.8241 15.3875 16.7818 15.386 16.7395 15.386C16.6972 15.386 16.6549 15.387 16.6126 15.3895L16.6183 15.389C16.5172 15.3937 16.4446 15.398 16.4005 15.402L16.1864 15.422L16.0306 15.435C16.0031 15.4397 15.9732 15.443 15.9408 15.445C15.9085 15.447 15.8832 15.4493 15.865 15.452L15.8062 15.459C15.7922 15.461 15.7752 15.462 15.7582 15.462H15.6891L15.6684 15.459L15.655 15.449L15.6447 15.429C15.6172 15.3577 15.7255 15.2683 15.9697 15.161C16.1766 15.0655 16.4165 14.995 16.6688 14.9625L16.6812 14.961C16.802 14.9445 16.9413 14.9355 17.0832 14.9355C17.2044 14.9355 17.3241 14.9425 17.4423 14.9555L17.4278 14.954C17.713 14.98 17.8879 15.0332 17.9525 15.1135L17.952 15.1145ZM15.2278 12.148C15.2299 12.303 15.2639 12.45 15.3238 12.5835L15.3207 12.576C15.3826 12.7245 15.4569 12.8525 15.5456 12.9695L15.542 12.9645C15.6273 13.0762 15.7136 13.1788 15.801 13.2725C15.8712 13.35 15.946 13.4205 16.0255 13.4845L16.0285 13.487L16.1183 13.5605L14.5498 15.0605C14.3655 14.8955 14.1835 14.727 14.004 14.555C13.8244 14.383 13.6908 14.2525 13.6031 14.1635L13.472 14.0295C13.4085 13.9645 13.3518 13.892 13.3023 13.8145L13.2986 13.8085C13.116 14.079 12.8921 14.3065 12.6326 14.49L12.6248 14.495C12.3741 14.6765 12.0815 14.8215 11.7658 14.915L11.7456 14.92C11.4593 15.0045 11.128 15.06 10.786 15.074L10.7777 15.0745C10.7442 15.076 10.7044 15.077 10.6647 15.077C10.3644 15.077 10.077 15.0245 9.81133 14.9285L9.82836 14.934C9.51724 14.823 9.24843 14.6745 9.01058 14.4895L9.01625 14.494C8.76756 14.294 8.57202 14.04 8.44716 13.75L8.44251 13.7375C8.30682 13.43 8.22788 13.072 8.22788 12.696C8.22788 12.6795 8.22788 12.6635 8.22839 12.647V12.6495C8.22839 12.64 8.22839 12.629 8.22839 12.6175C8.22839 12.258 8.2996 11.9145 8.4291 11.5995L8.42239 11.618C8.54312 11.3165 8.71132 11.0575 8.92132 10.8365L8.91977 10.838C9.13234 10.624 9.37432 10.4395 9.64004 10.29L9.65552 10.282C9.89698 10.1405 10.1766 10.0115 10.4692 9.9105L10.5022 9.9005C10.7452 9.817 11.0465 9.737 11.3551 9.6765L11.4005 9.669C11.6239 9.6205 11.9051 9.577 12.1914 9.548L12.226 9.545C12.454 9.525 12.6833 9.5105 12.9137 9.5015V8.6525C12.9153 8.629 12.9163 8.602 12.9163 8.5745C12.9163 8.3655 12.8611 8.1685 12.7641 7.9975L12.7672 8.0035C12.5985 7.784 12.3318 7.6435 12.0304 7.6435C11.9954 7.6435 11.9608 7.6455 11.9267 7.649L11.9309 7.6485C11.9033 7.6485 11.8653 7.65083 11.8168 7.6555C11.7106 7.675 11.6166 7.7025 11.5274 7.739L11.5367 7.7355C11.3891 7.7885 11.2612 7.8555 11.1451 7.9365L11.1497 7.9335C11.0001 8.0475 10.8721 8.1795 10.7669 8.3275L10.7627 8.3335C10.6255 8.518 10.513 8.731 10.4372 8.96L10.4325 8.976L8.40072 8.795C8.40175 8.5085 8.45748 8.2345 8.55809 7.9825L8.55241 7.998C8.66902 7.707 8.82483 7.4565 9.01832 7.237L9.01522 7.2405C9.22934 6.995 9.47493 6.7845 9.74839 6.612L9.76129 6.6045C10.0621 6.4175 10.4109 6.267 10.7818 6.1705L10.8082 6.1645C11.192 6.0605 11.6326 6.0005 12.0877 6.0005H12.1264H12.1243C12.1398 6.0005 12.1584 6 12.1765 6C12.6037 6 13.0159 6.0615 13.4049 6.1755L13.375 6.168C13.7161 6.262 14.0138 6.403 14.279 6.586L14.2702 6.58C14.4869 6.737 14.6721 6.9205 14.8248 7.128L14.83 7.1355C14.9564 7.301 15.0617 7.4915 15.136 7.6965L15.1406 7.7115C15.1927 7.858 15.2242 8.0265 15.2268 8.202V8.2035L15.2278 12.148ZM10.5842 12.289C10.5837 12.3 10.5837 12.313 10.5837 12.326C10.5837 12.6835 10.7751 12.9975 11.0641 13.1775L11.0682 13.18C11.2436 13.3025 11.4634 13.376 11.7007 13.376C11.8179 13.376 11.9309 13.358 12.0366 13.325L12.0289 13.327C12.4226 13.2055 12.7208 12.8965 12.8147 12.511L12.8162 12.5035C12.8776 12.31 12.9132 12.0875 12.9132 11.8575C12.9132 11.847 12.9132 11.836 12.9132 11.8255V11.827V10.742C12.6362 10.75 12.372 10.779 12.1151 10.827L12.146 10.822C11.8669 10.8765 11.6203 10.954 11.3876 11.055L11.4103 11.0465C10.9211 11.2445 10.5837 11.704 10.5837 12.24C10.5837 12.257 10.5842 12.274 10.5847 12.2905V12.288L10.5842 12.289Z" fill="black"/>
</svg>
