<svg width="24" height="24" viewBox="0 0 24 24" fill="none" xmlns="http://www.w3.org/2000/svg">
<path d="M7.13496 9.16143L6.45903 10.7882L5.72316 9.16141H4.80545V11.4319L3.84916 9.16143H3.01379L2.00691 11.5595H2.61757L2.83583 11.0246H4.00654L4.22259 11.5595H5.36619V9.67968L6.18363 11.5595H6.67735L7.49262 9.68135L7.49476 11.5595H8.07112V9.16143H7.13496ZM3.80346 10.5248H3.03596L3.41864 9.56875L3.80346 10.5247V10.5248Z" fill="black"/>
<path d="M10.3686 11.5596H8.49014V9.16141H10.3686V9.66083H9.0525V10.0932H10.337V10.5846H9.0525V11.0635H10.3686V11.5596Z" fill="black"/>
<path d="M13.0168 9.80726C13.0168 9.53977 12.9101 9.38337 12.7322 9.27627C12.5504 9.16914 12.3387 9.16141 12.0514 9.16141H10.7581V11.5594H11.3203V10.6872H11.9239C12.1264 10.6872 12.2516 10.7055 12.3337 10.7899C12.436 10.9052 12.4225 11.1128 12.4225 11.2571L12.4246 11.5595H12.9918V11.0884C12.9918 10.8742 12.978 10.7676 12.8987 10.6484C12.8486 10.5785 12.7436 10.4942 12.6205 10.4464C12.7664 10.3871 13.0168 10.1896 13.0168 9.80726ZM12.2814 10.144C12.2042 10.1918 12.1128 10.1934 12.0033 10.1934H11.3203V9.66077H12.0126C12.1106 9.66077 12.2129 9.6653 12.2792 9.70406C12.3522 9.739 12.3973 9.81332 12.3973 9.91603C12.3973 10.0208 12.3544 10.1052 12.2814 10.144Z" fill="black"/>
<path d="M13.9168 9.16141H13.343V11.5594H13.9168V9.16141Z" fill="black"/>
<path d="M19.9968 9.1617V10.8318L19.0084 9.1617H18.1523V11.4299L17.2003 9.1617H16.3578L15.5654 11.0475H15.3128C15.1648 11.0475 15.0075 11.0187 14.921 10.9239C14.8165 10.8029 14.7663 10.6176 14.7663 10.3607C14.7663 10.1093 14.8321 9.91851 14.928 9.81752C15.0396 9.70659 15.1555 9.67546 15.3607 9.67546H15.8936V9.16165H15.3492C14.9617 9.16165 14.6771 9.24992 14.4953 9.44129C14.2537 9.69819 14.1922 10.0233 14.1922 10.379C14.1922 10.815 14.295 11.0908 14.4926 11.2945C14.6886 11.4981 15.0346 11.5597 15.3079 11.5597H15.9659L16.1781 11.0248H17.3461L17.565 11.5597H18.7101V9.75985L19.7758 11.5597H20.5726L20.5727 11.5597V9.16173L19.9968 9.1617ZM17.1544 10.5249H16.3783L16.7653 9.56892L17.1544 10.5249Z" fill="black"/>
<path d="M11.9465 13.286H10.1498L9.43462 14.0722L8.74283 13.286H6.4814V15.6846H8.70856L9.42807 14.8905L10.1204 15.6846H11.2133V14.8801H11.9149C12.4064 14.8801 12.894 14.7425 12.894 14.0762C12.894 13.4119 12.3927 13.286 11.9465 13.286ZM8.42384 15.1848H7.04142V14.7075H8.27581V14.2181H7.04142V13.782H8.4511L9.06609 14.481L8.42384 15.1848ZM10.6532 15.4665L9.78997 14.4894L10.6532 13.5434V15.4665ZM11.9399 14.3929H11.2132V13.7821H11.9464C12.1494 13.7821 12.2903 13.8665 12.2903 14.0762C12.2903 14.2836 12.1559 14.3929 11.9399 14.3929Z" fill="black"/>
<path d="M15.7335 13.286H17.6102V13.7821H16.2935V14.2181H17.578V14.7075H16.2935V15.1848L17.6102 15.1868V15.6847H15.7335V13.286Z" fill="black"/>
<path d="M15.0231 14.57C15.1711 14.5101 15.4216 14.3148 15.4217 13.9319C15.4217 13.6583 15.3101 13.5086 15.1326 13.3993C14.9481 13.2989 14.7408 13.2861 14.4561 13.2861H13.158V15.6847H13.723V14.8087H14.3238C14.529 14.8087 14.6542 14.8292 14.7364 14.9151C14.8409 15.0267 14.8273 15.2403 14.8273 15.3846V15.6847H15.3918V15.2092C15.3895 14.9978 15.378 14.8885 15.2986 14.7714C15.2506 14.7015 15.1483 14.6171 15.0231 14.57ZM14.6836 14.2715C14.6084 14.317 14.5153 14.3209 14.4059 14.3209H13.7228V13.7822H14.4152C14.5153 13.7822 14.6155 13.7844 14.6835 13.8256C14.7564 13.8644 14.8 13.9387 14.8 14.0413C14.8 14.144 14.7564 14.2266 14.6836 14.2715Z" fill="black"/>
<path d="M19.7574 14.4195C19.8668 14.535 19.9255 14.6808 19.9255 14.9277C19.9255 15.4437 19.6092 15.6846 19.0422 15.6846H17.9471V15.1702H19.0378C19.1445 15.1702 19.2201 15.1558 19.2675 15.1108C19.3062 15.0737 19.3339 15.0198 19.3339 14.9544C19.3339 14.8845 19.3039 14.829 19.2653 14.7958C19.2223 14.7591 19.163 14.7425 19.0651 14.7425C18.5392 14.7242 17.8807 14.7591 17.8807 14.0001C17.8807 13.6522 18.0951 13.286 18.6846 13.286H19.8118V13.7965H18.7804C18.6782 13.7965 18.6117 13.8004 18.5551 13.8398C18.4935 13.8787 18.4707 13.9364 18.4707 14.0124C18.4707 14.1029 18.523 14.1645 18.5937 14.1911C18.653 14.2121 18.7168 14.2183 18.8126 14.2183L19.1152 14.2266C19.4205 14.2342 19.63 14.288 19.7574 14.4195Z" fill="black"/>
<path d="M20.7477 13.8633C20.8049 13.8237 20.8729 13.8198 20.9752 13.8198H22V7.09538C22 6.4903 21.5225 6 20.9335 6H3.0665C2.47776 6 2.00005 6.4904 2.00005 7.09538V10.2889L2.68097 8.69395H4.14729L4.33614 9.09015V8.69398H6.05546L6.43159 9.56041L6.79783 8.69398H12.2565C12.5046 8.69398 12.7278 8.74125 12.8915 8.88984V8.69398H14.3856V8.88984C14.643 8.74569 14.9615 8.69395 15.3239 8.69395H17.4891L17.6899 9.09015V8.69395H19.2928L19.5115 9.09015V8.69398H21.0736V12.0486H19.4953L19.197 11.5412V12.0486H17.2272L17.0133 11.5144H16.5284L16.3096 12.0486H15.2875C14.8864 12.0486 14.5816 11.9518 14.3856 11.8445V12.0486H11.956V11.2874C11.956 11.1799 11.9374 11.1739 11.8738 11.1717H11.7829L11.7851 12.0486H7.08733V11.6341L6.9186 12.0503H5.93734L5.7686 11.6402V12.0486H3.87839L3.66234 11.5144H3.17738L2.96076 12.0486H2.00008V12.0486H2V17.8012C2 18.4062 2.47745 18.8965 3.06645 18.8965H20.9335C21.5222 18.8965 22 18.4061 22 17.8011V15.4059L21.9999 15.4059V16.0313C21.7746 16.1426 21.4786 16.186 21.1754 16.186H19.7185V15.9712C19.5497 16.1097 19.2448 16.186 18.9532 16.186H14.3601V15.4102C14.3601 15.3151 14.3509 15.3112 14.2578 15.3112H14.1849V16.1861H12.6729V15.2802C12.4198 15.392 12.1329 15.402 11.8897 15.3982H11.7095V16.1878L9.87634 16.1862L9.42568 15.6643L8.94723 16.1862H5.97333V12.8292H9.00426L9.43915 13.343L9.90339 12.8292H11.9324C12.167 12.8292 12.5518 12.8544 12.7249 13.0257V12.8292H14.5378C14.7082 12.8292 15.0773 12.8644 15.2961 13.0257V12.8292H18.0447V13.0257C18.1813 12.8916 18.4702 12.8292 18.7164 12.8292H20.2556V13.0257C20.4171 12.9062 20.6452 12.8292 20.9592 12.8292H21.9999V13.3079H20.8799C20.2898 13.3079 20.0731 13.6752 20.0731 14.0242C20.0731 14.7855 20.7318 14.7505 21.2597 14.7688C21.3577 14.7688 21.417 14.7855 21.4578 14.8222C21.4992 14.8556 21.5265 14.9112 21.5265 14.9813C21.527 15.0409 21.5028 15.0979 21.46 15.1382C21.4148 15.1834 21.3398 15.1977 21.2325 15.1977H20.151V15.7136H21.2369C21.5972 15.7136 21.8634 15.6101 21.9999 15.4059V15.4059H22V14.5043C21.9843 14.4837 21.9705 14.4631 21.9478 14.4448C21.8226 14.313 21.6174 14.2589 21.3099 14.2512L21.0051 14.2428C20.9115 14.2428 20.8478 14.2366 20.7884 14.2156C20.7156 14.1889 20.6655 14.1271 20.6655 14.0364C20.6655 13.96 20.6883 13.9022 20.7477 13.8633L20.7477 13.8633Z" fill="black"/>
</svg>
