<svg width="24" height="24" viewBox="0 0 24 24" fill="none" xmlns="http://www.w3.org/2000/svg">
<path d="M11.4766 10.1421H12.2834C12.8838 10.1421 13.2364 10.4582 13.2364 10.9997C13.2364 11.5411 12.8867 11.8563 12.2834 11.8563H11.4766V10.1421Z" fill="black"/>
<path d="M16.1706 12.4283L16.1678 12.6766C16.1678 13.0728 15.8158 13.3547 15.3504 13.3547C14.9842 13.3547 14.7508 13.1868 14.7508 12.9287C14.7508 12.6625 14.9756 12.5079 15.4048 12.4832L16.1706 12.4283Z" fill="black"/>
<path d="M21.2595 5H2.53693C1.68947 5 1 5.68947 1 6.53693V17.4631C1 18.3105 1.68947 19 2.53693 19H21.2595C22.1069 19 22.7964 18.3105 22.7964 17.4631V6.53693C22.7964 5.68947 22.1069 5 21.2595 5ZM10.7805 9.57108H12.4534C13.3168 9.57108 13.9334 10.164 13.9334 10.9997C13.9334 11.8354 13.3056 12.4283 12.4305 12.4283H11.4766V13.8569H10.7805V9.57108ZM15.5318 10.7142C16.3184 10.7142 16.8299 11.1072 16.8304 11.7186V13.8244H16.1945V13.3165H16.1802C15.9988 13.6475 15.5978 13.8569 15.1661 13.8569C14.5272 13.8569 14.0814 13.4926 14.0814 12.9445C14.0814 12.4016 14.5129 12.0904 15.3113 12.0442L16.1706 11.9995V11.7614C16.1706 11.4167 15.9332 11.2294 15.5127 11.2294C15.1661 11.2294 14.9124 11.4005 14.8615 11.661H14.2428C14.2628 11.1129 14.8019 10.7142 15.5318 10.7142ZM17.0863 10.7142H17.812L18.6294 13.2524H18.6437L19.461 10.7142H20.1667L18.9483 13.9992C18.6696 14.7516 18.3511 15 17.6745 15C17.6246 15 17.4636 14.9942 17.4177 14.9842V14.4689C17.4631 14.4742 17.562 14.4792 17.6144 14.4792C17.9209 14.4792 18.0936 14.3551 18.1997 14.0327L18.2627 13.842L17.0863 10.7142ZM7.97854 8C8.02264 8.4214 7.85176 8.83393 7.5916 9.14209C7.3277 9.44133 6.90357 9.67706 6.48043 9.64343C6.4281 9.23919 6.63537 8.8085 6.87759 8.5429C7.14224 8.23542 7.60399 8.01647 7.97854 8ZM7.012 10.0497C7.25928 9.96138 7.56391 9.85255 7.93035 9.85255H7.98584C8.15404 9.85255 8.8758 9.93513 9.31164 10.5295L9.30055 10.5362C9.19905 10.5962 8.50515 11.0067 8.51295 11.8217C8.52138 12.788 9.3797 13.1477 9.48871 13.1934C9.49561 13.1963 9.49951 13.1979 9.5 13.1984L9.4968 13.2077C9.47254 13.2792 9.32523 13.7137 8.99333 14.1582L8.97721 14.1799C8.67315 14.5901 8.36926 15 7.8734 15C7.62791 15 7.46231 14.9391 7.29225 14.8765C7.11275 14.8105 6.92827 14.7426 6.63959 14.7426C6.34066 14.7426 6.15714 14.8118 5.98015 14.8786C5.8265 14.9366 5.67777 14.9927 5.46272 15C4.95809 15 4.58441 14.5594 4.27416 14.1421C3.6417 13.2986 3.15716 11.7649 3.8113 10.7292C4.12977 10.211 4.73352 9.85523 5.35029 9.85523C5.63683 9.85523 5.90153 9.95377 6.13032 10.0389C6.30445 10.1038 6.45778 10.1609 6.5841 10.1609C6.70092 10.1609 6.84308 10.1101 7.012 10.0497Z" fill="black"/>
</svg>
