<svg width="24" height="24" viewBox="0 0 24 24" fill="none" xmlns="http://www.w3.org/2000/svg">
<path fill-rule="evenodd" clip-rule="evenodd" d="M6.02502 13.6056C6.64508 13.9705 7.32793 14.153 8.07358 14.153H16.29L13.1479 17.2906L14.5018 18.6563L20 13.1582L14.5018 7.66003L13.1479 9.01397L16.2928 12.1633H8.07358C7.68898 12.1633 7.33774 12.0692 7.01986 11.8808C6.70591 11.6924 6.45474 11.4412 6.26637 11.1273C6.08192 10.8094 5.9897 10.4582 5.9897 10.0736C5.9897 9.68898 6.08388 9.3397 6.27225 9.02575C6.46063 8.71179 6.71179 8.46063 7.02575 8.27225C7.34363 8.08388 7.69291 7.98969 8.07358 7.98969H8.85062V6H8.07358C7.51238 6 6.98454 6.10596 6.49006 6.31788C5.99951 6.5298 5.56782 6.82217 5.19499 7.19499C4.82217 7.56781 4.5298 8.00147 4.31788 8.49595C4.10596 8.9865 4 9.51238 4 10.0736C4 10.8231 4.18249 11.508 4.54746 12.128C4.91636 12.7442 5.40888 13.2367 6.02502 13.6056Z" fill="black"/>
</svg>
