<svg width="24" height="24" viewBox="0 0 24 24" fill="none" xmlns="http://www.w3.org/2000/svg">
<path fill-rule="evenodd" clip-rule="evenodd" d="M15.6576 7C15.2787 7 14.9718 7.31489 14.9718 7.70172C14.9718 8.08944 15.2787 8.40345 15.6576 8.40345H17.6591L13.3441 12.8199C12.6018 13.5787 11.3983 13.5787 10.656 12.8199C9.37879 11.5121 7.30693 11.5121 6.02893 12.8199L4.20059 14.6909C3.93314 14.9646 3.93314 15.4093 4.20059 15.683C4.46804 15.9575 4.90261 15.9575 5.17006 15.683L6.99926 13.812C7.74071 13.0524 8.94419 13.0524 9.68648 13.812C10.9645 15.1198 13.0355 15.1198 14.3135 13.812L18.6285 9.39642V11.4446C18.6285 11.8323 18.9362 12.1463 19.3143 12.1463C19.6931 12.1463 20 11.8323 20 11.4446V8.63768C20 7.73334 19.2843 7.00002 18.4005 7.00002L15.6576 7Z" fill="black"/>
</svg>
