<svg width="24" height="24" viewBox="0 0 24 24" fill="none" xmlns="http://www.w3.org/2000/svg">
<path d="M17.9878 14.5676C17.9878 14.3879 17.9069 14.2182 17.7683 14.1046C17.629 13.9909 17.4461 13.9458 17.2702 13.9816C16.9869 14.0462 16.7869 14.3007 16.7924 14.5918V16.1616C16.7924 16.2145 16.7714 16.2651 16.734 16.3024C16.6966 16.3398 16.6461 16.3608 16.5931 16.3608H14.4015V14.5918C14.4069 14.3007 14.2069 14.0462 13.9236 13.9816C13.7477 13.9458 13.5648 13.9909 13.4255 14.1046C13.287 14.2182 13.206 14.3879 13.206 14.5676V16.3608H10.8151V14.5918C10.8206 14.3007 10.6206 14.0462 10.3373 13.9816C10.1614 13.9458 9.97847 13.9909 9.83916 14.1046C9.70063 14.2182 9.61968 14.3879 9.61968 14.5676V16.3608H7.42802C7.31828 16.3608 7.22878 16.2713 7.22878 16.1616V14.5918C7.23423 14.3007 7.03421 14.0462 6.75092 13.9816C6.57503 13.9458 6.39213 13.9909 6.25282 14.1046C6.11428 14.2182 6.03333 14.3879 6.03333 14.5676V16.1616C6.03333 16.9321 6.65752 17.5563 7.42802 17.5563H16.5931C17.3636 17.5563 17.9878 16.9321 17.9878 16.1616V14.5676Z" fill="black"/>
<path d="M7.02954 11.4374L9.16521 9.29394C9.30842 9.15696 9.53413 9.15696 9.67732 9.29394L11.5063 11.1229C12.1157 11.7315 13.1033 11.7315 13.7119 11.1229L16.7924 8.04005V10.15C16.7846 10.4676 17.0165 10.7392 17.3302 10.782C17.4983 10.7968 17.6648 10.7407 17.7886 10.6263C17.9147 10.5143 17.987 10.3532 17.9878 10.1843V7.39488C17.9878 7.02519 17.8407 6.6703 17.5792 6.40879C17.3177 6.14729 16.9628 6.00019 16.5931 6.00019H13.838C13.5205 5.99241 13.2489 6.22434 13.206 6.53798C13.1889 6.70687 13.2442 6.87498 13.3586 7.00028C13.4722 7.12559 13.6341 7.19641 13.8038 7.19563H15.948L12.8638 10.2777C12.7205 10.4147 12.4948 10.4147 12.3516 10.2777L10.5382 8.46428V8.46506C10.4028 8.32497 10.2425 8.21135 10.0658 8.13039C9.86268 8.04011 9.64319 7.99342 9.4206 7.99264C9.00734 7.99186 8.61041 8.15608 8.31856 8.44872L6.17512 10.5828C5.94163 10.8163 5.94163 11.1945 6.17512 11.4272C6.41016 11.6623 6.78904 11.667 7.02954 11.4374Z" fill="black"/>
</svg>
