<svg width="24" height="24" viewBox="0 0 24 24" fill="none" xmlns="http://www.w3.org/2000/svg">
<path fill-rule="evenodd" clip-rule="evenodd" d="M10.659 1.023C10.604 1.029 10.412 1.05 10.23 1.07C9.821 1.114 9.305 1.197 8.584 1.335C8.04 1.439 7.938 1.461 7.829 1.495C7.773 1.512 7.632 1.55 7.514 1.58C7.396 1.609 7.256 1.646 7.201 1.662C7.147 1.677 7.014 1.715 6.905 1.744C6.796 1.774 6.67 1.81 6.625 1.825C6.58 1.84 6.454 1.877 6.345 1.909C5.968 2.017 5.023 2.341 4.864 2.417C4.827 2.434 4.724 2.471 4.633 2.5C4.459 2.554 4.359 2.595 4.217 2.669C4.168 2.694 4.113 2.715 4.092 2.715C4.007 2.715 3.62 2.996 3.442 3.186C3.181 3.467 3.072 3.688 2.97 4.147C2.954 4.219 2.94 5.609 2.939 7.235C2.938 10.123 2.939 10.194 3.003 10.32C3.152 10.611 3.404 10.692 3.859 10.594C3.959 10.573 4.144 10.538 4.271 10.517C4.398 10.495 4.613 10.449 4.748 10.413C4.884 10.377 5.055 10.332 5.127 10.313C5.199 10.294 5.273 10.266 5.29 10.25C5.307 10.234 5.36 10.222 5.407 10.222C5.454 10.222 5.507 10.209 5.524 10.194C5.541 10.179 5.629 10.14 5.72 10.107C5.877 10.049 6.39 9.823 6.493 9.766C6.521 9.751 6.632 9.689 6.74 9.629C6.849 9.569 6.967 9.504 7.002 9.484C7.038 9.464 7.197 9.355 7.356 9.242C7.515 9.129 7.657 9.036 7.671 9.036C7.685 9.036 7.733 9.003 7.778 8.962C7.823 8.921 7.994 8.774 8.157 8.636C9.165 7.786 10.053 6.558 10.594 5.266C10.685 5.048 10.705 4.997 10.752 4.855C10.779 4.773 10.825 4.618 10.856 4.509C10.886 4.4 10.923 4.274 10.938 4.229C10.953 4.184 10.99 4.028 11.02 3.883C11.051 3.739 11.084 3.598 11.093 3.571C11.103 3.543 11.123 3.41 11.137 3.274C11.152 3.139 11.188 2.82 11.218 2.566C11.35 1.449 11.35 1.392 11.216 1.213C11.174 1.157 11.088 1.086 11.026 1.057C10.916 1.004 10.869 1 10.659 1.023M12.92 1.057C12.699 1.167 12.633 1.304 12.64 1.642C12.643 1.806 12.662 2.052 12.681 2.188C12.7 2.324 12.738 2.62 12.764 2.846C12.847 3.551 12.839 3.498 12.976 4.097C13.284 5.449 14.163 7.014 15.23 8.111C15.474 8.362 16.243 9.036 16.286 9.036C16.296 9.036 16.432 9.128 16.59 9.241C16.924 9.48 16.994 9.52 17.606 9.822C18.183 10.108 18.76 10.316 19.301 10.435C19.437 10.465 19.6 10.502 19.664 10.517C19.808 10.552 20.229 10.622 20.409 10.641C20.624 10.664 20.838 10.535 20.951 10.313C21.011 10.196 21.014 10.073 21.012 7.235C21.011 5.609 20.998 4.219 20.981 4.147C20.883 3.703 20.773 3.473 20.537 3.215C20.269 2.92 20.009 2.754 19.548 2.582C19.512 2.569 19.423 2.535 19.351 2.507C19.278 2.479 19.112 2.418 18.98 2.371C18.849 2.325 18.642 2.25 18.52 2.206C18.22 2.098 17.846 1.976 17.606 1.908C17.497 1.877 17.371 1.84 17.326 1.825C17.281 1.81 17.158 1.775 17.054 1.746C16.95 1.717 16.787 1.672 16.692 1.645C16.377 1.557 15.994 1.459 15.861 1.432C14.855 1.229 14.12 1.101 13.958 1.101C13.893 1.101 13.768 1.087 13.681 1.071C13.346 1.005 13.036 1 12.92 1.057M3.124 12.074C3.006 12.182 2.975 12.313 3.008 12.56C3.108 13.297 3.159 13.541 3.334 14.107C3.4 14.318 3.645 14.973 3.759 15.243C3.81 15.362 4.163 16.065 4.189 16.099C4.204 16.117 4.277 16.25 4.353 16.395C4.43 16.54 4.542 16.727 4.604 16.811C4.665 16.895 4.715 16.972 4.715 16.981C4.715 17.005 5.08 17.535 5.134 17.591C5.157 17.615 5.176 17.646 5.176 17.659C5.176 17.672 5.203 17.712 5.235 17.747C5.268 17.782 5.359 17.899 5.439 18.007C5.518 18.114 5.609 18.233 5.64 18.27C5.671 18.307 5.857 18.53 6.053 18.766C6.421 19.209 7.774 20.584 8.08 20.825C8.176 20.901 8.334 21.036 8.43 21.125C8.794 21.459 9.968 22.367 10.502 22.726C10.882 22.982 11.002 22.997 11.187 22.811L11.307 22.692L11.29 21.799C11.264 20.441 11.171 19.676 10.886 18.453C10.784 18.019 10.646 17.535 10.579 17.383C10.563 17.347 10.531 17.265 10.509 17.202C10.382 16.847 10.096 16.233 9.918 15.934C9.864 15.844 9.809 15.747 9.796 15.72C9.761 15.645 9.4 15.108 9.35 15.057C9.326 15.033 9.202 14.886 9.074 14.732C8.831 14.441 8.384 14.016 8.094 13.8C8.002 13.732 7.901 13.655 7.871 13.631C7.633 13.436 6.798 12.966 6.345 12.771C6.291 12.748 6.161 12.691 6.056 12.644C5.952 12.598 5.849 12.559 5.828 12.559C5.808 12.559 5.686 12.524 5.558 12.482C5.208 12.365 4.793 12.246 4.534 12.187C4.317 12.138 4.229 12.119 3.799 12.034C3.489 11.973 3.216 11.989 3.124 12.074M20.125 12.038C20.043 12.055 19.895 12.085 19.795 12.104C19.302 12.2 18.278 12.488 18.001 12.608C17.947 12.632 17.85 12.67 17.787 12.693C17.609 12.757 16.788 13.165 16.675 13.245C16.62 13.285 16.568 13.317 16.559 13.317C16.531 13.317 16.126 13.593 16.042 13.67C15.997 13.711 15.947 13.745 15.931 13.745C15.9 13.745 15.808 13.822 15.387 14.203C15.12 14.445 14.494 15.159 14.494 15.223C14.494 15.24 14.483 15.259 14.469 15.265C14.442 15.276 14.165 15.675 14.165 15.703C14.165 15.712 14.107 15.814 14.036 15.929C13.927 16.109 13.711 16.542 13.603 16.799C13.586 16.839 13.558 16.906 13.54 16.947C13.46 17.131 13.309 17.55 13.309 17.588C13.309 17.612 13.296 17.657 13.28 17.688C13.234 17.779 13.168 17.997 13.142 18.14C13.129 18.213 13.087 18.398 13.049 18.552C12.869 19.275 12.841 19.456 12.683 20.945C12.665 21.112 12.651 21.574 12.651 21.973L12.651 22.698L12.767 22.815C12.952 23 13.067 22.982 13.482 22.704C13.668 22.58 13.882 22.428 13.958 22.367C14.033 22.306 14.196 22.182 14.319 22.091C14.667 21.835 15.382 21.26 15.564 21.089C15.655 21.004 15.803 20.877 15.893 20.805C16.195 20.566 17.54 19.199 17.899 18.766C18.094 18.53 18.279 18.308 18.309 18.272C18.339 18.236 18.408 18.147 18.462 18.074C18.516 18.002 18.615 17.875 18.684 17.792C18.752 17.71 18.808 17.631 18.808 17.618C18.808 17.605 18.823 17.576 18.842 17.554C18.899 17.489 19.236 17.004 19.236 16.987C19.236 16.979 19.304 16.872 19.387 16.75C19.471 16.628 19.553 16.499 19.57 16.462C19.586 16.425 19.645 16.314 19.701 16.214C19.756 16.114 19.88 15.877 19.976 15.687C20.163 15.317 20.226 15.176 20.372 14.798C20.403 14.717 20.441 14.62 20.455 14.584C20.543 14.365 20.732 13.732 20.795 13.448C21.062 12.251 21.011 11.995 20.504 12.004C20.377 12.006 20.206 12.021 20.125 12.038" fill="black"/>
</svg>
