<svg width="24" height="24" viewBox="0 0 24 24" fill="none" xmlns="http://www.w3.org/2000/svg">
<path d="M10.1127 6.00018C9.47973 5.99333 8.91605 6.1792 8.42245 6.49989C8.13147 6.6888 7.90522 6.89827 7.78029 7.04757C7.70107 7.13364 4.75394 10.3824 4.6374 10.5234C3.72255 11.6294 3.8551 12.7217 4.6374 13.7364C4.83469 13.9915 5.36409 14.5507 6.13725 15.3787C6.16467 15.4076 7.65843 16.9905 7.75593 17.0926C7.83896 17.203 8.06976 17.4323 8.37521 17.6403C8.87872 17.9846 9.45231 18.1826 10.1127 18.1879H16.183C17.8634 18.1879 19.2299 16.8237 19.2299 15.141C19.2299 14.3793 19.2299 9.80886 19.2299 9.04712C19.2299 7.36445 17.8641 6.00018 16.183 6.00018H10.1127ZM10.1127 7.52365H16.183C17.0239 7.52365 17.7065 8.20617 17.7065 9.04712C17.7065 9.80886 17.7065 14.3793 17.7065 15.141C17.7065 15.982 17.0239 16.6645 16.183 16.6645H10.1127C9.78443 16.6614 9.50258 16.5632 9.23217 16.3788C9.06687 16.2661 8.93891 16.1442 8.89853 16.0932C8.75533 15.9385 7.28289 14.3838 7.25623 14.3556C6.52725 13.5741 6.00547 13.0074 5.8516 12.8086C5.46159 12.302 5.43264 11.9768 5.82798 11.4991C5.92167 11.3864 6.49221 10.7351 7.35145 9.78524C7.35678 9.77915 8.84749 8.15588 8.94651 8.04772C9.00136 7.98297 9.1042 7.88395 9.25578 7.78569C9.51325 7.6181 9.79585 7.52061 10.1127 7.52365ZM10.8745 9.80886C10.6802 9.80886 10.4753 9.87437 10.3268 10.0229C10.0305 10.32 10.0305 10.8212 10.3268 11.1183L11.279 12.0941L10.3268 13.0699C10.0305 13.3669 10.0305 13.8681 10.3268 14.1652C10.6231 14.4623 11.1015 14.4623 11.3985 14.1652L12.3743 13.1894L13.3501 14.1652C13.6464 14.4623 14.1492 14.4623 14.4455 14.1652C14.7418 13.8681 14.7418 13.3669 14.4455 13.0699L13.4689 12.0941L14.4455 11.1183C14.7418 10.8212 14.7418 10.32 14.4455 10.0229C14.2969 9.87437 14.092 9.80886 13.8978 9.80886C13.7035 9.80886 13.4979 9.87437 13.3501 10.0229L12.3743 10.9987L11.3985 10.0229C11.25 9.87437 11.0687 9.80886 10.8745 9.80886Z" fill="#2A343D"/>
</svg>
