<svg width="24" height="24" viewBox="0 0 24 24" fill="none" xmlns="http://www.w3.org/2000/svg">
<path d="M18.125 15.0278C18.125 14.5658 17.9404 14.1225 17.6123 13.7958C17.4033 13.5877 17.1469 13.4376 16.8684 13.356C16.6032 13.2784 16.375 13.0601 16.375 12.7825V11.1741C16.375 10.8964 16.5989 10.6713 16.875 10.6713H17.625C17.9011 10.6713 18.125 10.4462 18.125 10.1686V7.84648C18.125 7.66687 18.0297 7.5009 17.875 7.41108L12.25 4.14477C12.0953 4.05493 11.9047 4.05493 11.75 4.14477L6.12496 7.41108C5.97028 7.5009 5.875 7.66687 5.875 7.84648V10.1686C5.875 10.4462 6.09886 10.6713 6.375 10.6713H7.125C7.40114 10.6713 7.625 10.8964 7.625 11.1741V12.7825C7.625 13.0601 7.39665 13.278 7.13148 13.3555C6.40531 13.5677 5.875 14.2361 5.875 15.0278V15.8949C5.875 16.1378 5.67912 16.3348 5.4375 16.3348C5.19588 16.3348 5 16.5318 5 16.7747V17.5746C5 17.8523 5.22386 18.0774 5.5 18.0774H18.5C18.7761 18.0774 19 17.8523 19 17.5746V16.7747C19 16.5318 18.8041 16.3348 18.5625 16.3348C18.3209 16.3348 18.125 16.1378 18.125 15.8949V15.0278ZM14.625 12.7825C14.625 13.0601 14.4011 13.2852 14.125 13.2852H13.375C13.0989 13.2852 12.875 13.0601 12.875 12.7825V11.1741C12.875 10.8964 13.0989 10.6713 13.375 10.6713H14.125C14.4011 10.6713 14.625 10.8964 14.625 11.1741V12.7825ZM7.625 8.69409C7.625 8.61028 7.66945 8.53283 7.74161 8.49089L11.7498 6.1616C11.9046 6.07164 12.0954 6.07164 12.2502 6.1616L16.2584 8.49089C16.3306 8.53283 16.375 8.61028 16.375 8.69409C16.375 8.82371 16.2705 8.92879 16.1416 8.92879H7.8584C7.7295 8.92879 7.625 8.82371 7.625 8.69409ZM9.375 11.1742C9.375 10.8965 9.59886 10.6714 9.875 10.6714H10.625C10.9011 10.6714 11.125 10.8965 11.125 11.1742V12.7825C11.125 13.0602 10.9011 13.2853 10.625 13.2853H9.875C9.59886 13.2853 9.375 13.0602 9.375 12.7825V11.1742ZM8.125 16.3348C7.84886 16.3348 7.625 16.1097 7.625 15.8321V15.5307C7.625 15.253 7.84886 15.0279 8.125 15.0279H15.875C16.1511 15.0279 16.375 15.253 16.375 15.5307V15.8321C16.375 16.1097 16.1511 16.3348 15.875 16.3348H8.125Z" fill="black"/>
</svg>
