<svg width="24" height="24" viewBox="0 0 24 24" fill="none" xmlns="http://www.w3.org/2000/svg">
<path fill-rule="evenodd" clip-rule="evenodd" d="M8.51892 5.44191C9.44216 4.51867 10.6943 4 12 4C13.3057 4 14.5578 4.51867 15.4811 5.44191C16.4043 6.36515 16.923 7.61734 16.923 8.92299C16.923 11.2328 17.4169 12.6613 17.8676 13.4875C18.0939 13.9025 18.3136 14.1734 18.4646 14.3328C18.5404 14.4127 18.5993 14.4652 18.634 14.494C18.6513 14.5085 18.6625 14.517 18.6668 14.5202C18.667 14.5203 18.6672 14.5205 18.6674 14.5206C18.9424 14.7102 19.064 15.0562 18.9669 15.3767C18.8687 15.7011 18.5698 15.9229 18.2308 15.9229H5.76916C5.43024 15.9229 5.13127 15.7011 5.03306 15.3767C4.93601 15.0562 5.0576 14.7102 5.33258 14.5207C5.33277 14.5205 5.33299 14.5204 5.33322 14.5202C5.33746 14.517 5.34871 14.5085 5.36604 14.494C5.40067 14.4652 5.45965 14.4127 5.53535 14.3328C5.68637 14.1734 5.90605 13.9025 6.13244 13.4875C6.5831 12.6613 7.07701 11.2328 7.07701 8.92299C7.07701 7.61733 7.59568 6.36515 8.51892 5.44191ZM7.3923 14.3847H16.6077C16.5775 14.3328 16.5473 14.2793 16.5172 14.224C15.9294 13.1464 15.3848 11.4594 15.3848 8.92299C15.3848 8.02529 15.0282 7.16436 14.3934 6.52959C13.7586 5.89482 12.8977 5.53821 12 5.53821C11.1023 5.53821 10.2414 5.89482 9.60659 6.52959C8.97182 7.16436 8.61521 8.02529 8.61521 8.92299C8.61521 11.4594 8.07065 13.1464 7.48283 14.224C7.4527 14.2793 7.4225 14.3328 7.3923 14.3847ZM10.4164 17.2578C10.7838 17.0447 11.2544 17.1698 11.4676 17.5372C11.5217 17.6305 11.5993 17.7079 11.6928 17.7617C11.7862 17.8155 11.8922 17.8439 12 17.8439C12.1078 17.8439 12.2138 17.8155 12.3072 17.7617C12.4007 17.7079 12.4783 17.6305 12.5324 17.5372C12.7456 17.1698 13.2162 17.0447 13.5836 17.2578C13.951 17.471 14.0761 17.9416 13.863 18.309C13.6737 18.6354 13.4019 18.9063 13.075 19.0946C12.748 19.2829 12.3773 19.3821 12 19.3821C11.6227 19.3821 11.252 19.2829 10.925 19.0946C10.5981 18.9063 10.3263 18.6354 10.137 18.309C9.92389 17.9416 10.049 17.471 10.4164 17.2578Z" fill="black"/>
</svg>
