<svg width="24" height="24" viewBox="0 0 24 24" fill="none" xmlns="http://www.w3.org/2000/svg">
<path d="M12.0939 4C11.7785 4 11.4594 4.17558 11.3558 4.54754L11.0945 5.52347H8.2852C7.02301 5.52347 6 6.54656 6 7.80868V13.1408C6 14.403 7.02301 15.426 8.2852 15.426H8.33244L7.54709 18.2589C7.43435 18.6642 7.66591 19.0984 8.07115 19.2111C8.4764 19.3238 8.91058 19.0923 9.02332 18.687L9.92751 15.426H11.3321V17.7112C11.3321 18.1317 11.6734 18.473 12.0939 18.473C12.5144 18.473 12.8556 18.1317 12.8556 17.7112V15.426H14.2602L15.1644 18.687C15.2772 19.0923 15.7114 19.3238 16.1166 19.2111C16.5218 19.0984 16.7534 18.6642 16.6407 18.2589L15.8553 15.426H15.9026C17.1647 15.426 18.1878 14.403 18.1878 13.1408V7.80868C18.1878 6.54656 17.1647 5.52347 15.9026 5.52347H13.0933L12.832 4.54754C12.7284 4.17558 12.4092 4 12.0939 4ZM8.2852 7.04694H15.9026C16.323 7.04694 16.6643 7.38797 16.6643 7.80868V13.1408C16.6643 13.5613 16.323 13.9026 15.9026 13.9026H12.0939H8.2852C7.86473 13.9026 7.52347 13.5613 7.52347 13.1408V7.80868C7.52347 7.38797 7.86473 7.04694 8.2852 7.04694Z" fill="#2A343D"/>
</svg>
