<svg width="24" height="24" viewBox="0 0 24 24" fill="none" xmlns="http://www.w3.org/2000/svg">
<path d="M9.04694 4C7.10299 4 6 5.10177 6 7.04427V18.4602C6 19.0066 6.54464 19.3889 7.04739 19.1738L12.0939 17.0094L17.1168 19.1738C17.6195 19.3889 18.1878 19.0066 18.1878 18.4602V7.04427C18.1878 5.04769 17.1937 4 15.1408 4H9.04694ZM9.04694 5.5221H15.1408C16.3337 5.5221 16.6643 5.87059 16.6643 7.04427V17.3186L12.3795 15.4873C12.1876 15.4053 11.9758 15.4053 11.7846 15.4873L7.52347 17.3186V7.04427C7.52347 5.94242 7.94395 5.5221 9.04694 5.5221Z" fill="#2A343D"/>
</svg>
