<svg width="24" height="24" viewBox="0 0 24 24" fill="none" xmlns="http://www.w3.org/2000/svg">
<path d="M14.8887 16.2045C13.7324 16.2045 12.6861 15.7272 11.9336 14.9565L7.54653 14.9565C4.15116 14.9565 4.15116 9.26616 7.54653 9.26616L11.9336 9.26616C12.686 8.4955 13.7324 8 14.8887 8C17.1649 8 19 9.83525 19 12.1113C19 14.3691 17.1647 16.2045 14.8887 16.2045ZM14.8887 15.1399C16.577 15.1399 17.9355 13.7815 17.9355 12.1114C17.9355 10.4231 16.5775 9.06465 14.8887 9.06465C13.2187 9.06465 11.8602 10.4226 11.8602 12.1114C11.8602 13.7814 13.2187 15.1399 14.8887 15.1399Z" fill="black"/>
</svg>
