<svg width="24" height="24" viewBox="0 0 24 24" fill="none" xmlns="http://www.w3.org/2000/svg">
<path d="M9.11129 8C10.2676 8 11.3139 8.47732 12.0664 9.24797H16.4535C19.8488 9.24797 19.8488 14.9383 16.4535 14.9383H12.0664C11.314 15.709 10.2676 16.2045 9.11129 16.2045C6.83512 16.2045 5 14.3693 5 12.0932C5 9.8354 6.83527 8 9.11129 8ZM9.11129 9.06459C7.42299 9.06459 6.06447 10.423 6.06447 12.0931C6.06447 13.7814 7.42247 15.1398 9.11129 15.1398C10.7813 15.1398 12.1398 13.7819 12.1398 12.0931C12.1398 10.4231 10.7813 9.06459 9.11129 9.06459Z" fill="black"/>
</svg>
