<svg width="24" height="24" viewBox="0 0 24 24" fill="none" xmlns="http://www.w3.org/2000/svg">
<path d="M12.3321 4C9.38728 4 7 6.38728 7 9.33214C7 10.8244 7.41515 11.7133 8.33304 12.7836C8.37569 12.8338 8.53338 13.025 8.57071 13.0692C9.1123 13.7007 9.2852 14.045 9.2852 14.6643V16.1878C9.2852 17.8704 10.6495 19.2347 12.3321 19.2347C14.0148 19.2347 15.3791 17.8704 15.3791 16.1878V14.6643C15.3791 14.045 15.552 13.7007 16.0936 13.0692C16.1309 13.025 16.2886 12.8338 16.3313 12.7836C17.2491 11.7133 17.6643 10.8244 17.6643 9.33214C17.6643 6.38728 15.277 4 12.3321 4ZM12.3321 5.52347C14.4353 5.52347 16.1408 7.22899 16.1408 9.33214C16.1408 10.4108 15.8894 10.9661 15.1886 11.7842C15.149 11.8299 14.9678 12.0218 14.9266 12.0698C14.3835 12.7036 14.0674 13.2734 13.9295 13.9071C12.9636 13.9071 11.6984 13.9109 10.7325 13.9109C10.5946 13.2764 10.2808 12.7036 9.73767 12.0698C9.69654 12.0218 9.51525 11.8299 9.47564 11.7842C8.77484 10.9661 8.52347 10.4108 8.52347 9.33214C8.52347 7.22899 10.229 5.52347 12.3321 5.52347ZM12.3321 7.04694C11.0699 7.04694 10.0469 8.06995 10.0469 9.33214C10.0469 9.75262 10.3882 10.0939 10.8087 10.0939C11.2292 10.0939 11.5704 9.75262 11.5704 9.33214C11.5704 8.91167 11.9117 8.57041 12.3321 8.57041C12.7526 8.57041 13.0939 8.22915 13.0939 7.80867C13.0939 7.3882 12.7526 7.04694 12.3321 7.04694ZM10.8087 15.426C11.7502 15.426 12.9141 15.426 13.8556 15.426V16.1878C13.8556 17.0295 13.1739 17.7112 12.3321 17.7112C11.4904 17.7112 10.8087 17.0295 10.8087 16.1878V15.426Z" fill="#2A343D"/>
</svg>
