<svg width="24" height="24" viewBox="0 0 24 24" fill="none" xmlns="http://www.w3.org/2000/svg">
<path fill-rule="evenodd" clip-rule="evenodd" d="M17.7878 5H6.21222C5.54301 5 5 5.55538 5 6.24052V18.3648C5 19.0501 5.54275 19.6053 6.21222 19.6053H17.7878C18.457 19.6053 19 19.0499 19 18.3648V6.24052C19 5.55526 18.4573 5 17.7878 5ZM14.4052 10.5128C14.3182 10.6094 14.1608 10.6094 14.0668 10.5128L14.0691 10.5176C13.672 10.1481 13.0634 9.88003 12.4313 9.88003C11.9355 9.88003 11.4397 10.066 11.4397 10.5345C11.4397 10.9796 11.8951 11.1512 12.4495 11.3602C12.4938 11.3769 12.5387 11.3939 12.584 11.4112C13.6579 11.7928 14.5438 12.2613 14.5438 13.3722C14.5438 14.5773 13.6556 15.4033 12.1963 15.5047L12.0647 16.1616C12.0412 16.2824 11.9402 16.3669 11.8204 16.3669L10.9063 16.3596C10.7488 16.3572 10.6337 16.2099 10.6666 16.0481L10.8052 15.3574C10.2342 15.1956 9.73137 14.9058 9.33661 14.5049C9.23791 14.401 9.23791 14.2368 9.33661 14.133L9.84182 13.6113C9.93581 13.5123 10.0909 13.5123 10.1872 13.6113C10.676 14.1161 11.3081 14.3237 11.912 14.3237C12.5747 14.3237 13.0235 14.0412 13.0235 13.5582C13.0235 13.1347 12.6569 12.9934 11.9583 12.7241C11.884 12.6954 11.8059 12.6653 11.724 12.6332C10.8264 12.2999 9.97576 11.8193 9.97576 10.6963C9.97576 9.39944 11.005 8.76428 12.2175 8.70148L12.3491 8.047C12.3726 7.92866 12.4736 7.84414 12.5911 7.84172H13.5028C13.6603 7.84172 13.7778 7.99146 13.7449 8.15326L13.5968 8.88986C14.0621 9.04925 14.4944 9.30283 14.8634 9.6337C14.9691 9.73996 14.9738 9.91384 14.8751 10.0104L14.4052 10.5128Z" fill="black"/>
</svg>
