<svg width="24" height="24" viewBox="0 0 24 24" fill="none" xmlns="http://www.w3.org/2000/svg">
<path d="M12 20C16.4183 20 20 16.4183 20 12C20 7.58172 16.4183 4 12 4C7.58172 4 4 7.58172 4 12C4 16.4183 7.58172 20 12 20ZM16.8261 8.95255C17.0906 9.21704 17.0906 9.64977 16.8261 9.91426L11.7173 15.0231C10.7556 15.9848 10.7075 15.9848 9.75773 15.0231L7.17328 12.4386C6.90879 12.1741 6.90879 11.7534 7.17328 11.4889L7.67799 10.9842C7.94248 10.7197 8.36328 10.7197 8.62776 10.9842L10.7313 13.0877L15.3593 8.44747C15.6238 8.19489 16.057 8.19527 16.3214 8.44784L16.8261 8.95255Z" fill="black"/>
</svg>
