<svg width="24" height="24" viewBox="0 0 24 24" fill="none" xmlns="http://www.w3.org/2000/svg">
<path d="M11.8556 4C10.5935 4 9.57049 5.02072 9.57041 6.2852V7.09455H8.80867C8.11207 7.06652 7.0429 7.52158 6.64253 8.64186L5.76173 8.61802C5.34103 8.61802 4.99992 8.95828 5 9.37975C5 9.80122 5.34103 10.1419 5.76173 10.1411H6.52347V10.9028H5.76173C5.34103 10.9028 4.99992 11.2433 5 11.6646C5 12.0866 5.34103 12.4263 5.76173 12.4263H6.52347V13.188H5.76173C5.34103 13.188 4.99992 13.5285 5 13.9498C5 14.3718 5.34103 14.7123 5.76173 14.7115H6.52347V15.4732H5.76173C5.34103 15.4732 4.99992 15.8137 5 16.235C5 16.657 5.34103 16.9975 5.76173 16.9967H6.52347C6.52347 18.2589 7.54656 19.2827 8.80867 19.2819H14.1408C15.4029 19.2819 16.426 18.2589 16.426 16.9967V16.235L17.1878 16.2114C18.4499 16.2114 19.4729 15.1906 19.473 13.9262V6.2852C19.473 5.0208 18.4498 3.99985 17.1878 4H11.8556ZM17.1878 5.52347C17.6085 5.52347 17.9496 5.86374 17.9495 6.2852V13.9026C17.9495 14.3238 17.6085 14.6643 17.1878 14.6643L16.426 14.6879V9.37975C16.426 8.11763 15.4029 7.09455 14.1408 7.09455H11.0939V6.30897C11.0939 5.88758 11.4349 5.54723 11.8556 5.54723L17.1878 5.52347ZM8.80867 8.61802H14.1408C14.5615 8.61802 14.9026 8.95905 14.9026 9.37975V16.2114V16.9967C14.9026 17.418 14.5615 17.7592 14.1408 17.7585H8.80867C8.38797 17.7585 8.04694 17.418 8.04694 16.9967V16.2114V15.4732V9.37975C8.04694 9.16906 8.12334 8.97002 8.26122 8.8323C8.39901 8.69442 8.59836 8.61802 8.80867 8.61802Z" fill="#2A343D"/>
</svg>
