<svg width="24" height="24" viewBox="0 0 24 24" fill="none" xmlns="http://www.w3.org/2000/svg">
<path d="M17.7979 10.2011L18.8124 9.38969C19.0286 9.21713 19.0631 8.90261 18.8906 8.68708C18.718 8.47154 18.4028 8.43638 18.188 8.60894L17.0868 9.48999L16.2982 8.70141L17.3128 7.89005C17.529 7.71748 17.5635 7.40297 17.3909 7.18744C17.219 6.97124 16.9038 6.93739 16.6883 7.1093L15.5872 7.99034L14.7986 7.20177L15.8131 6.3904C16.0293 6.21783 16.0638 5.90332 15.8912 5.68779C15.7187 5.4716 15.4035 5.43709 15.1886 5.60965L14.0875 6.4907L13.0183 5.42146C12.457 4.86015 11.5434 4.86015 10.982 5.42146L10.2013 6.20222L9.3899 5.1877C9.21733 4.97216 8.90217 4.937 8.68729 5.10956C8.47109 5.28213 8.43659 5.59664 8.60915 5.81217L9.49019 6.91331L8.70162 7.70188L7.89025 6.68736C7.71768 6.47117 7.40252 6.43666 7.18764 6.60922C6.97145 6.78179 6.93694 7.0963 7.1095 7.31183L7.99055 8.41297L7.20197 9.20155L6.39061 8.18702C6.21804 7.97083 5.90287 7.93632 5.688 8.10888C5.4718 8.28145 5.4373 8.59597 5.60986 8.81149L6.4909 9.91263L5.42167 10.9819C4.86035 11.5432 4.86035 12.4568 5.42167 13.0181L6.20243 13.7989L5.1879 14.6102C4.97171 14.7828 4.9372 15.0973 5.10976 15.3128C5.28101 15.5277 5.59619 15.5642 5.81237 15.391L6.91351 14.5099L7.70209 15.2985L6.68757 16.1099C6.47137 16.2825 6.43687 16.597 6.60943 16.8125C6.78068 17.0274 7.09586 17.0638 7.31203 16.8906L8.41317 16.0096L9.20175 16.7982L8.18723 17.6095C7.97103 17.7821 7.93653 18.0966 8.10909 18.3121C8.28034 18.527 8.59552 18.5635 8.8117 18.3903L9.91284 17.5092L10.9821 18.5785C11.2627 18.8591 11.6313 18.9991 11.9999 18.9991C12.3684 18.9991 12.7376 18.8591 13.0176 18.5785L13.7984 17.7977L14.6098 18.8122C14.781 19.0271 15.0962 19.0636 15.3124 18.8904C15.5286 18.7178 15.5631 18.4033 15.3905 18.1878L14.5095 17.0866L15.2981 16.298L16.1094 17.3126C16.2807 17.5275 16.5959 17.5639 16.812 17.3907C17.0282 17.2181 17.0627 16.9036 16.8902 16.6881L16.0091 15.587L16.7977 14.7984L17.6091 15.8129C17.7803 16.0278 18.0955 16.0643 18.3117 15.891C18.5279 15.7185 18.5624 15.404 18.3898 15.1884L17.5088 14.0873L18.578 13.0181C19.1393 12.4567 19.1393 11.5431 18.578 10.9818L17.7979 10.2011ZM17.8708 12.3102L16.8804 13.3006L16.3894 12.6872C16.2169 12.471 15.9017 12.4365 15.6868 12.609C15.4706 12.7816 15.4361 13.0961 15.6087 13.3116L16.1687 14.0117L15.3801 14.8002L14.8891 14.1868C14.7166 13.9706 14.4014 13.9361 14.1865 14.1087C13.9703 14.2813 13.9358 14.5958 14.1084 14.8113L14.6684 15.5113L13.8798 16.2999L13.3888 15.6865C13.2163 15.4703 12.9011 15.4364 12.6862 15.6083C12.47 15.7809 12.4355 16.0954 12.6081 16.3109L13.1681 17.0109L12.3092 17.8698C12.138 18.0411 11.8592 18.0411 11.6873 17.8698L10.6969 16.8794L11.3103 16.3884C11.5265 16.2159 11.561 15.9013 11.3884 15.6858C11.2159 15.4696 10.9007 15.4358 10.6858 15.6077L9.98583 16.1677L9.19725 15.3791L9.81066 14.8881C10.0269 14.7156 10.0614 14.401 9.8888 14.1855C9.71623 13.9693 9.40107 13.9348 9.18619 14.1074L8.48618 14.6674L7.6976 13.8788L8.31101 13.3878C8.52721 13.2153 8.56171 12.9007 8.38915 12.6852C8.21725 12.469 7.90142 12.4345 7.68654 12.6071L6.98654 13.1671L6.12764 12.3082C5.95639 12.137 5.95639 11.8582 6.12764 11.6863L7.11808 10.6959L7.60906 11.3093C7.78031 11.5242 8.09549 11.5607 8.31167 11.3874C8.52786 11.2149 8.56237 10.9004 8.38981 10.6848L7.8298 9.98482L8.61837 9.19625L9.10936 9.80965C9.28061 10.0245 9.59579 10.061 9.81197 9.88779C10.0282 9.71523 10.0627 9.40071 9.89011 9.18519L9.33009 8.48518L10.1187 7.6966L10.6097 8.31001C10.7809 8.5249 11.0961 8.56136 11.3123 8.38815C11.5285 8.21558 11.563 7.90107 11.3904 7.68554L10.8304 6.98553L11.6893 6.12664C11.7752 6.04069 11.8872 5.99836 11.9999 5.99836C12.1125 5.99836 12.2252 6.04134 12.3105 6.12664L13.3009 7.11707L12.6875 7.60806C12.4713 7.78063 12.4368 8.09514 12.6094 8.31067C12.7806 8.52556 13.0958 8.56202 13.312 8.38881L14.012 7.82879L14.8006 8.61737L14.1872 9.10835C13.971 9.28092 13.9365 9.59544 14.109 9.81096C14.2803 10.0259 14.5955 10.0623 14.8116 9.8891L15.5117 9.32909L16.3002 10.1177L15.6868 10.6086C15.4706 10.7812 15.4361 11.0957 15.6087 11.3113C15.7799 11.5262 16.0951 11.5626 16.3113 11.3894L17.0113 10.8294L17.8702 11.6883C18.0428 11.8602 18.0428 12.1389 17.8708 12.3102Z" fill="black"/>
</svg>
