<svg width="24" height="24" viewBox="0 0 24 24" fill="none" xmlns="http://www.w3.org/2000/svg">
<path d="M13.4091 13.9304C14.4752 13.9304 15.3395 13.0661 15.3395 12C15.3395 10.9338 14.4752 10.0695 13.4091 10.0695C12.343 10.0695 11.4787 10.9338 11.4787 12C11.4787 13.0661 12.343 13.9304 13.4091 13.9304Z" fill="black"/>
<path d="M16.8872 16.5705C17.0514 16.7348 17.0349 17.0067 16.8419 17.136C15.8601 17.7936 14.6791 18.1772 13.4086 18.1772C12.138 18.1772 10.9571 17.7936 9.97521 17.136C9.78224 17.0067 9.76574 16.7348 9.92998 16.5705L11.3407 15.1598C11.4682 15.0323 11.666 15.0121 11.8265 15.0944C12.301 15.3375 12.8388 15.4746 13.4086 15.4746C13.9784 15.4746 14.5162 15.3375 14.9907 15.0944C15.1512 15.0121 15.349 15.0323 15.4765 15.1598L16.8872 16.5705Z" fill="black"/>
<path d="M16.8424 6.86392C17.0354 6.99319 17.0519 7.2651 16.8877 7.42934L15.477 8.84006C15.3494 8.96756 15.1516 8.9877 14.9912 8.90549C14.5166 8.66239 13.9789 8.52523 13.4091 8.52523C11.49 8.52523 9.93434 10.0809 9.93434 12C9.93434 12.5698 10.0715 13.1076 10.3146 13.5821C10.3968 13.7426 10.3767 13.9403 10.2492 14.0678L8.83845 15.4786C8.67421 15.6428 8.4023 15.6263 8.27303 15.4334C7.61536 14.4515 7.23178 13.2705 7.23178 12C7.23178 8.58834 9.99744 5.82266 13.4091 5.82266C14.6796 5.82266 15.8606 6.20625 16.8424 6.86392Z" fill="black"/>
</svg>
