<svg width="24" height="24" viewBox="0 0 24 24" fill="none" xmlns="http://www.w3.org/2000/svg">
<path d="M12 5C8.13909 5 5 8.13909 5 12C5 15.8609 8.13909 19 12 19C15.8609 19 19 15.8609 19 12C19 8.13909 15.8609 5 12 5ZM14.7113 13.606C15.021 13.9157 15.021 14.4016 14.7113 14.7113C14.5639 14.8587 14.3578 14.9323 14.1661 14.9323C13.9601 14.9323 13.7684 14.8587 13.621 14.7113L11.9999 13.1053L10.3939 14.7113C10.2466 14.8587 10.0405 14.9323 9.84878 14.9323C9.65708 14.9323 9.451 14.8587 9.30363 14.7113C8.99392 14.4016 8.99392 13.9157 9.30363 13.606L10.8948 12L9.28875 10.394C8.97904 10.0843 8.97904 9.59843 9.28875 9.28872C9.59846 8.97901 10.0843 8.97901 10.394 9.28872L12 10.8947L13.6061 9.28872C13.9158 8.97901 14.4016 8.97901 14.7113 9.28872C15.021 9.59843 15.021 10.0843 14.7113 10.394L13.1053 12L14.7113 13.606Z" fill="black"/>
</svg>
