<svg width="24" height="24" viewBox="0 0 24 24" fill="none" xmlns="http://www.w3.org/2000/svg">
<path d="M11.6173 6.00016C9.2057 6.0192 6.99591 7.64018 6.41699 10.2171C4.93846 10.8387 4 12.2418 4 13.9031C4 16.196 5.80989 18.1879 8.04634 18.1879H8.57041C8.99089 18.1879 9.33214 17.8474 9.33214 17.4262C9.33214 17.0057 8.99089 16.6644 8.57041 16.6644H8.04634C6.68589 16.6644 5.52347 15.3855 5.52347 13.9031C5.52347 12.7659 6.23493 11.8206 7.30897 11.4991C7.5931 11.4138 7.7904 11.1739 7.83229 10.8798C8.12632 8.81858 9.78309 7.5381 11.6173 7.52363C13.6596 7.50763 15.442 9.26571 15.426 11.3323C15.426 11.378 15.426 11.9897 15.426 12.1656C15.426 12.5198 15.6515 12.8238 15.9973 12.903C16.9998 13.1353 17.7112 13.9214 17.7112 14.7601C17.7112 15.7877 16.7088 16.6644 15.426 16.6644H14.6643C14.2438 16.6644 13.9026 17.0057 13.9026 17.4262C13.9026 17.8466 14.2438 18.1879 14.6643 18.1879H15.426C17.5086 18.1879 19.2347 16.6774 19.2347 14.7601C19.2347 13.3775 18.3092 12.1542 16.9396 11.6256C16.9411 11.49 16.9495 11.3521 16.9495 11.3323C16.9723 8.41028 14.5051 5.97731 11.6173 6.00016ZM11.6173 10.5706L9.32301 12.8657L10.8556 12.8558V17.4262C10.8556 17.8466 11.1969 18.1879 11.6173 18.1879C12.0378 18.1879 12.3791 17.8466 12.3791 17.4262V12.8558L13.9117 12.8626L11.6173 10.5706Z" fill="#2A343D"/>
</svg>
