<svg width="24" height="24" viewBox="0 0 24 24" fill="none" xmlns="http://www.w3.org/2000/svg">
<path d="M11.8556 5C9.75246 5 8.04693 6.70552 8.04693 8.80867C8.04693 8.85666 8.04542 8.83915 8.0477 8.88333C6.31095 9.23754 5 10.7762 5 12.6173C5 14.7205 6.70552 16.426 8.80867 16.426C8.99225 16.426 9.17888 16.407 9.35484 16.3735C9.31294 16.5289 9.29009 16.602 9.23677 16.7597C9.15984 16.9889 9.08137 17.1855 8.9991 17.3782C8.95111 17.4909 8.89779 17.58 8.88027 17.6158C8.63042 18.1224 9.00596 18.7112 9.5704 18.7112H14.1408C14.7136 18.7112 15.0739 18.0996 14.8073 17.5922C14.7906 17.561 14.7586 17.4825 14.7121 17.3782C14.6314 17.1977 14.5498 17.0042 14.4744 16.7833C14.4188 16.621 14.3945 16.5357 14.351 16.3742C14.5262 16.4116 14.7304 16.426 14.9025 16.426C17.0057 16.426 18.7112 14.7205 18.7112 12.6173C18.7112 10.7762 17.4033 9.23296 15.6665 8.87875C15.6688 8.83457 15.6643 8.85666 15.6643 8.80867C15.6643 6.70552 13.9587 5 11.8556 5ZM11.8556 6.52347C13.1178 6.52347 14.1408 7.54648 14.1408 8.80867C14.1408 8.89323 14.1134 8.98388 14.0456 9.21316C14.0387 9.23677 14.009 9.36246 13.9976 9.40359C13.8613 9.90558 14.2642 10.3855 14.7837 10.3558C14.8286 10.3535 14.866 10.3382 14.9025 10.3321C16.1647 10.3321 17.1877 11.3552 17.1877 12.6173C17.1877 13.8795 16.1647 14.9026 14.9025 14.9026C14.5864 14.9026 14.1911 14.7152 13.9976 14.4501C13.5665 13.8567 12.6242 14.1682 12.6173 14.9026C12.6105 15.6612 12.7659 16.442 13.0157 17.1984L10.6833 17.1839C10.9072 16.506 11.0626 15.8387 11.0939 15.1882C11.0984 15.0953 11.0946 14.994 11.0939 14.9026C11.0901 14.1667 10.1463 13.8552 9.7136 14.4501C9.48736 14.7601 9.18573 14.9026 8.80867 14.9026C7.54648 14.9026 6.52347 13.8795 6.52347 12.6173C6.52347 11.3635 7.53352 10.3451 8.78505 10.3321C8.82085 10.339 8.87418 10.3527 8.9275 10.3558C9.447 10.3855 9.84995 9.90558 9.7136 9.40359C9.70217 9.36246 9.67247 9.23677 9.66562 9.21316C9.59782 8.98388 9.5704 8.89323 9.5704 8.80867C9.5704 7.54648 10.5934 6.52347 11.8556 6.52347Z" fill="#2A343D"/>
</svg>
