<svg width="24" height="24" viewBox="0 0 24 24" fill="none" xmlns="http://www.w3.org/2000/svg">
<path d="M16.0092 13.019H15.1129V10.9809H16.0092C16.8167 10.9809 17.5508 10.6589 18.0897 10.1369C18.6506 9.5931 19 8.83174 19 7.99074C19 7.21905 18.7059 6.51479 18.2246 5.98378C17.6765 5.37979 16.8866 5.00002 16.0092 5.00002C15.0394 5.00002 14.1754 5.46425 13.6285 6.18248C13.2457 6.685 13.0184 7.31207 13.0184 7.99081V8.88707H10.9803V7.99081C10.9803 7.16624 10.6449 6.41892 10.1035 5.87682C9.5627 5.33541 8.81471 5 7.99077 5C7.09875 5 6.29662 5.39253 5.74861 6.01414C5.28255 6.54096 5 7.23366 5 7.99078C5 8.81534 5.33541 9.56266 5.87681 10.1041C6.41822 10.6456 7.16622 10.981 7.9908 10.981H8.88705V13.019H7.9908C6.99063 13.019 6.10346 13.5124 5.56026 14.2683C5.20784 14.7593 5.00002 15.3609 5.00002 16.0091C5.00002 16.8282 5.33118 17.572 5.8665 18.1122C6.40912 18.6603 7.16076 19 7.99075 19C8.81531 19 9.56263 18.6646 10.1041 18.1232C10.6456 17.5818 10.9809 16.8344 10.9809 16.0092V15.1129H13.019V16.0092C13.019 16.7481 13.2882 17.425 13.7342 17.9476C14.2829 18.591 15.0995 19 16.0092 19C16.7961 19 17.5125 18.695 18.0466 18.1967C18.633 17.6504 19 16.872 19 16.0093C19 15.1537 18.6391 14.3808 18.0612 13.8357C17.5253 13.3295 16.8027 13.019 16.0092 13.019ZM15.1135 7.99087C15.1135 7.48835 15.5073 7.09461 16.0098 7.09461C16.5123 7.09461 16.9061 7.48835 16.9061 7.99087C16.9061 8.49339 16.5129 8.88713 16.0098 8.88713H15.1135V7.99087ZM8.88654 16.0093C8.88654 16.5118 8.4928 16.9055 7.99028 16.9055C7.48777 16.9055 7.09403 16.5124 7.09403 16.0093C7.09403 15.5067 7.48777 15.113 7.99028 15.113H8.88654V16.0093ZM7.99089 8.88655C7.48837 8.88655 7.09463 8.49281 7.09463 7.99029C7.09463 7.48777 7.48837 7.09403 7.99089 7.09403C8.49341 7.09403 8.88715 7.48777 8.88715 7.99029V8.88655H7.99089ZM13.019 13.019H10.981V10.9809H13.019V13.019ZM16.0092 16.9054C15.5067 16.9054 15.113 16.5123 15.113 16.0091V15.1129H16.0092C16.5118 15.1129 16.9055 15.5066 16.9055 16.0091C16.9055 16.5123 16.5124 16.9054 16.0092 16.9054Z" fill="black"/>
</svg>
