<svg width="24" height="24" viewBox="0 0 24 24" fill="none" xmlns="http://www.w3.org/2000/svg">
<path fill-rule="evenodd" clip-rule="evenodd" d="M18.7438 10.9267L16.1095 8.3699C15.7643 8.05401 15.2229 8.06232 14.888 8.38831C14.5526 8.7137 14.544 9.23981 14.8691 9.5753L16.8806 11.5349L14.8691 13.482C14.5269 13.8151 14.5275 14.3543 14.8697 14.6868C15.2125 15.0193 15.7673 15.0187 16.1095 14.6862L18.7438 12.131C19.0854 11.7979 19.0854 11.2592 18.7438 10.9267ZM9.13136 8.3699C8.78856 8.03738 8.23372 8.03738 7.89092 8.3699L5.25664 10.9267C4.91445 11.2598 4.91445 11.799 5.25664 12.1321L7.89092 14.6861C8.23311 15.0186 8.78795 15.0192 9.13075 14.6867C9.47294 14.3541 9.47355 13.815 9.13136 13.4818L7.11983 11.5347L9.13136 9.57517C9.47355 9.24205 9.47355 8.70302 9.13136 8.3699ZM13.5976 6.05052C13.1399 5.89138 12.6364 6.12059 12.4696 6.56415L9.87442 15.9169C9.75587 16.3474 9.99541 16.7945 10.4256 16.9477C10.8564 17.1003 11.3361 16.9085 11.531 16.5054L14.1261 7.15258C14.2068 6.93822 14.1964 6.70129 14.0968 6.49467C13.9978 6.28802 13.8182 6.1283 13.5976 6.05052Z" fill="black"/>
<path fill-rule="evenodd" clip-rule="evenodd" d="M16.1095 14.6862L18.7438 12.131C19.0854 11.7979 19.0854 11.2592 18.7438 10.9267L16.1095 8.3699C15.7643 8.05401 15.2229 8.06232 14.888 8.38831C14.5526 8.7137 14.544 9.23981 14.8691 9.5753L16.8806 11.5349L14.8691 13.482C14.5269 13.8151 14.5275 14.3543 14.8697 14.6868C15.2125 15.0193 15.7673 15.0187 16.1095 14.6862ZM15.0438 14.5073C15.2895 14.7457 15.69 14.7453 15.9353 14.5069L18.5693 11.9521C18.5693 11.952 18.5692 11.9521 18.5693 11.9521C18.81 11.717 18.81 11.3404 18.5697 11.1061M18.5697 11.1061L15.9383 8.55208C15.6905 8.32782 15.3015 8.33474 15.0624 8.56744C14.8266 8.79615 14.8198 9.16269 15.0463 9.39896L17.2395 11.5354L15.0435 13.6611C15.0434 13.6612 15.0435 13.6611 15.0435 13.6611C14.8025 13.8959 14.8027 14.2729 15.0438 14.5073M9.13136 9.57517C9.47355 9.24205 9.47355 8.70302 9.13136 8.3699C8.78856 8.03738 8.23372 8.03738 7.89092 8.3699L5.25664 10.9267C4.91445 11.2598 4.91445 11.799 5.25664 12.1321L7.89092 14.6861C8.23311 15.0186 8.78795 15.0192 9.13075 14.6867C9.47294 14.3541 9.47355 13.815 9.13136 13.4818L7.11983 11.5347L9.13136 9.57517ZM8.95698 13.661C8.95689 13.6609 8.95706 13.6611 8.95698 13.661L6.76097 11.5353L8.95691 9.39609C9.19823 9.16117 9.19835 8.78417 8.95713 8.54918C8.71131 8.31091 8.31081 8.31095 8.06504 8.5493C8.06502 8.54931 8.06506 8.54928 8.06504 8.5493L5.43103 11.1059C5.43101 11.1059 5.43105 11.1058 5.43103 11.1059C5.18979 11.3408 5.18968 11.7178 5.43083 11.9528C5.43089 11.9529 5.43076 11.9527 5.43083 11.9528L8.06494 14.5066C8.31023 14.7449 8.71097 14.7455 8.95666 14.5072M8.95698 13.661C9.19789 13.8958 9.19772 14.2728 8.95666 14.5072ZM13.8882 7.07499L13.8922 7.06454C13.9488 6.91406 13.9415 6.74818 13.8716 6.60322C13.802 6.45798 13.6744 6.34284 13.515 6.28648C13.1841 6.17172 12.8282 6.33701 12.7072 6.64266L10.1154 15.9833C10.1154 15.9833 10.1155 15.9832 10.1154 15.9833C10.0331 16.2825 10.1978 16.6011 10.5092 16.7121C10.817 16.8211 11.1533 16.6872 11.2966 16.4149L13.8882 7.07499ZM11.531 16.5054C11.3361 16.9085 10.8564 17.1003 10.4256 16.9477C9.99541 16.7945 9.75587 16.3474 9.87442 15.9169L12.4696 6.56415C12.6364 6.12059 13.1399 5.89138 13.5976 6.05052C13.8182 6.1283 13.9978 6.28802 14.0968 6.49467C14.1964 6.70129 14.2068 6.93822 14.1261 7.15258L11.531 16.5054Z" fill="black"/>
</svg>
