<svg width="24" height="24" viewBox="0 0 24 24" fill="none" xmlns="http://www.w3.org/2000/svg">
<path d="M9.32587 4C9.1311 4 8.92796 4.06551 8.77883 4.21405C8.66014 4.33364 8.72938 4.30164 8.30331 4.6429C7.5478 5.24848 7.19934 5.87006 7.09054 7.04694C6.34263 7.04694 4.83388 7.04694 4.76084 7.04694C4.34086 7.04694 4 7.3882 4 7.80867V13.0456C4 15.0733 5.11539 16.8124 6.63935 17.7112H5.52168C5.10169 17.7112 4.76084 18.0525 4.76084 18.473C4.76084 18.8934 5.10169 19.2347 5.52168 19.2347H14.6517C15.0717 19.2347 15.4126 18.8934 15.4126 18.473C15.4126 18.0525 15.0717 17.7112 14.6517 17.7112H13.5105C15.1166 16.7621 16.1734 14.9926 16.1734 13.1408C17.8541 13.1408 19.2168 11.7766 19.2168 10.0939C19.2168 8.41121 17.8541 7.04694 16.1734 7.04694C15.478 7.04694 15.6028 7.04694 15.4126 7.04694C15.389 7.04694 14.7666 7.04694 14.6517 7.04694C14.317 7.04694 13.2731 7.04694 12.4407 7.04694C12.5077 6.45583 12.634 6.15419 13.035 5.83274C13.5303 5.43587 13.4975 5.48843 13.6771 5.30942C13.9738 5.01158 13.9738 4.51189 13.6771 4.21405C13.528 4.06551 13.3248 4 13.1301 4C12.9353 4 12.7322 4.06551 12.583 4.21405C12.4643 4.33364 12.5336 4.30164 12.1075 4.6429C11.3573 5.24391 11.0279 5.88529 10.9191 7.04694C9.89802 7.04694 9.6051 7.04694 8.63655 7.04694C8.70502 6.44822 8.826 6.15724 9.23077 5.83274C9.72607 5.43587 9.69335 5.48843 9.87291 5.30942C10.1696 5.01158 10.1696 4.51189 9.87291 4.21405C9.72379 4.06551 9.52065 4 9.32587 4ZM5.52168 8.57041C6.90488 8.57041 13.2685 8.57041 14.6517 8.57041V13.0456C14.6517 15.1967 12.9011 16.9495 10.7524 16.9495H9.42098C7.27237 16.9495 5.52168 15.1967 5.52168 13.0456V8.57041ZM16.1734 8.57041C17.0141 8.57041 17.6951 9.25216 17.6951 10.0939C17.6951 10.9356 17.0141 11.6173 16.1734 11.6173V8.57041Z" fill="#2A343D"/>
</svg>
