<svg width="24" height="24" viewBox="0 0 24 24" fill="none" xmlns="http://www.w3.org/2000/svg">
<path fill-rule="evenodd" clip-rule="evenodd" d="M12 4.8C11.8481 4.8 11.7024 4.86034 11.595 4.96775C11.4876 5.07516 11.4273 5.22083 11.4273 5.37273V5.5015C11.4256 5.91397 11.3034 6.31696 11.0757 6.66086C10.8479 7.00476 10.5246 7.27456 10.1454 7.43704C10.0747 7.46735 10.0006 7.48839 9.92487 7.49979C9.58479 7.61592 9.21967 7.6438 8.86409 7.57933C8.44827 7.50393 8.06458 7.3057 7.76248 7.01019L7.75538 7.00325L7.71124 6.95903C7.65805 6.90578 7.59453 6.86318 7.525 6.83436C7.45547 6.80554 7.38095 6.7907 7.30568 6.7907C7.23042 6.7907 7.15589 6.80554 7.08636 6.83436C7.01683 6.86318 6.95367 6.90543 6.90048 6.95868L6.89977 6.95939C6.84652 7.01258 6.80428 7.07574 6.77545 7.14527C6.74663 7.2148 6.7318 7.28933 6.7318 7.36459C6.7318 7.43986 6.74663 7.51438 6.77545 7.58391C6.80428 7.65344 6.84652 7.7166 6.89977 7.7698L6.95132 7.82135C7.24683 8.12345 7.44502 8.50718 7.52042 8.923C7.59412 9.32948 7.54714 9.74843 7.38559 10.1282C7.23731 10.5153 6.97846 10.8504 6.64098 11.0918C6.2958 11.3387 5.88432 11.476 5.46005 11.4859L5.439 11.4862H5.37273C5.22083 11.4862 5.07516 11.5465 4.96775 11.6539C4.86034 11.7613 4.8 11.907 4.8 12.0589C4.8 12.2108 4.86034 12.3565 4.96775 12.4639C5.07516 12.5713 5.22083 12.6316 5.37273 12.6316H5.5015C5.91397 12.6333 6.31696 12.7555 6.66086 12.9833C7.00343 13.2101 7.27246 13.5318 7.43515 13.9091C7.60421 14.2945 7.65443 14.7217 7.57933 15.1359C7.50393 15.5517 7.3057 15.9354 7.01019 16.2375L7.00325 16.2446L6.95903 16.2888C6.90578 16.342 6.86319 16.4055 6.83436 16.475C6.80554 16.5445 6.7907 16.6191 6.7907 16.6943C6.7907 16.7696 6.80554 16.8441 6.83436 16.9136C6.86319 16.9832 6.90543 17.0463 6.95868 17.0995L6.95939 17.1002C7.01258 17.1535 7.07574 17.1957 7.14527 17.2245C7.2148 17.2534 7.28933 17.2682 7.36459 17.2682C7.43985 17.2682 7.51438 17.2534 7.58391 17.2245C7.65344 17.1957 7.71661 17.1535 7.7698 17.1002L7.82135 17.0487C8.12345 16.7532 8.50718 16.555 8.923 16.4796C9.32948 16.4059 9.74843 16.4529 10.1282 16.6144C10.5152 16.7627 10.8504 17.0215 11.0918 17.359C11.3387 17.7042 11.476 18.1157 11.4859 18.54L11.4862 18.561V18.6273C11.4862 18.7792 11.5465 18.9248 11.6539 19.0323C11.7613 19.1397 11.907 19.2 12.0589 19.2C12.2108 19.2 12.3565 19.1397 12.4639 19.0323C12.5713 18.9248 12.6316 18.7792 12.6316 18.6273V18.5021L12.6316 18.4985C12.6333 18.086 12.7555 17.683 12.9833 17.3391C13.2101 16.9966 13.5318 16.7275 13.9091 16.5648C14.2945 16.3958 14.7217 16.3456 15.1359 16.4207C15.5517 16.4961 15.9354 16.6943 16.2375 16.9898L16.2446 16.9967L16.2888 17.041C16.3419 17.0942 16.4055 17.1368 16.475 17.1656C16.5445 17.1945 16.6191 17.2093 16.6943 17.2093C16.7696 17.2093 16.8441 17.1945 16.9136 17.1656C16.9832 17.1368 17.0463 17.0946 17.0995 17.0413L17.1002 17.0406C17.1535 16.9874 17.1957 16.9243 17.2245 16.8547C17.2534 16.7852 17.2682 16.7107 17.2682 16.6354C17.2682 16.5601 17.2534 16.4856 17.2245 16.4161C17.1957 16.3466 17.1535 16.2834 17.1002 16.2302L17.0487 16.1786C16.7532 15.8765 16.555 15.4928 16.4796 15.077C16.4045 14.6628 16.4547 14.2356 16.6238 13.8501C16.7864 13.4729 17.0555 13.1512 17.3981 12.9243C17.7419 12.6966 18.1449 12.5744 18.5574 12.5727L18.561 12.5727L18.6273 12.5727C18.7792 12.5727 18.9248 12.5124 19.0323 12.405C19.1397 12.2976 19.2 12.1519 19.2 12C19.2 11.8481 19.1397 11.7024 19.0323 11.595C18.9248 11.4876 18.7792 11.4273 18.6273 11.4273H18.5021L18.4985 11.4273C18.086 11.4256 17.683 11.3034 17.3391 11.0757C16.9952 10.8479 16.7254 10.5246 16.563 10.1454C16.5326 10.0747 16.5116 10.0006 16.5002 9.92487C16.3841 9.58479 16.3562 9.21967 16.4207 8.86409C16.4961 8.44827 16.6943 8.06458 16.9898 7.76248L16.9967 7.75539L17.041 7.71124C17.0942 7.65805 17.1368 7.59453 17.1656 7.525C17.1945 7.45547 17.2093 7.38095 17.2093 7.30568C17.2093 7.23042 17.1945 7.15589 17.1656 7.08636C17.1368 7.01683 17.0946 6.95367 17.0413 6.90048L17.0406 6.89977C16.9874 6.84652 16.9243 6.80428 16.8547 6.77545C16.7852 6.74663 16.7107 6.7318 16.6354 6.7318C16.5601 6.7318 16.4856 6.74663 16.4161 6.77545C16.3466 6.80428 16.2834 6.84652 16.2302 6.89977L16.1786 6.95132C15.8766 7.24683 15.4928 7.44502 15.077 7.52042C14.6628 7.59552 14.2356 7.5453 13.8501 7.37624C13.4729 7.21356 13.1512 6.94452 12.9243 6.60195C12.6966 6.25805 12.5744 5.85506 12.5727 5.44259L12.5727 5.439V5.37273C12.5727 5.22083 12.5124 5.07516 12.405 4.96775C12.2976 4.86034 12.1519 4.8 12 4.8ZM10.3222 3.69496C10.7672 3.24998 11.3707 3 12 3C12.6293 3 13.2328 3.24998 13.6778 3.69496C14.1227 4.13993 14.3727 4.74344 14.3727 5.37273V5.43669C14.3732 5.49768 14.3914 5.55722 14.4251 5.60808C14.459 5.6593 14.5072 5.69948 14.5636 5.72368L14.5725 5.72749C14.6301 5.7529 14.6939 5.76053 14.7559 5.7493C14.8167 5.73827 14.8729 5.70959 14.9175 5.66687L14.9567 5.62769C14.9566 5.6278 14.9568 5.62757 14.9567 5.62769C15.177 5.40724 15.4389 5.232 15.7268 5.11266C16.0148 4.99326 16.3236 4.9318 16.6354 4.9318C16.9472 4.9318 17.256 4.99326 17.544 5.11266C17.8318 5.23194 18.0932 5.4067 18.3134 5.62698C18.534 5.84734 18.709 6.10902 18.8284 6.39707C18.9478 6.68511 19.0093 6.99387 19.0093 7.30568C19.0093 7.6175 18.9478 7.92625 18.8284 8.21429C18.7091 8.50219 18.5342 8.76374 18.3138 8.98403C18.3136 8.98415 18.3139 8.98391 18.3138 8.98403L18.2742 9.02355C18.2315 9.06817 18.2028 9.12439 18.1918 9.18523C18.1806 9.24716 18.1881 9.31103 18.2136 9.36861C18.2339 9.41479 18.2503 9.46249 18.2627 9.51117C18.2827 9.53572 18.3063 9.55725 18.333 9.57491C18.3839 9.60862 18.4435 9.6268 18.5045 9.62727H18.6273C19.2566 9.62727 19.8601 9.87726 20.305 10.3222C20.75 10.7672 21 11.3707 21 12C21 12.6293 20.75 13.2328 20.305 13.6778C19.8601 14.1227 19.2566 14.3727 18.6273 14.3727H18.5633C18.5023 14.3732 18.4428 14.3914 18.3919 14.4251C18.3407 14.459 18.3005 14.5072 18.2763 14.5636L18.2725 14.5725C18.2471 14.6301 18.2395 14.6939 18.2507 14.7559C18.2617 14.8167 18.2904 14.8729 18.3331 14.9175L18.3723 14.9567C18.5929 15.1771 18.7679 15.4388 18.8873 15.7268C19.0067 16.0148 19.0682 16.3236 19.0682 16.6354C19.0682 16.9472 19.0067 17.256 18.8873 17.544C18.7679 17.8321 18.5929 18.0937 18.3723 18.3141L17.7367 17.6777L18.373 18.3134C18.1527 18.534 17.891 18.709 17.6029 18.8284C17.3149 18.9478 17.0061 19.0093 16.6943 19.0093C16.3825 19.0093 16.0737 18.9478 15.7857 18.8284C15.4977 18.709 15.236 18.534 15.0156 18.3134L14.9764 18.2742C14.9318 18.2315 14.8756 18.2028 14.8148 18.1918C14.7528 18.1806 14.689 18.1881 14.6314 18.2136L14.6226 18.2175C14.5661 18.2417 14.5179 18.2818 14.484 18.333C14.4503 18.3839 14.4321 18.4434 14.4316 18.5044V18.6273C14.4316 19.2566 14.1817 19.8601 13.7367 20.305C13.2917 20.75 12.6882 21 12.0589 21C11.4296 21 10.8261 20.75 10.3811 20.305C9.93616 19.8601 9.68618 19.2566 9.68618 18.6273V18.575C9.68339 18.5143 9.66312 18.4556 9.62773 18.4062C9.59095 18.3547 9.53957 18.3156 9.48025 18.2938C9.46245 18.2872 9.44487 18.2801 9.42752 18.2725C9.36994 18.2471 9.30607 18.2395 9.24414 18.2507C9.1833 18.2617 9.12708 18.2904 9.08246 18.3331L9.0433 18.3723C9.04318 18.3724 9.04341 18.3722 9.0433 18.3723C8.823 18.5928 8.5611 18.768 8.2732 18.8873C7.98516 19.0067 7.6764 19.0682 7.36459 19.0682C7.05278 19.0682 6.74402 19.0067 6.45598 18.8873C6.16794 18.7679 5.90625 18.5929 5.68589 18.3723C5.46561 18.1521 5.29085 17.8907 5.17157 17.6029C5.05217 17.3149 4.99071 17.0061 4.99071 16.6943C4.99071 16.3825 5.05217 16.0737 5.17157 15.7857C5.29091 15.4978 5.4658 15.2363 5.68624 15.016C5.68613 15.0161 5.68636 15.0158 5.68624 15.016L5.72578 14.9764C5.7685 14.9318 5.79718 14.8756 5.80821 14.8148C5.81944 14.7528 5.81185 14.689 5.78644 14.6314L5.78254 14.6226C5.75834 14.5661 5.71821 14.5179 5.66699 14.484C5.61613 14.4503 5.55659 14.4321 5.4956 14.4316H5.37273C4.74344 14.4316 4.13993 14.1817 3.69496 13.7367C3.24998 13.2917 3 12.6882 3 12.0589C3 11.4296 3.24998 10.8261 3.69496 10.3811C4.13993 9.93616 4.74344 9.68618 5.37273 9.68618H5.42505C5.48572 9.68339 5.54435 9.66312 5.59384 9.62773C5.64525 9.59095 5.68441 9.53957 5.70623 9.48025C5.71277 9.46245 5.71988 9.44487 5.72753 9.42752C5.75295 9.36994 5.76053 9.30607 5.7493 9.24414C5.73827 9.1833 5.70958 9.12708 5.66686 9.08247L5.62769 9.0433C5.40708 8.82293 5.23207 8.56125 5.11266 8.2732C4.99326 7.98516 4.9318 7.6764 4.9318 7.36459C4.9318 7.05278 4.99326 6.74402 5.11266 6.45598C5.232 6.16809 5.40689 5.90653 5.62733 5.68624C5.84762 5.4658 6.10918 5.29091 6.39707 5.17157C6.68511 5.05217 6.99387 4.99071 7.30568 4.99071C7.61749 4.99071 7.92625 5.05217 8.21429 5.17157C8.50234 5.29098 8.76402 5.46599 8.98439 5.68659L9.02356 5.72577C9.06818 5.76849 9.12439 5.79718 9.18523 5.80821C9.24716 5.81944 9.31103 5.81185 9.36861 5.78644C9.4148 5.76606 9.46249 5.74965 9.51118 5.73733C9.53572 5.71734 9.55725 5.69366 9.57491 5.66699C9.60862 5.6161 9.6268 5.55652 9.62727 5.49549V5.37273C9.62727 4.74344 9.87726 4.13993 10.3222 3.69496ZM12 10.6909C11.277 10.6909 10.6909 11.277 10.6909 12C10.6909 12.723 11.277 13.3091 12 13.3091C12.723 13.3091 13.3091 12.723 13.3091 12C13.3091 11.277 12.723 10.6909 12 10.6909ZM8.89091 12C8.89091 10.2829 10.2829 8.89091 12 8.89091C13.7171 8.89091 15.1091 10.2829 15.1091 12C15.1091 13.7171 13.7171 15.1091 12 15.1091C10.2829 15.1091 8.89091 13.7171 8.89091 12Z" fill="black"/>
</svg>
