<svg width="24" height="24" viewBox="0 0 24 24" fill="none" xmlns="http://www.w3.org/2000/svg">
<path d="M11.6173 4C7.41029 4 4 7.41029 4 11.6173C4 15.8244 7.41029 19.2347 11.6173 19.2347C15.8244 19.2347 19.2347 15.8244 19.2347 11.6173C19.2347 7.41029 15.8244 4 11.6173 4ZM11.6173 5.52347C14.9827 5.52347 17.7112 8.252 17.7112 11.6173C17.7112 14.9827 14.9827 17.7112 11.6173 17.7112C8.252 17.7112 5.52347 14.9827 5.52347 11.6173C5.52347 8.252 8.252 5.52347 11.6173 5.52347ZM14.4266 7.85591L9.85622 9.37938C9.62846 9.45555 9.45554 9.62845 9.37937 9.85621L7.8559 14.4266C7.65785 15.0215 8.21315 15.5768 8.80807 15.3788C9.38013 15.1876 12.8072 14.0458 13.3785 13.8553C13.6062 13.7791 13.7792 13.6062 13.8553 13.3785L15.3788 8.80808C15.5768 8.21316 15.0215 7.65786 14.4266 7.85591ZM13.4745 9.76025L12.5459 12.5459C11.9472 12.7455 10.8564 13.1088 9.76024 13.4744L10.6888 10.6888L13.4745 9.76025Z" fill="#2A343D"/>
</svg>
