<svg width="24" height="24" viewBox="0 0 24 24" fill="none" xmlns="http://www.w3.org/2000/svg">
<path fill-rule="evenodd" clip-rule="evenodd" d="M9.12765 11.6316L8.19324 10.7066C7.9732 10.4889 7.61497 10.4889 7.39494 10.7066C7.1749 10.9243 7.1749 11.2786 7.39494 11.4963L4.60226 14.2588C4.28492 14.572 4.1065 14.9982 4.1065 15.4419C4.1065 15.8862 4.28491 16.3125 4.60226 16.6257L5.40056 17.4154L4.16503 18.6368C3.94499 18.8545 3.94499 19.2088 4.16503 19.4265C4.38506 19.6442 4.74329 19.6442 4.96333 19.4265L6.19814 18.2043L6.99574 18.994C7.31308 19.3079 7.74396 19.4844 8.19318 19.4844C8.6417 19.4844 9.07188 19.3079 9.38922 18.994L12.1819 16.2315C12.4019 16.4492 12.7602 16.4492 12.9802 16.2315C13.2002 16.0138 13.2002 15.6595 12.9802 15.4418L12.1819 14.6528L13.2179 13.6281C13.4379 13.4104 13.4379 13.0568 13.2179 12.8391C12.9971 12.6214 12.6403 12.6214 12.4196 12.8391L11.3843 13.8639L9.92522 12.4206L10.9612 11.3958C11.1812 11.1781 11.1812 10.8245 10.9612 10.6068C10.7404 10.3892 10.3836 10.3892 10.1629 10.6068L9.12765 11.6316ZM8.19324 12.2853L11.3844 15.4419L8.59168 18.2044C8.48589 18.309 8.34274 18.3683 8.19324 18.3683C8.04373 18.3683 7.89987 18.309 7.7941 18.2044L5.40058 15.8367C5.29409 15.7321 5.23486 15.5898 5.23486 15.4419C5.23486 15.294 5.29409 15.1517 5.40058 15.0478L8.19324 12.2853ZM17.8018 5.38535L17.0035 4.59568C16.6868 4.28177 16.256 4.10527 15.8067 4.10527C15.3582 4.10527 14.9273 4.28176 14.6107 4.59568L11.818 7.35817C11.598 7.14052 11.2398 7.14052 11.0197 7.35817C10.7997 7.57583 10.7997 7.9295 11.0197 8.14715L15.8068 12.8832C16.0268 13.1008 16.385 13.1008 16.6051 12.8832C16.8251 12.6648 16.8251 12.3111 16.6051 12.0935L19.3977 9.33099C19.7151 9.01708 19.8935 8.59155 19.8935 8.14719C19.8935 7.70352 19.7151 7.27729 19.3977 6.96338L18.5994 6.1744L19.835 4.95222C20.055 4.73456 20.055 4.3809 19.835 4.16324C19.6149 3.94559 19.2567 3.94559 19.0367 4.16324L17.8018 5.38535ZM15.8067 11.3038L12.6156 8.14713L15.4083 5.38535C15.5141 5.28002 15.6572 5.22142 15.8067 5.22142C15.9562 5.22142 16.1001 5.28002 16.2058 5.38535L18.5994 7.75229C18.7051 7.85762 18.7651 7.99923 18.7651 8.14712C18.7651 8.2957 18.7051 8.43731 18.5994 8.54125L15.8067 11.3038Z" fill="black"/>
</svg>
