<svg width="24" height="24" viewBox="0 0 24 24" fill="none" xmlns="http://www.w3.org/2000/svg">
<path d="M12.4212 9.05246H6.52626C5.13198 9.05386 4.00144 10.1845 4 11.5787V17.4736C4.00141 18.8679 5.13202 19.9984 6.52626 19.9998H12.4212C13.8154 19.9984 14.946 18.8678 14.9474 17.4736V11.5787C14.946 10.1844 13.8154 9.0539 12.4212 9.05246ZM13.2635 17.4736C13.2635 17.9383 12.8859 18.3152 12.4212 18.3152H6.52626C6.0615 18.3152 5.68463 17.9383 5.68463 17.4736V11.5787C5.68463 11.114 6.0615 10.7371 6.52626 10.7371H12.4212C12.8859 10.7371 13.2628 11.114 13.2628 11.5787L13.2635 17.4736Z" fill="black"/>
<path d="M17.4736 4H11.5787C10.1844 4.00141 9.0539 5.13202 9.05246 6.52625V7.36858C9.05246 7.83333 9.42933 8.21091 9.89479 8.21091C10.3595 8.21091 10.7371 7.83333 10.7371 7.36858V6.52625C10.7371 6.0615 11.114 5.68462 11.5787 5.68462H17.4736C17.9384 5.68462 18.3153 6.0615 18.3153 6.52625V12.4211C18.3153 12.8859 17.9384 13.2628 17.4736 13.2628H16.6313C16.1666 13.2628 15.789 13.6403 15.789 14.1051C15.789 14.5706 16.1666 14.9474 16.6313 14.9474H17.4736C18.8679 14.946 19.9985 13.8154 19.9999 12.4212V6.52629C19.9985 5.13202 18.8679 4.00144 17.4736 4Z" fill="black"/>
</svg>
