<svg width="24" height="24" viewBox="0 0 24 24" fill="none" xmlns="http://www.w3.org/2000/svg">
<path d="M12 3C7.04167 3 3 7.04167 3 12C3 16.9583 7.04167 21 12 21C16.9583 21 21 16.9583 21 12C21 7.04167 16.9583 3 12 3ZM12 5C15.8777 5 19 8.1224 19 12C19 15.8776 15.8776 19 12 19C8.1224 19 5 15.8776 5 12C5 8.1224 8.1224 5 12 5ZM12 6.66667C11.4479 6.66667 11 7.1146 11 7.66667V7.8125C10.6263 7.92318 10.2721 8.09635 9.96873 8.34377C9.40493 8.8034 9.03123 9.54037 9.03123 10.3334C9.03123 11.194 9.5807 11.9519 10.1354 12.2917C10.6901 12.6315 11.2226 12.7591 11.6458 12.9271C12.194 13.1459 12.6497 13.2969 12.8437 13.4167C13.2435 14.0261 12.4544 14.3282 12.0104 14.3334C11.4596 14.3334 11.0312 13.9714 10.875 13.7084C10.6406 13.2032 9.9427 12.9857 9.46873 13.2709C8.99477 13.556 8.84763 14.2826 9.17707 14.7292C9.54427 15.3464 10.1745 15.9024 11 16.1667V16.3334C11 16.8854 11.4479 17.3334 12 17.3334C12.5521 17.3334 13 16.8854 13 16.3334V16.198C13.3802 16.0873 13.7344 15.9076 14.0417 15.6563C14.6055 15.1966 14.9792 14.4597 14.9792 13.6667C14.9792 12.806 14.4297 12.0482 13.875 11.7084C13.3203 11.3685 12.7878 11.2305 12.3646 11.0625C11.8151 10.8438 11.3607 10.7032 11.1667 10.5834C10.7669 9.96615 11.5586 9.67188 12.0104 9.66668C12.5612 9.66668 12.9896 10.0287 13.1458 10.2917C13.3932 10.7774 14.0677 10.9701 14.5312 10.6875C14.9947 10.405 15.1445 9.70835 14.8333 9.26045C14.4648 8.63935 13.832 8.07165 13 7.81252V7.66668C13 7.11462 12.5521 6.66667 12 6.66667Z" fill="black"/>
</svg>
