<svg width="24" height="24" viewBox="0 0 24 24" fill="none" xmlns="http://www.w3.org/2000/svg">
<path d="M12.0939 4C9.13302 4 6.9895 4.88895 6.23157 6.15419C6.03504 6.48173 6 6.8367 6 7.04694V16.1878C6 16.398 6.05941 16.7431 6.24452 17.0828C6.91256 18.3054 9.13302 19.2347 12.0939 19.2347C15.054 19.2347 17.1168 18.3694 17.9075 17.1605C18.0781 16.8992 18.1924 16.51 18.1878 16.1878V7.04694C18.1878 6.8367 18.1596 6.6158 18.0644 6.38423C17.4596 4.92323 15.054 4 12.0939 4ZM12.0939 5.52347C13.4292 5.52347 14.6762 5.75962 15.5689 6.14201C16.3132 6.46117 16.6643 6.8108 16.6643 7.04694C16.6643 7.28308 16.3132 7.6327 15.5689 7.95187C14.6762 8.33426 13.4292 8.57041 12.0939 8.57041C10.7586 8.57041 9.51084 8.33426 8.61809 7.95187C7.87387 7.6327 7.52347 7.28308 7.52347 7.04694C7.52347 6.8108 7.87387 6.46117 8.61809 6.14201C9.51084 5.75962 10.7586 5.52347 12.0939 5.52347ZM7.52043 9.10972C8.64475 9.75263 10.2513 10.0939 12.0939 10.0939C13.9358 10.0939 15.5354 9.76023 16.6605 9.11809L16.6643 11.6173C16.6643 11.8535 16.3132 12.2031 15.5689 12.5223C14.6762 12.9047 13.4292 13.1408 12.0939 13.1408C10.7586 13.1408 9.51084 12.9047 8.61809 12.5223C7.87387 12.2031 7.52347 11.8535 7.52347 11.6173L7.52043 9.10972ZM7.52424 13.6877C8.61124 14.2773 10.2513 14.6643 12.0939 14.6643C13.9358 14.6643 15.5088 14.3055 16.6613 13.6885L16.6643 16.1878C16.6643 16.4239 16.3132 16.7735 15.5689 17.0927C14.6762 17.4751 13.4292 17.7112 12.0939 17.7112C10.7586 17.7112 9.51084 17.4751 8.61809 17.0927C7.87387 16.7735 7.52347 16.4239 7.52347 16.1878L7.52424 13.6877Z" fill="#2A343D"/>
</svg>
