<svg width="24" height="24" viewBox="0 0 24 24" fill="none" xmlns="http://www.w3.org/2000/svg">
<path d="M12.084 4C11.4472 4 10.8134 4.30393 10.3465 4.90494L6.633 9.68939C5.789 10.7741 5.789 12.4606 6.633 13.5453L10.3465 18.3298C11.2811 19.5318 12.8869 19.5318 13.8215 18.3298L17.535 13.5453C18.379 12.4606 18.379 10.7741 17.535 9.68939L13.8215 4.90494C13.3546 4.30393 12.7208 4 12.084 4ZM12.084 5.52347C12.2721 5.52347 12.4694 5.62402 12.6317 5.83274L16.3452 10.618C16.7603 11.1519 16.7603 12.0828 16.3452 12.6167L12.6317 17.402C12.3072 17.8194 11.8608 17.8194 11.5363 17.402L7.82285 12.6167C7.4077 12.0828 7.4077 11.1519 7.82285 10.618L11.5363 5.83274C11.6986 5.62402 11.8958 5.52347 12.084 5.52347Z" fill="#2A343D"/>
</svg>
