<svg width="24" height="24" viewBox="0 0 24 24" fill="none" xmlns="http://www.w3.org/2000/svg">
<path d="M12 4C7.58754 4 4 7.58754 4 12C4 16.4125 7.58754 20 12 20C16.4125 20 20 16.4125 20 12C20 7.58754 16.4125 4 12 4ZM12 18.4172C8.46316 18.4172 5.58282 15.5368 5.58282 12C5.58282 8.46316 8.46316 5.58282 12 5.58282C15.5368 5.58282 18.4172 8.46316 18.4172 12C18.4172 15.5368 15.5368 18.4172 12 18.4172Z" fill="black"/>
<path d="M12.3541 11.3598H11.6633C11.1245 11.3598 10.7034 10.8881 10.7541 10.3493C10.8047 9.87754 11.2422 9.52426 11.7139 9.52426H12.5225C12.8258 9.52426 13.0784 9.74334 13.1455 10.0295C13.1626 10.1137 13.2297 10.1644 13.3139 10.1644H14.2403C14.3416 10.1644 14.4258 10.0802 14.4258 9.97886C14.3245 9.05254 13.5837 8.3282 12.6402 8.26113V7.35193C12.6402 7.25061 12.556 7.1664 12.4547 7.1664H11.5455C11.4441 7.1664 11.3599 7.25061 11.3599 7.35193V8.27825C10.2145 8.42956 9.35605 9.45719 9.47378 10.6697C9.59154 11.8151 10.6021 12.64 11.7475 12.64H12.3369C12.8757 12.64 13.2968 13.1117 13.2461 13.6505C13.1955 14.1223 12.758 14.4755 12.2863 14.4755H11.4777C11.1744 14.4755 10.9218 14.2565 10.8547 13.9703C10.8376 13.8861 10.7705 13.8354 10.6863 13.8354H9.75996C9.65864 13.8354 9.55799 13.9196 9.57442 14.0209C9.67574 14.9473 10.4165 15.6716 11.36 15.7387V16.6479C11.36 16.7492 11.4442 16.8334 11.5456 16.8334H12.4548C12.5561 16.8334 12.6403 16.7492 12.6403 16.6479V15.7044C13.6173 15.536 14.4259 14.7781 14.5264 13.7676C14.6613 12.4715 13.6336 11.3598 12.3541 11.3598Z" fill="black"/>
</svg>
