<svg width="24" height="24" viewBox="0 0 24 24" fill="none" xmlns="http://www.w3.org/2000/svg">
<path d="M5.96913 10.5C6.7805 10.5 7.43826 11.1716 7.43826 12C7.43826 12.8284 6.78051 13.5 5.96913 13.5C5.15775 13.5 4.5 12.8284 4.5 12C4.5 11.1716 5.15775 10.5 5.96913 10.5Z" fill="black"/>
<path d="M11.5025 10.5C12.3139 10.5 12.9717 11.1716 12.9717 12C12.9717 12.8284 12.3139 13.5 11.5025 13.5C10.6912 13.5 10.0334 12.8284 10.0334 12C10.0334 11.1716 10.6912 10.5 11.5025 10.5Z" fill="black"/>
<path d="M18.5 12C18.5 11.1716 17.8422 10.5 17.0309 10.5C16.2195 10.5 15.5617 11.1716 15.5617 12C15.5617 12.8284 16.2195 13.5 17.0309 13.5C17.8422 13.5 18.5 12.8284 18.5 12Z" fill="black"/>
</svg>
