<svg width="24" height="24" viewBox="0 0 24 24" fill="none" xmlns="http://www.w3.org/2000/svg">
<path d="M13 6.46913C13 7.2805 12.3284 7.93826 11.5 7.93826C10.6716 7.93826 10 7.2805 10 6.46913C10 5.65775 10.6716 5 11.5 5C12.3284 5 13 5.65775 13 6.46913Z" fill="black"/>
<path d="M13 12.0025C13 12.8139 12.3284 13.4717 11.5 13.4717C10.6716 13.4717 10 12.8139 10 12.0025C10 11.1912 10.6716 10.5334 11.5 10.5334C12.3284 10.5334 13 11.1912 13 12.0025Z" fill="black"/>
<path d="M11.5 19C12.3284 19 13 18.3422 13 17.5309C13 16.7195 12.3284 16.0617 11.5 16.0617C10.6716 16.0617 10 16.7195 10 17.5309C10 18.3422 10.6716 19 11.5 19Z" fill="black"/>
</svg>
