<svg width="24" height="24" viewBox="0 0 24 24" fill="none" xmlns="http://www.w3.org/2000/svg">
<path d="M13.6504 17.6844H2.5179C2.259 17.6844 2.00011 17.4255 2.00011 17.1666V6.03406C2.00011 5.77516 2.259 5.51627 2.5179 5.51627H13.6504C13.9093 5.51627 14.1682 5.77516 14.1682 6.03406V17.1666C14.1682 17.4255 13.9093 17.6844 13.6504 17.6844ZM3.03569 16.6488H13.1326V6.55185H3.03569V16.6488Z" fill="black"/>
<path d="M21.8058 16.9076C22 16.7134 22 16.325 21.8058 16.1309L20.1877 14.5128C19.9936 14.3186 19.6699 14.3186 19.4758 14.5775C19.2816 14.8364 19.2816 15.0953 19.5405 15.2895L20.3819 16.0014H19.2169C18.3107 16.0014 17.5988 15.2895 17.5988 14.3833V8.88189C17.5988 7.97576 18.3107 7.2638 19.2169 7.2638H20.3819L19.5405 7.97576C19.3463 8.16993 19.2816 8.49355 19.4758 8.68772C19.6052 8.81717 19.7347 8.88189 19.8641 8.88189C19.9936 8.88189 20.123 8.81717 20.1877 8.75245C20.1877 8.75245 21.2233 7.78159 21.8058 7.19907C22.0647 7.0049 22.0647 6.61656 21.8058 6.35766L20.1877 4.73956C19.9936 4.54539 19.6699 4.54539 19.4758 4.80429C19.2816 5.06318 19.2816 5.32208 19.5405 5.51625L20.3819 6.22821H19.2169C17.7282 6.22821 16.5633 7.39324 16.5633 8.88179V11.0824H15.2041C14.9452 11.0824 14.6863 11.3413 14.6863 11.6002C14.6863 11.8591 14.9452 12.118 15.2041 12.118H16.5633V14.3186C16.5633 15.8072 17.7283 16.9722 19.2169 16.9722H20.3819L19.5405 17.6841C19.3463 17.8783 19.2816 18.2019 19.4758 18.3961C19.6052 18.5255 19.7347 18.5903 19.8641 18.5903C19.9936 18.5903 20.123 18.5255 20.1877 18.4608C20.1877 18.5255 21.2233 17.4901 21.8058 16.9076Z" fill="black"/>
<path d="M10.8671 10.2412H5.30087C5.04198 10.2412 4.78308 9.98234 4.78308 9.72344C4.78308 9.46455 5.04198 9.20565 5.30087 9.20565H10.8671C11.126 9.20565 11.3849 9.46455 11.3849 9.72344C11.3849 9.98234 11.126 10.2412 10.8671 10.2412Z" fill="black"/>
<path d="M10.8671 13.9949H5.30087C5.04198 13.9949 4.78308 13.736 4.78308 13.4771C4.78308 13.2182 5.04198 12.9593 5.30087 12.9593H10.8671C11.126 12.9593 11.3849 13.2182 11.3849 13.4771C11.3849 13.736 11.126 13.9949 10.8671 13.9949Z" fill="black"/>
</svg>
