<svg width="24" height="24" viewBox="0 0 24 24" fill="none" xmlns="http://www.w3.org/2000/svg">
<path d="M14.1408 5C13.1751 5 12.2746 5.63377 11.9936 6.525L5.76173 6.52347C5.34103 6.52347 5 6.86473 5 7.2852C5 7.70568 5.34103 8.04694 5.76173 8.04694L11.9936 8.0462C12.3349 8.97932 13.1751 9.57041 14.1408 9.57041C15.1065 9.57041 15.9553 8.9778 16.3026 8.0401L17.9495 8.04694C18.3702 8.04694 18.7112 7.70568 18.7112 7.2852C18.7112 6.86473 18.3702 6.52347 17.9495 6.52347H16.2961C15.9294 5.59491 15.1065 5 14.1408 5ZM14.1408 6.52347C14.5615 6.52347 14.9026 6.86473 14.9026 7.2852C14.9026 7.70568 14.5615 8.04694 14.1408 8.04694C13.7201 8.04694 13.3791 7.70568 13.3791 7.2852C13.3791 6.86473 13.7201 6.52347 14.1408 6.52347ZM9.57041 9.57041C8.56644 9.57041 7.7261 10.195 7.41927 11.0954C7.31217 11.1023 5.76173 11.0939 5.76173 11.0939C5.34103 11.0939 5 11.4351 5 11.8556C5 12.2761 5.34103 12.6173 5.76173 12.6173C5.76173 12.6173 7.32512 12.6014 7.42255 12.6113C7.72937 13.5116 8.56644 14.1408 9.57041 14.1408C10.5361 14.1408 11.3637 13.5489 11.7257 12.6196L17.9495 12.6173C18.3702 12.6173 18.7112 12.2761 18.7112 11.8556C18.7112 11.4351 18.3702 11.0939 17.9495 11.0939L11.7217 11.087C11.3878 10.1783 10.5361 9.57041 9.57041 9.57041ZM9.57041 11.0939C9.99112 11.0939 10.3321 11.4351 10.3321 11.8556C10.3321 12.2761 9.99112 12.6173 9.57041 12.6173C9.1497 12.6173 8.80867 12.2761 8.80867 11.8556C8.80867 11.4351 9.1497 11.0939 9.57041 11.0939ZM14.1408 14.1408C13.1751 14.1408 12.2917 14.7769 11.993 15.6567L5.76173 15.6643C5.34103 15.6643 5 16.0055 5 16.426C5 16.8465 5.34103 17.1878 5.76173 17.1878L11.9818 17.1885C12.2978 18.0912 13.1751 18.7112 14.1408 18.7112C15.1065 18.7112 15.9392 18.1072 16.3061 17.1885L17.9495 17.1878C18.3702 17.1878 18.7112 16.8465 18.7112 16.426C18.7112 16.0055 18.3702 15.6643 17.9495 15.6643L16.2991 15.6597C15.9703 14.7586 15.1065 14.1408 14.1408 14.1408ZM14.1408 15.6643C14.5615 15.6643 14.9026 16.0055 14.9026 16.426C14.9026 16.8465 14.5615 17.1878 14.1408 17.1878C13.7201 17.1878 13.3791 16.8465 13.3791 16.426C13.3791 16.0055 13.7201 15.6643 14.1408 15.6643Z" fill="#2A343D"/>
</svg>
