<svg width="24" height="24" viewBox="0 0 24 24" fill="none" xmlns="http://www.w3.org/2000/svg">
<path d="M12 5C8.14072 5 5 8.14072 5 12C5 15.8593 8.14072 19 12 19C15.8593 19 19 15.8593 19 12C19 8.14072 15.8593 5 12 5ZM12 16.0003C11.4479 16.0003 11.0001 15.5524 11.0001 15.0004C11.0001 14.4483 11.4479 14.0004 12 14.0004C12.5521 14.0004 12.9999 14.4483 12.9999 15.0004C12.9999 15.5524 12.5521 16.0003 12 16.0003ZM12.9999 12C12.9999 12.5526 12.5526 12.9999 12 12.9999C11.4474 12.9999 11.0001 12.5526 11.0001 12V9.00032C11.0001 8.44768 11.4474 8.00039 12 8.00039C12.5526 8.00039 12.9999 8.44768 12.9999 9.00032V12Z" fill="black"/>
</svg>
