<svg width="24" height="24" viewBox="0 0 24 24" fill="none" xmlns="http://www.w3.org/2000/svg">
<path d="M11.8694 18.6478C7.59715 18.5427 4.09379 16.2291 2.13067 12.4443C2.11642 12.4169 2.10411 12.3893 2.09278 12.362C1.97023 12.1271 1.95567 11.8358 2.13091 11.5367C4.10803 8.15055 7.92355 4.91995 12.028 5.00151C16.2232 5.08599 20.0295 7.95663 22.1651 11.4554C22.3283 11.7366 22.3283 12.0835 22.1651 12.3647C21.2155 13.9219 19.7051 15.2288 18.2342 16.275C16.3891 17.5875 14.1878 18.7107 11.8694 18.6478ZM3.94871 12.0163C5.63308 14.924 8.41343 16.82 11.87 16.8476C13.8713 16.8644 15.7511 15.8857 17.3252 14.7213C18.3887 13.9334 19.5203 13.0007 20.314 11.9014C18.501 9.20602 15.345 6.73303 12.0281 6.80132C8.69359 6.87002 5.71026 9.26531 3.94871 12.0163ZM12.5263 8.61314C12.4887 8.60562 12.4498 8.60005 12.4094 8.59659C12.3624 8.59068 12.3173 8.58803 12.2741 8.5884C10.9782 8.54082 9.51151 9.35828 8.99881 10.5503C8.26194 12.2088 9.35132 14.2178 11.0079 14.7671C12.5585 15.2809 14.4204 14.2656 15.0634 12.8471C15.9675 10.8292 14.5321 8.92959 12.5263 8.61314ZM12.4971 10.4093C14.6118 10.7628 12.9994 13.8758 11.2336 12.9194C10.5811 12.5641 10.3449 11.5347 10.8417 10.9994C11.2523 10.5812 11.8252 10.3647 12.4092 10.4059C12.4393 10.4083 12.4686 10.4094 12.4971 10.4093Z" fill="black"/>
</svg>
