<svg width="24" height="24" viewBox="0 0 24 24" fill="none" xmlns="http://www.w3.org/2000/svg">
<path fill-rule="evenodd" clip-rule="evenodd" d="M3.5 7C3.5 6.44772 3.94772 6 4.5 6H19.5C20.0523 6 20.5 6.44772 20.5 7C20.5 7.55228 20.0523 8 19.5 8H4.5C3.94772 8 3.5 7.55228 3.5 7ZM6 12C6 11.4477 6.44772 11 7 11H17C17.5523 11 18 11.4477 18 12C18 12.5523 17.5523 13 17 13H7C6.44772 13 6 12.5523 6 12ZM8.5 17C8.5 16.4477 8.94772 16 9.5 16H14.5C15.0523 16 15.5 16.4477 15.5 17C15.5 17.5523 15.0523 18 14.5 18H9.5C8.94772 18 8.5 17.5523 8.5 17Z" fill="#344054"/>
</svg>
