<svg width="24" height="24" viewBox="0 0 24 24" fill="none" xmlns="http://www.w3.org/2000/svg">
<path d="M17.9875 14.9387C17.9248 14.3759 17.7015 13.8436 17.3453 13.4068L14.5751 9.89708V6.73333H14.7892C15.2625 6.73333 15.6454 6.34569 15.6454 5.86666C15.6454 5.38764 15.2625 5 14.7892 5H9.22355C8.75028 5 8.3673 5.38764 8.3673 5.86666C8.3673 6.34569 8.75028 6.73333 9.22355 6.73333H9.43762V9.89708L6.65479 13.4068C6.29774 13.8436 6.07533 14.3759 6.01261 14.9387C5.93818 15.7242 6.19573 16.5045 6.72085 17.0876C7.24597 17.6708 7.99019 18.0025 8.7695 18H15.2432C16.02 17.9983 16.7609 17.6657 17.2835 17.0834C17.8061 16.5002 18.0611 15.7216 17.9875 14.9387ZM10.8699 10.85C11.0489 10.6224 11.1484 10.3397 11.15 10.0485V6.73335H12.8625V10.0485C12.8642 10.3397 12.9637 10.6224 13.1427 10.85L13.9989 11.9334H10.0195L10.8699 10.85ZM7.72511 15.2096C7.72511 14.9692 7.80622 14.7365 7.95422 14.5486L8.64993 13.6667H15.3627L16.0584 14.546C16.311 14.8634 16.3603 15.2993 16.1864 15.6666C16.0125 16.0339 15.6454 16.2675 15.2432 16.2667H8.76947C8.19334 16.2658 7.72595 15.7927 7.72511 15.2096Z" fill="black"/>
</svg>
