<svg width="24" height="24" viewBox="0 0 24 24" fill="none" xmlns="http://www.w3.org/2000/svg">
<path d="M7.2852 5C6.02309 5 5 6.02301 5 7.2852V8.80867V15.6643C5 17.347 6.36419 18.7112 8.04694 18.7112H15.6643C17.347 18.7112 18.7112 17.347 18.7112 15.6643V8.80867C18.7112 8.3882 18.37 8.04694 17.9495 8.04694H14.1408C13.5657 8.04694 13.3806 7.86031 12.9266 6.95156C12.2388 5.57511 11.6614 5 10.3321 5H7.2852ZM7.2852 6.52347H10.3321C10.9073 6.52347 11.0924 6.7101 11.5464 7.61885C11.6454 7.81766 11.6865 7.88088 11.784 8.04694H8.78491C8.3642 8.04694 8.0231 8.3882 8.02318 8.80867C8.02318 9.22915 8.3642 9.57041 8.78491 9.57041H14.1408H17.1878V15.6643C17.1878 16.506 16.506 17.1878 15.6643 17.1878H8.04694C7.20553 17.1878 6.52339 16.506 6.52347 15.6643V8.80867V7.2852C6.52347 6.86473 6.8645 6.52347 7.2852 6.52347ZM10.3321 12.6173C9.91144 12.6173 9.57041 12.9586 9.57041 13.3791C9.57041 13.7996 9.91144 14.1408 10.3321 14.1408H13.3791C13.7996 14.1408 14.1408 13.7996 14.1408 13.3791C14.1408 12.9586 13.7996 12.6173 13.3791 12.6173H10.3321Z" fill="#2A343D"/>
</svg>
