<svg width="24" height="24" viewBox="0 0 24 24" fill="none" xmlns="http://www.w3.org/2000/svg">
<path d="M7.2852 5C6.02301 5 5 6.02309 5 7.2852V8.80867V15.6643C5 17.347 6.36427 18.7112 8.04694 18.7112H15.6643C17.347 18.7112 18.7112 17.347 18.7112 15.6643V8.80867C18.7112 8.38797 18.37 8.04694 17.9495 8.04694H14.1408C13.5657 8.04694 13.3806 7.86039 12.9266 6.95195C12.2388 5.57519 11.6614 5 10.3321 5H7.2852ZM7.2852 6.52347H10.3321C10.9073 6.52347 11.0924 6.71002 11.5463 7.61846C11.6454 7.81735 11.6789 7.8738 11.7764 8.03985L8.78506 8.04694C8.36382 8.04694 8.02332 8.38797 8.02332 8.80867C8.02332 9.22938 8.36382 9.57041 8.78506 9.57041H14.1408H17.1878V15.6643C17.1878 16.506 16.506 17.1878 15.6643 17.1878H8.04694C7.20522 17.1878 6.52347 16.506 6.52347 15.6643V8.80867V7.2852C6.52347 6.8645 6.86473 6.52347 7.2852 6.52347Z" fill="#2A343D"/>
</svg>
