<svg width="24" height="24" viewBox="0 0 24 24" fill="none" xmlns="http://www.w3.org/2000/svg">
<path d="M7.2852 5C6.02309 5 5 6.02301 5 7.2852V8.80867V15.6643C5 17.347 6.36419 18.7112 8.04694 18.7112H15.6643C17.347 18.7112 18.7113 17.347 18.7112 15.6643V8.80867C18.7112 8.3882 18.3702 8.04694 17.9495 8.04694H14.1408C13.5659 8.04694 13.3809 7.86031 12.9268 6.95156C12.2384 5.57511 11.6615 5 10.3321 5H7.2852ZM7.2852 6.52347H10.3321C10.907 6.52347 11.0921 6.7101 11.5462 7.61885C11.6456 7.81766 11.6868 7.88088 11.7842 8.04694H8.78491C8.3642 8.04694 8.0231 8.3882 8.02317 8.80867C8.02317 9.22915 8.3642 9.57041 8.78491 9.57041H14.1408H17.1878V15.6643C17.1878 16.506 16.5057 17.1878 15.6643 17.1878H8.04694C7.20553 17.1878 6.52339 16.506 6.52347 15.6643V8.80867V7.2852C6.52347 6.86473 6.8645 6.52347 7.2852 6.52347ZM11.8556 11.0939C11.4349 11.0939 11.0939 11.4351 11.0939 11.8556V12.6173H10.3321C9.91144 12.6173 9.57041 12.9586 9.57041 13.3791C9.57041 13.7996 9.91144 14.1408 10.3321 14.1408H11.0939V14.9026C11.0939 15.323 11.4349 15.6643 11.8556 15.6643C12.2763 15.6643 12.6173 15.323 12.6173 14.9026V14.1408H13.3791C13.7998 14.1408 14.1408 13.7996 14.1408 13.3791C14.1408 12.9586 13.7998 12.6173 13.3791 12.6173H12.6173V11.8556C12.6173 11.4351 12.2763 11.0939 11.8556 11.0939Z" fill="#2A343D"/>
</svg>
