<svg width="24" height="24" viewBox="0 0 24 24" fill="none" xmlns="http://www.w3.org/2000/svg">
<path d="M7 5C5.89543 5 5 5.89543 5 7V17C5 18.1046 5.89543 19 7 19H17C18.1046 19 19 18.1046 19 17V7C19 5.89543 18.1046 5 17 5H7ZM10 8.375H14C14.8975 8.375 15.625 9.10254 15.625 10V14C15.625 14.8975 14.8975 15.625 14 15.625H10C9.10254 15.625 8.375 14.8975 8.375 14V10C8.375 9.10254 9.10254 8.375 10 8.375ZM9.625 10C9.625 9.79289 9.79289 9.625 10 9.625H14C14.2071 9.625 14.375 9.79289 14.375 10V14C14.375 14.2071 14.2071 14.375 14 14.375H10C9.79289 14.375 9.625 14.2071 9.625 14V10Z" fill="black"/>
</svg>
