<svg width="24" height="24" viewBox="0 0 24 24" fill="none" xmlns="http://www.w3.org/2000/svg">
<path d="M11.9096 4.79999C7.98333 4.79999 4.8 7.98331 4.8 11.9096C4.8 15.241 7.09403 18.0286 10.1867 18.8C10.1535 18.704 10.1322 18.5926 10.1322 18.4546V17.2394C9.84367 17.2394 9.36022 17.2394 9.23876 17.2394C8.75235 17.2394 8.31985 17.0303 8.11011 16.6416C7.87727 16.2097 7.83699 15.5491 7.25992 15.1451C7.0887 15.0106 7.21904 14.8571 7.41633 14.8779C7.7807 14.9809 8.08286 15.231 8.36724 15.6019C8.65044 15.9733 8.78375 16.0575 9.31282 16.0575C9.56936 16.0575 9.95328 16.0426 10.3147 15.9858C10.509 15.4922 10.8449 15.0378 11.2555 14.8233C8.88802 14.5798 7.75819 13.402 7.75819 11.803C7.75819 11.1145 8.05146 10.4486 8.54972 9.8875C8.3862 9.33058 8.18062 8.19483 8.61253 7.76232C9.67778 7.76232 10.3218 8.45314 10.4764 8.63977C11.0073 8.45788 11.5903 8.35479 12.2029 8.35479C12.8167 8.35479 13.402 8.45788 13.9341 8.64095C14.0869 8.45551 14.7315 7.76232 15.7992 7.76232C16.2328 8.19542 16.0249 9.33592 15.8596 9.89165C16.3549 10.4515 16.6464 11.1157 16.6464 11.803C16.6464 13.4008 15.5183 14.5781 13.1544 14.8228C13.8049 15.1622 14.2795 16.1161 14.2795 16.8348V18.4546C14.2795 18.5162 14.2658 18.5606 14.2587 18.6134C17.0291 17.6423 19.0192 15.0118 19.0192 11.9096C19.0192 7.98331 15.8359 4.79999 11.9096 4.79999Z" fill="black"/>
</svg>
