<svg width="24" height="24" viewBox="0 0 24 24" fill="none" xmlns="http://www.w3.org/2000/svg">
<path d="M7.80868 9C6.39413 9 5.18906 9.97122 4.85466 11.286L4.76174 11.2852C4.34126 11.2852 4 11.6265 4 12.0469C4 12.4674 4.34126 12.8087 4.76174 12.8087L4.86076 12.8155C5.20431 14.1219 6.39413 15.0939 7.80868 15.0939C9.49135 15.0939 10.8556 13.7296 10.8556 12.0469C10.8556 11.6265 11.1969 11.2852 11.6174 11.2852C12.0378 11.2852 12.3791 11.6265 12.3791 12.0469C12.3791 13.7296 13.7434 15.0939 15.426 15.0939C16.8406 15.0939 18.0403 14.1227 18.3838 12.8163L18.473 12.8087C18.8934 12.8087 19.2347 12.4674 19.2347 12.0469C19.2347 11.6265 18.8934 11.2852 18.473 11.2852L18.3808 11.2875C18.0373 9.98112 16.8406 9 15.426 9C14.3992 9 13.54 9.48218 12.99 10.218C12.603 9.91713 12.1445 9.76173 11.6174 9.76173C11.0902 9.76173 10.6263 9.92398 10.2401 10.2241C9.71758 9.50807 8.8355 9 7.80868 9ZM7.80868 10.5235C8.65039 10.5235 9.33215 11.2052 9.33215 12.0469C9.33215 12.8887 8.65039 13.5704 7.80868 13.5704C6.96696 13.5704 6.28521 12.8887 6.28521 12.0469C6.28521 11.2052 6.96696 10.5235 7.80868 10.5235ZM15.426 10.5235C16.2677 10.5235 16.9495 11.2052 16.9495 12.0469C16.9495 12.8887 16.2677 13.5704 15.426 13.5704C14.5843 13.5704 13.9026 12.8887 13.9026 12.0469C13.9026 11.2052 14.5843 10.5235 15.426 10.5235Z" fill="#2A343D"/>
</svg>
