<svg width="24" height="24" viewBox="0 0 24 24" fill="none" xmlns="http://www.w3.org/2000/svg">
<path d="M11.6173 4C7.41029 4 4 7.41029 4 11.6173C4 15.8244 7.41029 19.2347 11.6173 19.2347C15.8244 19.2347 19.2347 15.8244 19.2347 11.6173C19.2347 7.41029 15.8244 4 11.6173 4ZM11.6173 5.52347C12.6228 5.52347 13.7274 7.83306 13.8957 10.8533L9.34814 10.8625C9.51572 7.84219 10.6119 5.52347 11.6173 5.52347ZM8.92766 6.13515C8.27257 7.40953 7.92217 9.09906 7.83762 10.8571L5.56766 10.8503C5.79466 8.77456 7.19243 7.03324 8.92766 6.13515ZM14.3109 6.13896C16.0461 7.03705 17.408 8.72961 17.6708 10.8625L15.4016 10.8556C15.33 9.02745 14.9256 7.4202 14.3109 6.13896ZM5.57222 12.3821L7.84143 12.3631C7.92598 14.1212 8.27866 15.8396 8.9307 17.1003C7.10863 16.187 5.83425 14.3992 5.57222 12.3821ZM9.33596 12.3882L13.8835 12.3783C13.7159 15.3978 12.6228 17.7112 11.6173 17.7112C10.6119 17.7112 9.50354 15.4085 9.33596 12.3882ZM15.4054 12.3806L17.6648 12.3738C17.4027 14.3916 16.1291 16.1939 14.3078 17.0919C14.9842 15.6934 15.3209 14.1387 15.4054 12.3806Z" fill="#2A343D"/>
</svg>
