<svg width="24" height="24" viewBox="0 0 24 24" fill="none" xmlns="http://www.w3.org/2000/svg">
<path d="M12.7974 4.02062C12.5537 3.96121 12.2726 4.02977 12.0707 4.23163L7.51861 8.77842C7.15145 9.14557 7.23827 9.78619 7.70369 10.0193L9.82208 11.0667L5.70414 15.1846C4.78015 16.1086 4.75883 17.5955 5.67977 18.5172L5.70414 18.5408C6.62584 19.4633 8.13789 19.4633 9.06035 18.5408L12.7631 14.8571C14.8396 15.9418 17.2772 14.787 17.8325 12.597C18.0328 11.8063 17.9498 11.0773 17.361 10.2547C17.6908 9.9256 18.0077 9.595 18.0344 9.56681C18.9423 8.65959 18.9332 7.15669 18.0107 6.23423L17.9871 6.21061C17.5255 5.749 16.9253 5.51973 16.3205 5.51973C15.7164 5.51973 15.1009 5.77947 14.6393 6.24032C14.6286 6.25174 14.3834 6.48484 14.2257 6.63871C14.1845 6.55797 14.1495 6.5115 14.1068 6.42466C13.9057 6.01256 13.7191 5.55399 13.5515 5.10762C13.451 4.84025 13.3733 4.6262 13.3367 4.5127C13.2499 4.24152 13.0412 4.07928 12.7974 4.02062ZM12.3213 6.13901C12.4516 6.45665 12.594 6.78648 12.735 7.09118C13.0107 7.68914 13.8402 9.04502 14.845 9.94768C14.9447 10.0376 15.0445 10.1358 15.1542 10.2333C15.2997 10.3621 15.3005 10.3727 15.7255 10.733C16.3593 11.2708 16.4827 11.7027 16.3441 12.2329C16.0638 13.3085 15.0613 13.9712 13.9248 13.6787C14.5022 12.9862 14.7878 11.5938 13.726 10.519C12.8942 9.67726 11.8133 9.72526 11.0858 9.99796L9.33305 9.1189L12.3213 6.13901ZM16.3205 7.0432C16.536 7.0432 16.7524 7.11784 16.9154 7.28161L16.9397 7.30523C17.2665 7.63277 17.2703 8.13933 16.9397 8.51029C16.814 8.65198 16.5421 8.90867 16.2717 9.17832C15.807 8.76089 15.3873 8.34119 15.0735 7.94204C15.3256 7.69371 15.708 7.32275 15.7255 7.30523C15.8916 7.13917 16.1056 7.04396 16.3205 7.0432ZM11.8293 11.3599C12.1309 11.2937 12.4188 11.3805 12.655 11.59C12.8903 11.8002 12.9246 12.0531 12.9231 12.2367C12.914 12.3837 12.8675 12.5246 12.7822 12.6511C12.7068 12.7547 12.1256 13.3389 12.1088 13.3603L7.98934 17.4698C7.66104 17.7973 7.10269 17.7973 6.77514 17.4698L6.75152 17.4462C6.4316 17.1263 6.43998 16.5908 6.77514 16.2556L11.4255 11.6258C11.5246 11.5268 11.7036 11.4034 11.8293 11.3599Z" fill="#2A343D"/>
</svg>
