<svg width="24" height="24" viewBox="0 0 24 24" fill="none" xmlns="http://www.w3.org/2000/svg">
<path d="M8.80867 5C6.70522 5 5 6.70552 5 8.80868C5 10.6079 6.01638 12.4635 8.18977 15.355C10.2777 18.1323 10.7797 18.5993 11.7431 18.7128C11.8077 18.7204 11.905 18.7227 11.9764 18.7128C12.9316 18.5894 13.4559 18.1079 15.5215 15.355C17.6913 12.4627 18.7112 10.601 18.7112 8.80868C18.7112 6.70552 17.006 5 14.9026 5C13.6152 5 12.4869 5.66195 11.8539 6.52195C11.2275 5.66195 10.096 5 8.80867 5ZM8.80867 6.52347C10.0707 6.52347 11.0939 7.54648 11.0939 8.80868C11.0939 9.82407 12.6173 9.82407 12.6173 8.80868C12.6173 7.54648 13.6404 6.52347 14.9026 6.52347C16.1646 6.52347 17.1878 7.54648 17.1878 8.80868C17.1878 10.1379 16.2429 11.8389 14.2836 14.4501C12.6456 16.6332 12.1873 17.1482 11.8794 17.1878C11.873 17.1885 11.8373 17.1885 11.8318 17.1878C11.5276 17.152 11.076 16.6431 9.42758 14.4501C7.46467 11.8389 6.52347 10.1448 6.52347 8.80868C6.52347 7.54648 7.54656 6.52347 8.80867 6.52347Z" fill="#2A343D"/>
</svg>
