<svg width="24" height="24" viewBox="0 0 24 24" fill="none" xmlns="http://www.w3.org/2000/svg">
<path d="M15.0146 9.41612V7.53711C15.2629 7.42106 15.4732 7.23686 15.6209 7.00597C15.7686 6.77508 15.8477 6.50698 15.8489 6.2329V6.18978C15.8489 5.39063 15.2011 4.74279 14.402 4.74279H14.3588C13.5597 4.74279 12.9118 5.39063 12.9118 6.18978V6.2329C12.9131 6.50698 12.9922 6.77508 13.1399 7.00597C13.2876 7.23686 13.4978 7.42106 13.7462 7.53711V9.41612C13.0325 9.52541 12.3604 9.82133 11.7979 10.2739L6.64455 6.26002C6.68129 6.12737 6.70046 5.99097 6.70263 5.85405C6.70326 5.53157 6.60823 5.21614 6.42957 4.94767C6.25091 4.6792 5.99664 4.46975 5.69893 4.34581C5.40122 4.22187 5.07343 4.18901 4.75704 4.25138C4.44065 4.31376 4.14986 4.46857 3.92146 4.69622C3.69306 4.92388 3.53731 5.21417 3.47391 5.53036C3.41051 5.84655 3.44231 6.17443 3.56528 6.47255C3.68826 6.77066 3.89688 7.02561 4.16477 7.20514C4.43266 7.38467 4.74778 7.48072 5.07026 7.48113C5.35237 7.4798 5.6292 7.40448 5.8731 7.2627L10.9476 11.2115C10.0147 12.6208 10.0396 14.4576 11.0105 15.8412L9.46708 17.385C9.34226 17.3451 9.21235 17.3239 9.08135 17.3222C8.34219 17.3228 7.74339 17.9222 7.74358 18.6614C7.74377 19.4005 8.34296 19.9996 9.08205 19.9998C9.82122 20 10.4207 19.4012 10.4213 18.662C10.4196 18.5311 10.3983 18.4011 10.3584 18.2764L11.8852 16.749C13.2495 17.7992 15.1232 17.8897 16.5824 16.9758C18.0415 16.0618 18.7778 14.3364 18.4282 12.6506C18.0786 10.9647 16.7169 9.67454 15.0146 9.41612ZM14.3818 15.596C14.0997 15.6036 13.8189 15.5546 13.5561 15.4519C13.2933 15.3492 13.0537 15.1949 12.8515 14.9981C12.6493 14.8012 12.4886 14.5659 12.3789 14.3059C12.2691 14.046 12.2126 13.7666 12.2126 13.4845C12.2126 13.2023 12.2691 12.923 12.3789 12.663C12.4886 12.403 12.6493 12.1677 12.8515 11.9709C13.0537 11.774 13.2933 11.6197 13.5561 11.517C13.8189 11.4143 14.0997 11.3653 14.3818 11.3729C15.5185 11.4127 16.4196 12.3454 16.4202 13.4829C16.4207 14.6203 15.5206 15.554 14.3839 15.595" fill="black"/>
</svg>
