<svg width="24" height="24" viewBox="0 0 24 24" fill="none" xmlns="http://www.w3.org/2000/svg">
<path d="M8.04694 5C6.36427 5 5 6.36427 5 8.04694V14.9026V15.6643C5 17.347 6.36427 18.7112 8.04694 18.7112H15.6643C17.347 18.7112 18.7112 17.347 18.7112 15.6643V14.9026V8.04694C18.7112 6.36427 17.347 5 15.6643 5H8.04694ZM8.04694 6.52347H15.6643C16.506 6.52347 17.1878 7.20522 17.1878 8.04694L17.1908 12.7666C16.5982 12.2167 15.9941 11.8724 15.3307 11.8556C15.307 11.8549 15.3078 11.8556 15.2834 11.8556C14.4173 11.8556 13.4545 12.5214 12.8078 13.3555C12.6425 12.9822 12.4757 12.6135 12.2837 12.2601C11.3849 10.6003 10.403 9.57269 9.18954 9.57041C8.15815 9.56812 7.27302 10.4114 6.51738 11.5662L6.52347 8.04694C6.52347 7.20522 7.20522 6.52347 8.04694 6.52347ZM14.9026 8.04694C14.4821 8.04694 14.1408 8.3882 14.1408 8.80867C14.1408 9.22915 14.4821 9.57041 14.9026 9.57041C15.323 9.57041 15.6643 9.22915 15.6643 8.80867C15.6643 8.3882 15.323 8.04694 14.9026 8.04694ZM9.18954 11.0939C9.63287 11.0946 10.3063 11.7848 10.9507 12.9746C11.2066 13.4453 11.4359 13.9641 11.6416 14.4744C11.765 14.7791 11.8602 15.0123 11.9028 15.1402C12.1108 15.7626 12.9548 15.8509 13.2839 15.2834C13.3166 15.2271 13.376 15.1189 13.4743 14.9742C13.6388 14.7304 13.8262 14.4836 14.022 14.2597C14.511 13.699 14.9825 13.3791 15.2834 13.3791C15.5874 13.3867 16.0566 13.7059 16.5449 14.2597C16.7429 14.4844 16.9257 14.7304 17.0925 14.9742C17.1451 15.0503 17.1527 15.0861 17.1878 15.1402V15.6643C17.1878 16.506 16.506 17.1878 15.6643 17.1878H8.04694C7.20522 17.1878 6.52347 16.506 6.52347 15.6643V15.0214C6.57146 14.8858 6.63545 14.7251 6.73752 14.4744C6.94548 13.9641 7.17094 13.4461 7.4284 12.9746C8.07816 11.7825 8.74697 11.0931 9.18954 11.0939Z" fill="#2A343D"/>
</svg>
