<svg width="24" height="24" viewBox="0 0 24 24" fill="none" xmlns="http://www.w3.org/2000/svg">
<path fill-rule="evenodd" clip-rule="evenodd" d="M10.699 10.7347C10.699 11.0371 10.454 11.2821 10.1543 11.2821C9.85187 11.2821 9.60687 11.0371 9.60687 10.7347C9.60687 10.0746 9.87374 9.47794 10.3052 9.04599C10.7373 8.61396 11.3339 8.34762 11.9939 8.34762C12.654 8.34762 13.2506 8.61449 13.6826 9.04599C14.1146 9.47801 14.381 10.0747 14.381 10.7347C14.381 11.3947 14.1141 11.9914 13.6826 12.4233C13.3747 12.7312 12.981 12.9571 12.5413 13.0588V13.2956C12.5413 13.598 12.2963 13.843 11.9938 13.843C11.6914 13.843 11.4464 13.598 11.4464 13.2956V12.5748C11.4464 12.2752 11.6914 12.0302 11.9938 12.0302C12.3515 12.0302 12.6758 11.8841 12.9099 11.6506C13.1439 11.4166 13.2894 11.0923 13.2894 10.7346C13.2894 10.377 13.1434 10.0527 12.9099 9.81859C12.6758 9.58452 12.3515 9.43906 11.9938 9.43906C11.6362 9.43906 11.3119 9.58508 11.0778 9.81859C10.8438 10.0527 10.699 10.377 10.699 10.7347ZM11.9393 15.6499C11.6369 15.6499 11.3919 15.4077 11.3919 15.1052C11.3919 14.8028 11.6369 14.5578 11.9393 14.5578H12.0602C12.3626 14.5578 12.6076 14.8028 12.6076 15.1052C12.6076 15.4077 12.3626 15.6499 12.0602 15.6499H11.9393ZM12 17.9052C13.6307 17.9052 15.1079 17.2451 16.1754 16.1749C17.245 15.108 17.9056 13.6308 17.9056 11.9996C17.9056 10.3688 17.2455 8.89171 16.1754 7.82141C15.1084 6.75445 13.6313 6.09115 12 6.09115C10.3693 6.09115 8.89214 6.75396 7.82184 7.82141C6.75489 8.89109 6.09158 10.3681 6.09158 11.9996C6.09158 13.6303 6.7544 15.1074 7.82184 16.1749C8.89152 17.2446 10.3686 17.9052 12 17.9052ZM16.9482 16.9482C15.6827 18.2164 13.931 19 12 19C10.0663 19 8.3173 18.2163 7.04918 16.9482C5.78371 15.6827 5 13.931 5 12C5 10.0663 5.78368 8.3173 7.04918 7.04918C8.31738 5.78371 10.0663 5 12 5C13.931 5 15.6827 5.78368 16.9482 7.04918C18.2164 8.31738 19 10.0663 19 12C19 13.931 18.2163 15.6827 16.9482 16.9482Z" fill="black"/>
</svg>
