<svg width="24" height="24" viewBox="0 0 24 24" fill="none" xmlns="http://www.w3.org/2000/svg">
<path d="M5.51734 20L8.27528 17.2302C9.17856 17.8388 10.2421 18.1657 11.331 18.1688H12.1358C13.5934 18.1688 14.9922 17.5906 16.0223 16.5597L18.7048 13.8779L17.0492 12.2226L20 9.27259L18.4816 7.7546L15.5308 10.7046L13.2936 8.46803L16.2444 5.51799L14.726 4L11.7752 6.95005L10.1238 5.29587L7.44119 7.97773C6.41007 9.00859 5.83061 10.4082 5.83166 11.8664V12.671C5.8348 13.7594 6.16175 14.8227 6.77055 15.7259L4 18.4831L5.51734 20ZM7.97776 11.8665C7.97567 10.9781 8.3288 10.1253 8.95963 9.49888L10.1238 8.33501L15.6743 13.8779L14.5101 15.0418C13.8814 15.6735 13.0263 16.0275 12.1356 16.0234H11.3309C10.4412 16.0244 9.58824 15.6714 8.95953 15.0418C8.32974 14.4132 7.97661 13.5605 7.97765 12.671L7.97776 11.8665Z" fill="black"/>
</svg>
