<svg width="24" height="24" viewBox="0 0 24 24" fill="none" xmlns="http://www.w3.org/2000/svg">
<path d="M6.79004 9.76757C5.73209 10.4672 4.76034 11.2886 3.8955 12.2155C3.75871 12.3629 3.75871 12.5916 3.8955 12.7391C4.78033 13.6966 8.07381 16.9451 12.0006 16.9451C12.5926 16.943 13.1818 16.8725 13.7575 16.735L12.344 15.3215C12.23 15.3351 12.1153 15.3415 12.0006 15.3415C11.2412 15.3422 10.5131 15.0401 9.97585 14.503C9.43868 13.9665 9.13661 13.2377 9.13732 12.4782C9.13732 12.3635 9.14444 12.2488 9.15727 12.1355L6.79004 9.76757Z" fill="black"/>
<path d="M20.1045 12.7391C20.2413 12.5916 20.2413 12.3629 20.1045 12.2154C19.2196 11.2579 15.9262 8.0114 12.0006 8.0114C11.0196 8.02208 10.0479 8.20873 9.13233 8.56351L5.56955 5L4.52229 6.04797L18.4309 19.9566L19.4782 18.9093L16.3022 15.7334C17.7164 14.9369 18.9987 13.9267 20.1045 12.7391ZM13.6577 13.0889C13.8985 12.442 13.7396 11.7139 13.2516 11.2259C12.7636 10.7378 12.0355 10.579 11.3886 10.8198L10.5708 10.0019C11.3024 9.5766 12.1851 9.49823 12.9802 9.78675C13.776 10.0753 14.4022 10.7022 14.6914 11.4973C14.9799 12.293 14.9008 13.175 14.4763 13.9067L13.6577 13.0889Z" fill="black"/>
</svg>
