<svg width="24" height="24" viewBox="0 0 24 24" fill="none" xmlns="http://www.w3.org/2000/svg">
<path d="M15.8819 4.03971L13.573 4.80144C13.3407 4.87838 13.1487 5.04746 13.0733 5.27827L11.5971 9.84868C11.4661 10.2486 11.6679 10.6706 12.0732 10.8008C12.4784 10.9303 12.8943 10.7247 13.0253 10.324L13.3826 9.32461H14.6204L13.9303 17.7273C13.9021 18.1356 13.5243 18.4654 13.1206 18.4654H9.90711C9.50369 18.4654 9.12458 18.1249 9.09776 17.7273L8.55031 9.32461H10.05C10.4758 9.32461 10.8117 8.98412 10.8117 8.56288C10.8117 8.14164 10.4758 7.80114 10.05 7.80114H8.43125C7.60225 7.80114 6.95021 8.48365 7.00299 9.30099L7.55053 17.8225C7.6315 19.023 8.6913 19.9889 9.90711 19.9889H13.1206C14.3363 19.9889 15.3966 19.0207 15.4774 17.8225L16.1675 9.30099C16.2345 8.47984 15.5734 7.80114 14.7393 7.80114H13.8823L14.43 6.11086L16.3579 5.4687C16.7624 5.3354 16.9925 4.91568 16.8576 4.51653C16.7236 4.11662 16.2863 3.90716 15.8819 4.03971Z" fill="#2A343D"/>
</svg>
