<svg width="24" height="24" viewBox="0 0 24 24" fill="none" xmlns="http://www.w3.org/2000/svg">
<path d="M8.57041 7C6.04602 7 4 9.04602 4 11.5704C4 14.0948 6.04602 16.1408 8.57041 16.1408C10.1876 16.1408 11.6387 15.3052 12.5223 13.8564L14.9499 13.8556L15.4976 14.951C15.6264 15.2085 15.8991 15.3791 16.1878 15.3791H18.473C18.8934 15.3791 19.2347 15.0378 19.2347 14.6174V10.0469C19.2347 9.62646 18.8934 9.28521 18.473 9.28521L12.52 9.27912C11.695 7.88133 10.1876 7 8.57041 7ZM8.57041 8.52347C9.78385 8.52347 10.8693 9.2517 11.3553 10.3562C11.4772 10.6327 11.7438 10.8087 12.0454 10.8087H17.7112V13.8556H16.6638L16.1162 12.7602C15.9874 12.5028 15.7147 12.3321 15.426 12.3321H12.0454C11.7438 12.3321 11.4772 12.5081 11.3553 12.7846C10.8693 13.8891 9.78385 14.6174 8.57041 14.6174C6.88774 14.6174 5.52347 13.2531 5.52347 11.5704C5.52347 9.88774 6.88774 8.52347 8.57041 8.52347ZM8.57041 10.8087C8.3754 10.8087 8.17203 10.8742 8.02273 11.0227C7.72565 11.3206 7.72565 11.8203 8.02273 12.1181C8.32056 12.4152 8.82025 12.4152 9.11809 12.1181C9.41517 11.8203 9.41517 11.3206 9.11809 11.0227C8.96879 10.8742 8.76541 10.8087 8.57041 10.8087Z" fill="#2A343D"/>
</svg>
