<svg width="24" height="24" viewBox="0 0 24 24" fill="none" xmlns="http://www.w3.org/2000/svg">
<path fill-rule="evenodd" clip-rule="evenodd" d="M6.57994 8.083C6.28775 8.26183 6.18504 8.68937 6.36427 8.98052C6.45849 9.13359 6.7406 9.29012 6.92228 9.29012C7.10396 9.29012 7.38607 9.13359 7.48029 8.98052C7.65952 8.68937 7.55681 8.26183 7.26462 8.083C7.0839 7.97233 6.76066 7.97233 6.57994 8.083ZM4 11.5375V15.0334H4.60104H5.20207V11.5375V8.04159H4.60104H4V11.5375ZM15.2746 10.9559V13.8701L15.1606 13.9149C14.8415 14.0404 14.4984 13.9876 14.3716 13.7935C14.3105 13.7 14.2968 13.5203 14.274 12.5174C14.2538 11.628 14.2313 11.2915 14.1794 11.1036C13.9732 10.3572 13.5111 9.99129 12.7668 9.98513C12.1384 9.97997 11.6631 10.21 11.0658 10.8085C10.6667 11.2083 10.3573 11.6132 9.9801 12.2292L9.80477 12.5155L9.80394 11.2774L9.80311 10.0392H9.2228H8.64249V12.5363V15.0334H9.19225H9.74197L9.90035 14.6692C10.1262 14.15 10.5928 13.2987 10.9442 12.7652C11.5883 11.787 12.1786 11.2461 12.6021 11.2461C12.8124 11.2461 12.8911 11.3008 12.9754 11.5051C13.0362 11.6524 13.0538 11.8697 13.0773 12.7652C13.102 13.7079 13.1166 13.8776 13.191 14.0831C13.4318 14.7488 13.8714 15.0695 14.5951 15.1075C15.4953 15.1548 16.3687 14.7409 17.2773 13.8364C17.5665 13.5486 17.6503 13.4857 17.6788 13.5351C17.6986 13.5695 17.9181 13.9159 18.1665 14.305L18.6182 15.0125L19.3091 15.024C19.6891 15.0302 20 15.0256 20 15.0136C20 15.0016 19.6456 14.4374 19.2124 13.7597C18.7793 13.082 18.4249 12.5194 18.4249 12.5095C18.4249 12.4996 18.5359 12.3257 18.6716 12.1231C19.0333 11.5829 19.8342 10.1625 19.8342 10.0611C19.8342 10.0491 19.5404 10.0396 19.1813 10.04L18.5285 10.0408L18.3005 10.4661C17.8769 11.2564 17.1876 12.239 16.6292 12.8484L16.4385 13.0565L16.4369 10.5491L16.4352 8.04159H15.8549H15.2746V10.9559ZM6.32124 12.5363V15.0334H6.92228H7.52332V12.5363V10.0392H6.92228H6.32124V12.5363Z" fill="black"/>
</svg>
