<svg width="24" height="24" viewBox="0 0 24 24" fill="none" xmlns="http://www.w3.org/2000/svg">
<path d="M3.06645 6H20.9335C21.5225 6 22 6.89692 22 7.49916V17.7457C22 18.3479 21.5223 18.836 20.9335 18.836H3.06645C2.47748 18.836 2 18.348 2 17.7457V7.09024C2 6.4881 2.47771 6 3.06645 6ZM15.4353 17.996C18.5049 18 21 15.5361 21 12.496C21 9.46785 18.5049 7 15.4353 7C14.3424 7 13.2696 7.32587 12.3616 7.91799C15.2585 10.2746 15.3027 14.7334 12.3616 17.078C13.2696 17.6741 14.3505 17.996 15.4353 17.996ZM8.56474 7.00397C5.49507 7 3 9.46785 3 12.496C3 15.5361 5.49507 18 8.56474 18C9.6576 18 10.7304 17.6741 11.6384 17.082C8.70938 14.7254 8.72948 10.2785 11.6384 7.92196C10.7304 7.32587 9.6576 7.00397 8.56474 7.00397ZM12 8.5C9.33902 10.534 9.32766 14.4807 12 16.5C14.6724 14.477 14.661 10.534 12 8.5Z" fill="black"/>
</svg>
