<svg width="24" height="24" viewBox="0 0 24 24" fill="none" xmlns="http://www.w3.org/2000/svg">
<path d="M16.7837 4.01038L12.2133 4.77212C11.8462 4.83306 11.5704 5.16136 11.5704 5.53385L11.562 13.5534C11.1096 13.2868 10.6106 13.1512 10.0469 13.1512C8.36427 13.1512 7 14.5155 7 16.1981C7 17.8808 8.36427 19.2451 10.0469 19.2451C11.7296 19.2451 13.0939 17.8808 13.0939 16.1981L13.1038 9.21913L17.0168 8.55643C17.1036 8.54271 17.3017 8.47948 17.4739 8.29514C17.662 8.10013 17.6643 7.8998 17.6643 7.81905V7.70022V4.77212C17.6643 4.30136 17.2476 3.93269 16.7837 4.01038ZM16.1294 5.66333L16.1332 7.16625L13.0939 7.67586L13.0969 6.16531L16.1294 5.66333ZM10.0469 14.6747C10.8887 14.6747 11.5704 15.3564 11.5704 16.1981C11.5704 17.0398 10.8887 17.7216 10.0469 17.7216C9.20522 17.7216 8.52347 17.0398 8.52347 16.1981C8.52347 15.3564 9.20522 14.6747 10.0469 14.6747Z" fill="#2A343D"/>
</svg>
