<svg width="24" height="24" viewBox="0 0 24 24" fill="none" xmlns="http://www.w3.org/2000/svg">
<path d="M14.6643 7C12.4088 7 10.5319 8.66363 10.1586 10.8125L8.43253 10.8094C8.09432 9.88163 7.25108 9.2852 6.2852 9.2852C5.02301 9.2852 4 10.3082 4 11.5704C4 12.8326 5.02301 13.8556 6.2852 13.8556C7.25108 13.8556 8.0989 13.2554 8.43787 12.3321L10.1556 12.3291C10.5288 14.4779 12.4088 16.1408 14.6643 16.1408C17.1887 16.1408 19.2347 14.0948 19.2347 11.5704C19.2347 9.04602 17.1887 7 14.6643 7ZM14.6643 8.52347C16.347 8.52347 17.7112 9.88774 17.7112 11.5704C17.7112 13.2531 16.347 14.6173 14.6643 14.6173C12.9816 14.6173 11.6173 13.2531 11.6173 11.5704C11.6173 9.88774 12.9816 8.52347 14.6643 8.52347ZM6.2852 10.8087C6.70568 10.8087 7.04694 11.1499 7.04694 11.5704C7.04694 11.9909 6.70568 12.3321 6.2852 12.3321C5.86473 12.3321 5.52347 11.9909 5.52347 11.5704C5.52347 11.1499 5.86473 10.8087 6.2852 10.8087ZM13.9026 10.8087C13.4821 10.8087 13.1408 11.1499 13.1408 11.5704C13.1408 11.9909 13.4821 12.3321 13.9026 12.3321H15.426C15.8465 12.3321 16.1878 11.9909 16.1878 11.5704C16.1878 11.1499 15.8465 10.8087 15.426 10.8087H13.9026Z" fill="#2A343D"/>
</svg>
