<svg width="24" height="24" viewBox="0 0 24 24" fill="none" xmlns="http://www.w3.org/2000/svg">
<path d="M14.6643 7C12.4088 7 10.5387 8.65982 10.1655 10.8087H8.4272C8.08975 9.88088 7.25108 9.2852 6.2852 9.2852C5.02301 9.2852 4 10.3082 4 11.5704C4 12.8326 5.02301 13.8556 6.2852 13.8556C7.25108 13.8556 8.08823 13.2561 8.4272 12.3321H10.1655C10.5387 14.481 12.4088 16.1408 14.6643 16.1408C17.1887 16.1408 19.2347 14.0948 19.2347 11.5704C19.2347 9.04602 17.1887 7 14.6643 7ZM14.6643 8.52347C16.347 8.52347 17.7112 9.88774 17.7112 11.5704C17.7112 13.2531 16.347 14.6173 14.6643 14.6173C12.9816 14.6173 11.6173 13.2531 11.6173 11.5704C11.6173 9.88774 12.9816 8.52347 14.6643 8.52347ZM14.6643 10.0469C14.304 10.0469 14.0214 10.3288 14.0214 10.6898V10.9275H13.7837C13.4227 10.9275 13.1408 11.2101 13.1408 11.5704C13.1408 11.9307 13.4227 12.2133 13.7837 12.2133H14.0214V12.451C14.0214 12.812 14.304 13.0939 14.6643 13.0939C15.0246 13.0939 15.3072 12.812 15.3072 12.451V12.2133H15.5449C15.9059 12.2133 16.1878 11.9307 16.1878 11.5704C16.1878 11.2101 15.9059 10.9275 15.5449 10.9275H15.3072V10.6898C15.3072 10.3288 15.0246 10.0469 14.6643 10.0469ZM6.2852 10.8087C6.70568 10.8087 7.04694 11.1499 7.04694 11.5704C7.04694 11.9909 6.70568 12.3321 6.2852 12.3321C5.86473 12.3321 5.52347 11.9909 5.52347 11.5704C5.52347 11.1499 5.86473 10.8087 6.2852 10.8087Z" fill="#2A343D"/>
</svg>
