<svg width="24" height="24" viewBox="0 0 24 24" fill="none" xmlns="http://www.w3.org/2000/svg">
<path fill-rule="evenodd" clip-rule="evenodd" d="M15.064 11.779L15.064 17.077 16.035 17.077 17.007 17.077 17.007 16.768C17.007 16.6 17.033 16.459 17.06 16.459 17.086 16.459 17.272 16.556 17.475 16.671 18.914 17.519 20.962 17.236 22.216 16.018 22.755 15.497 23.02 15.064 23.311 14.269 24 12.353 23.064 10.075 21.21 9.174 20.009 8.592 18.773 8.592 17.607 9.166L17.007 9.466 17.007 7.974 17.007 6.481 16.035 6.481 15.064 6.481 15.064 11.779ZM20.397 10.879C21.81 11.647 22.004 13.678 20.768 14.755 19.647 15.744 17.863 15.355 17.192 13.969 16.795 13.139 17.033 11.823 17.678 11.241 18.128 10.852 18.243 10.781 18.667 10.667 19.223 10.508 19.859 10.587 20.397 10.879Z M4.318 8.821C3.532 8.998 2.79 9.422 2.216 10.022 0 12.344 1.086 16.23 4.159 17.033 5.581 17.404 6.932 17.015 8 15.938 8.883 15.046 9.227 14.199 9.236 12.918 9.245 10.287 6.799 8.256 4.318 8.821ZM6.26 10.879C7.921 11.779 7.823 14.305 6.11 15.099 4.565 15.823 2.834 14.675 2.843 12.936 2.852 12.203 3.099 11.647 3.656 11.161 4.397 10.499 5.377 10.393 6.26 10.879Z M11.744 8.962C11.311 9.086 10.64 9.572 10.322 9.996 9.801 10.684 9.766 10.958 9.766 14.181L9.766 17.077 10.737 17.077 11.709 17.077 11.726 14.004 11.753 10.94 13.148 10.914 14.534 10.887 14.534 9.881 14.534 8.865 13.28 8.874C12.583 8.874 11.894 8.918 11.744 8.962Z" fill="black"/>
</svg>
