<svg width="24" height="24" viewBox="0 0 24 24" fill="none" xmlns="http://www.w3.org/2000/svg">
<path d="M3.81025 7.24579V14.78C3.81025 15.5831 4.24897 16.3182 4.95659 16.6994L10.7767 19.8333C11.1004 20.0075 11.4551 20.0951 11.8098 20.0951C12.1645 20.0951 12.5201 20.0084 12.8429 19.8333L18.663 16.6994C19.3706 16.3182 19.8093 15.5831 19.8093 14.78V7.24579C19.8093 6.99635 19.6784 6.76638 19.4644 6.63813C19.4502 6.63017 19.4352 6.62663 19.421 6.61955L19.4228 6.61513L12.7995 3.23716C12.1804 2.92139 11.4392 2.92051 10.8191 3.23716L4.19585 6.61513L4.19762 6.61955C4.18347 6.62663 4.16755 6.63017 4.15428 6.63813C3.94023 6.7655 3.80933 6.99635 3.80933 7.24579H3.81025ZM8.14877 6.1879C8.15762 6.19321 8.16469 6.1994 8.17354 6.20382L13.9839 9.19799L12.1733 10.1727C11.9468 10.2948 11.6753 10.2948 11.448 10.1727L6.04182 7.26189L8.14874 6.1872L8.14877 6.1879ZM5.62786 15.4532C5.38018 15.3197 5.22541 15.0614 5.22541 14.7801V8.43014L10.7767 11.4189C10.882 11.4755 10.9917 11.5197 11.1022 11.5577V18.4013L5.627 15.4531L5.62786 15.4532ZM18.395 14.7801C18.395 15.0614 18.2411 15.3196 17.9926 15.4532L12.5173 18.4014V11.5578C12.6288 11.5198 12.7376 11.4756 12.8428 11.419L15.1337 10.186V11.9046C15.1337 12.2955 15.4503 12.6122 15.8413 12.6122C16.2323 12.6122 16.5489 12.2955 16.5489 11.9046V9.42441L18.394 8.4311V14.781L18.395 14.7801ZM11.4622 4.49763C11.6798 4.38706 11.9399 4.38706 12.1574 4.49763L17.5779 7.26264L15.494 8.38508L9.69764 5.39816L11.4622 4.49763Z" fill="black"/>
<path d="M9.04741 12.1549L7.65696 11.4066C7.31289 11.2217 6.88388 11.35 6.69814 11.694C6.51327 12.0381 6.64153 12.4671 6.9856 12.6529L8.37605 13.4012C8.48308 13.4587 8.59718 13.4861 8.71041 13.4861C8.9625 13.4861 9.20574 13.3516 9.33399 13.1137C9.51885 12.7696 9.3906 12.3406 9.04653 12.1549H9.04741Z" fill="black"/>
</svg>
