<svg width="24" height="24" viewBox="0 0 24 24" fill="none" xmlns="http://www.w3.org/2000/svg">
<path d="M18.0683 6.04277C17.7918 5.97498 17.4775 5.98565 17.0924 6.09001C14.8611 6.69483 5.99155 9.57722 5.26166 9.9002C4.46618 10.2521 4.00716 10.8722 4.00008 11.6857C3.99063 12.7735 4.86739 13.6274 5.90441 13.5908C5.93778 13.59 7.22092 13.6076 7.95157 13.6152C7.95157 13.6152 8.60377 16.8762 8.61954 16.915C8.8099 17.3827 9.25643 17.5221 9.64163 17.3538L11.8079 16.4009C12.0531 16.6423 13.7018 18.2351 13.8788 18.3776C14.4064 18.8011 14.8623 18.9344 15.4261 18.9489C16.3339 18.9725 17.1268 18.4385 17.5446 17.5678C17.8069 17.0217 19.0293 9.37309 19.1396 8.6144C19.3147 7.4101 19.2751 6.93706 18.7825 6.44726C18.5845 6.25073 18.3449 6.10981 18.0683 6.04277ZM17.7112 7.51978C17.7112 7.51978 17.7482 7.6546 17.6399 8.39958C17.2521 11.0672 16.333 16.525 16.1402 16.9722C16.0085 17.2784 15.7446 17.433 15.4499 17.4246C15.1905 17.4178 15.0614 17.3721 14.831 17.187C14.7124 17.0918 14.1791 16.5852 13.4265 15.8532C13.4171 15.844 11.9255 14.3883 11.9255 14.3883C11.7801 14.2436 11.6434 14.1575 11.3571 14.1545C11.1905 14.1545 10.9708 14.2809 10.9708 14.2809L9.82529 15.2506L9.42743 13.3052L14.212 11.2576C14.5985 11.0916 14.783 10.6437 14.6168 10.2575C14.4506 9.87049 14.0035 9.68616 13.617 9.85222L8.42766 12.091C8.13218 12.0894 5.93039 12.0643 5.8568 12.0673C5.68732 12.0727 5.52164 11.9066 5.52355 11.6857C5.52507 11.509 5.60299 11.4039 5.88057 11.2812C6.52393 10.9964 15.2864 8.1543 17.4491 7.56852C17.6531 7.51292 17.7112 7.51978 17.7112 7.51978Z" fill="#2A343D"/>
</svg>
