<svg width="24" height="24" viewBox="0 0 24 24" fill="none" xmlns="http://www.w3.org/2000/svg">
<path d="M17.961 12.1251C17.8575 12.0329 17.7274 11.9868 17.571 11.9868C17.364 11.9868 17.1905 12.0581 17.0508 12.2007C16.911 12.3433 16.8411 12.5182 16.8411 12.7249C16.8411 12.8817 16.8914 13.0047 16.9921 13.0941C17.0928 13.1836 17.2242 13.2283 17.3864 13.2283C17.5878 13.2283 17.7597 13.1584 17.9023 13.0186C18.0449 12.8788 18.1162 12.7082 18.1163 12.5069C18.1162 12.3447 18.0644 12.2174 17.961 12.1251ZM8.43128 12.1251C8.32772 12.0329 8.19769 11.9868 8.04116 11.9868C7.83418 11.9868 7.66077 12.0581 7.52108 12.2007C7.38121 12.3433 7.31131 12.5182 7.31131 12.7249C7.31131 12.8817 7.36021 13.0047 7.45816 13.0941C7.55592 13.1836 7.68598 13.2283 7.84826 13.2283C8.05503 13.2283 8.2299 13.1599 8.37254 13.0227C8.51516 12.8858 8.58646 12.7138 8.58646 12.5069C8.58646 12.3447 8.53467 12.2174 8.43128 12.1251Z" fill="black"/>
<path d="M20.5897 6H3.41026C2.63264 6 2 6.63264 2 7.41026V17.4359C2 18.2135 2.63264 18.8462 3.41026 18.8462H20.5897C21.3673 18.8462 22 18.2135 22 17.4359V7.41026C22 6.63264 21.3673 6 20.5897 6ZM5.09685 12.6076C5.08008 12.6076 5.04087 12.6049 4.97941 12.5993C4.91782 12.5937 4.86469 12.5909 4.82 12.5909C4.77518 12.5909 4.72772 12.5951 4.67738 12.6034C4.62705 12.6118 4.58508 12.6301 4.55156 12.658C4.518 12.686 4.49833 12.7224 4.49282 12.7671L4.34185 13.6898C4.33056 13.7961 4.2691 13.8492 4.15728 13.8492H3.51974C3.48618 13.8492 3.45818 13.8353 3.43587 13.8072C3.41346 13.7793 3.40505 13.7485 3.41072 13.7149L3.95597 10.2923C3.96713 10.1861 4.02585 10.1329 4.1321 10.1329H5.47433C5.82103 10.1329 6.10203 10.2072 6.31741 10.3552C6.53267 10.5035 6.64041 10.7426 6.64041 11.0725C6.64041 11.5535 6.50328 11.9296 6.22933 12.2008C5.95526 12.4721 5.57777 12.6076 5.09685 12.6076ZM9.57644 11.5003L9.23251 13.6897C9.21574 13.7961 9.15413 13.8491 9.04797 13.8491H8.46915C8.39644 13.8491 8.3601 13.8045 8.3601 13.7149C8.3601 13.6646 8.37123 13.6059 8.39367 13.5388C8.293 13.6507 8.15877 13.7402 7.991 13.8073C7.82326 13.8743 7.66097 13.9079 7.50446 13.9079C7.18005 13.9079 6.92146 13.8102 6.72851 13.6143C6.53556 13.4186 6.43908 13.1558 6.43908 12.8258C6.43908 12.4176 6.58023 12.0624 6.86269 11.7604C7.1451 11.4584 7.48767 11.3074 7.89033 11.3074C8.27062 11.3074 8.53628 11.4193 8.68728 11.6429C8.70408 11.4584 8.75151 11.3661 8.82992 11.3661H9.46746C9.50097 11.3661 9.5289 11.3801 9.55131 11.408C9.57359 11.436 9.58195 11.4667 9.57644 11.5003ZM10.6754 14.7132H10.0295C9.95674 14.7132 9.92044 14.6769 9.92044 14.6041C9.92044 14.5594 10.1497 14.2239 10.6083 13.5975C10.6027 13.5753 10.537 13.3794 10.4112 13.0104C10.2939 12.6663 10.1765 12.3224 10.0589 11.9784C9.94985 11.6597 9.89531 11.4948 9.89531 11.4835C9.89531 11.4556 9.90644 11.429 9.92887 11.4038C9.9511 11.3787 9.97626 11.3661 10.0043 11.3661H10.6335C10.7285 11.3661 10.79 11.4109 10.8181 11.5003L11.1872 12.7586L12.0764 11.4499C12.1154 11.3942 12.1657 11.3661 12.2274 11.3661H12.8733C12.9012 11.3661 12.9264 11.3787 12.9488 11.4038C12.9711 11.429 12.9823 11.4556 12.9823 11.4835C12.9823 11.5116 12.9767 11.5311 12.9656 11.5422L10.8265 14.6294C10.7872 14.6853 10.7369 14.7132 10.6754 14.7132ZM14.6265 12.6076C14.6098 12.6076 14.5705 12.6049 14.509 12.5993C14.4475 12.5937 14.3944 12.5909 14.3497 12.5909C14.3048 12.5909 14.2574 12.5951 14.2071 12.6034C14.1567 12.6118 14.1148 12.6301 14.0812 12.658C14.0476 12.686 14.0281 12.7224 14.0225 12.7671L13.8715 13.7402C13.8491 13.8129 13.8043 13.8492 13.7373 13.8492H13.0494C13.0158 13.8492 12.9877 13.8353 12.9655 13.8072C12.9431 13.7793 12.9347 13.7485 12.9404 13.7149L13.4856 10.2923C13.4967 10.1861 13.5583 10.1329 13.6702 10.1329H15.004C15.3508 10.1329 15.6317 10.2072 15.8471 10.3552C16.0624 10.5035 16.1701 10.7426 16.1701 11.0725C16.1701 11.5535 16.033 11.9296 15.759 12.2008C15.4849 12.4721 15.1075 12.6076 14.6265 12.6076ZM19.1062 11.5003L18.7622 13.6897C18.7455 13.7961 18.6838 13.8491 18.5777 13.8491H17.9989C17.9261 13.8491 17.8898 13.8045 17.8898 13.7149C17.8898 13.6927 17.8953 13.6591 17.9066 13.6143C17.9177 13.5695 17.9234 13.5444 17.9234 13.5388C17.8282 13.6507 17.6968 13.7402 17.5291 13.8073C17.3613 13.8743 17.1963 13.9079 17.0342 13.9079C16.7097 13.9079 16.4511 13.8102 16.2581 13.6143C16.0652 13.4186 15.9687 13.1558 15.9687 12.8258C15.9687 12.4176 16.1099 12.0624 16.3924 11.7604C16.6747 11.4584 17.0173 11.3074 17.42 11.3074C17.8059 11.3074 18.0714 11.4193 18.217 11.6429C18.2337 11.4584 18.2812 11.3661 18.3595 11.3661H18.9971C19.0306 11.3661 19.0585 11.3801 19.0809 11.408C19.1033 11.436 19.1117 11.4667 19.1062 11.5003ZM20.591 10.2587L20.0457 13.6898C20.0344 13.7962 19.9757 13.8492 19.8696 13.8492H19.3158C19.2823 13.8492 19.2543 13.8366 19.232 13.8115C19.2096 13.7863 19.1984 13.7598 19.1984 13.7318L19.2068 13.715L19.7521 10.2253C19.7632 10.1637 19.7995 10.133 19.8612 10.133H20.4819C20.5545 10.133 20.591 10.1721 20.591 10.2504L20.591 10.2587Z" fill="black"/>
<path d="M15.0711 11.0011C15.004 10.9424 14.934 10.9075 14.8614 10.8963C14.7886 10.8851 14.6907 10.8795 14.5677 10.8795H14.4168C14.3552 10.8795 14.3188 10.9103 14.3078 10.9717L14.1651 11.8694L14.4336 11.861C14.6796 11.861 14.8642 11.8191 14.9873 11.7352C15.1102 11.6512 15.1718 11.4919 15.1718 11.257C15.1718 11.1452 15.1383 11.0598 15.0711 11.0011ZM5.52474 10.976C5.42408 10.9118 5.26179 10.8795 5.0382 10.8795H4.87874C4.8172 10.8795 4.78087 10.9103 4.76972 10.9718L4.62708 11.8694L4.90392 11.861C5.122 11.861 5.28977 11.8304 5.40723 11.7687C5.52467 11.7072 5.59728 11.5786 5.62533 11.3829C5.65892 11.176 5.62536 11.0403 5.52474 10.976Z" fill="black"/>
</svg>
