<svg width="24" height="24" viewBox="0 0 24 24" fill="none" xmlns="http://www.w3.org/2000/svg">
<path d="M16.6335 10.9709C16.5833 10.9206 16.5314 10.8688 16.4804 10.8177C16.4402 10.7775 16.3992 10.7365 16.3605 10.6979C15.6164 9.95379 14.8716 9.20896 14.1268 8.46417C13.8546 8.19191 13.5792 7.91889 13.307 7.64432C13.2142 7.5515 13.1213 7.45869 13.0301 7.36588L12.7578 7.09363L11.7461 8.10531C11.2589 8.59258 10.7716 9.07986 10.2843 9.56713C9.72744 10.124 9.1721 10.6794 8.61753 11.2339C8.06219 11.7893 7.50762 12.3438 6.95307 12.8984L5.50671 14.3447C5.16795 14.6835 4.82994 15.0215 4.49194 15.3595L4.21351 15.6379C4.10678 15.7447 4.01396 15.8298 4.00854 16.003C3.9892 16.5058 4.00854 17.0124 4.01008 17.5151C4.01008 18.1726 4.01163 18.8284 4.01163 19.4859V19.6034C4.01163 19.8123 4.18798 19.9902 4.39835 19.9902C4.89954 19.9902 5.39997 19.9902 5.90039 19.9917C6.55937 19.9917 7.2168 19.9933 7.87657 19.9933C7.9369 19.9933 7.99258 19.9948 8.05059 19.9871C8.14727 19.9731 8.22694 19.9252 8.29424 19.8594C8.35766 19.796 8.42186 19.7318 8.48605 19.6676C8.77997 19.3737 9.07232 19.0814 9.36624 18.7874C9.82103 18.3326 10.275 17.8786 10.7291 17.4246C11.272 16.8817 11.8158 16.3379 12.361 15.7926C12.9241 15.2296 13.4841 14.6696 14.0472 14.1065C14.5561 13.5976 15.0666 13.0871 15.5747 12.579C15.9591 12.1946 16.3443 11.8094 16.7287 11.425C16.789 11.3646 16.8509 11.3028 16.9128 11.2432C16.8177 11.155 16.7264 11.0637 16.6335 10.9709Z" fill="black"/>
<path d="M19.6702 6.90262L17.6159 4.84833C17.4519 4.68436 17.2848 4.51961 17.1209 4.35332C17.0226 4.2551 16.912 4.16615 16.7844 4.10736C16.4441 3.95267 16.0202 3.95654 15.7055 4.17543C15.5337 4.29531 15.3899 4.45774 15.2414 4.6047L14.4927 5.35339C14.1872 5.65891 13.8801 5.96287 13.5738 6.26762L17.182 9.87584C17.2733 9.96711 17.3638 10.0576 17.4543 10.1481L17.7266 10.4203L19.3872 8.75975C19.4823 8.66461 19.5743 8.57258 19.6695 8.47744L19.6834 8.46351C19.6896 8.45733 19.6927 8.45423 19.6989 8.44804C20.1126 8.00871 20.0971 7.33267 19.6702 6.90262Z" fill="black"/>
</svg>
