<svg width="24" height="24" viewBox="0 0 24 24" fill="none" xmlns="http://www.w3.org/2000/svg">
<path d="M9.09597 11.363C9.87925 11.363 10.5857 10.8909 10.8853 10.1676C11.1856 9.44359 11.0197 8.61004 10.4658 8.05621C9.91196 7.50235 9.07845 7.33649 8.35449 7.63673C7.63113 7.93636 7.159 8.64277 7.159 9.42606C7.16021 10.4956 8.02639 11.3618 9.09597 11.363ZM9.09597 8.78015C9.35686 8.78015 9.59232 8.93753 9.69221 9.17905C9.79269 9.41997 9.737 9.69782 9.55238 9.88244C9.36777 10.0671 9.08992 10.1227 8.849 10.0223C8.60748 9.92238 8.45011 9.68691 8.45011 9.42602C8.45071 9.06949 8.73944 8.78076 9.09597 8.78015ZM14.5742 12.9672C13.7909 12.9672 13.0845 13.4393 12.7848 14.1627C12.4846 14.8866 12.6504 15.7202 13.2043 16.274C13.7582 16.8279 14.5917 16.9937 15.3156 16.6935C16.039 16.3938 16.5111 15.6874 16.5111 14.9042C16.5099 13.8346 15.6437 12.9684 14.5742 12.9672ZM14.5742 15.55C14.3133 15.55 14.0778 15.3927 13.9779 15.1511C13.8774 14.9102 13.9331 14.6324 14.1177 14.4478C14.3024 14.2631 14.5802 14.2075 14.8211 14.308C15.0626 14.4079 15.22 14.6433 15.22 14.9042C15.2194 15.2607 14.9307 15.5494 14.5742 15.55ZM16.8115 7.18886C16.6904 7.0678 16.5264 7 16.3551 7C16.1838 7 16.0191 7.06779 15.8981 7.18886L6.85889 16.2281V16.2287C6.73661 16.3491 6.6676 16.5137 6.667 16.6856C6.66639 16.8575 6.73479 17.0228 6.85586 17.1445C6.97753 17.2656 7.14279 17.334 7.31469 17.3334C7.4866 17.3327 7.65124 17.2637 7.7717 17.1414L16.8115 8.10166C16.9325 7.9806 17.0004 7.81656 17.0004 7.64525C17.0004 7.47395 16.9325 7.30992 16.8115 7.18886Z" fill="black"/>
</svg>
