<svg width="24" height="24" viewBox="0 0 24 24" fill="none" xmlns="http://www.w3.org/2000/svg">
<path d="M16.183 4C15.4262 4 14.6605 4.26128 14.112 4.80897C13.7044 5.21726 11.7603 7.16119 10.8509 8.0707L10.6366 7.85591C10.4879 7.70737 10.2841 7.64186 10.0892 7.64186C9.89423 7.64186 9.69039 7.70737 9.54162 7.85591C9.24416 8.15375 9.24416 8.6542 9.54162 8.95127L10.1368 9.54619L4.97121 14.7115C4.88765 14.7953 4.84202 14.9096 4.80462 15.0215C4.7094 15.3072 4.1381 17.0211 4.04289 17.3067C3.95163 17.5802 4.00548 17.8879 4.20948 18.0921L4.97121 18.8538C5.17528 19.058 5.48302 19.1113 5.75679 19.0206L8.04199 18.2589C8.1542 18.2216 8.26777 18.1759 8.35141 18.0921L13.517 12.9268L14.112 13.5217C14.4096 13.8195 14.9096 13.8195 15.207 13.5217C15.5046 13.2238 15.5045 12.7242 15.207 12.4263L14.9928 12.2123L18.254 8.95127C19.3508 7.85438 19.3508 5.90663 18.254 4.80897C17.7056 4.26128 16.9399 4 16.183 4ZM16.183 5.52347C16.55 5.52347 16.9081 5.65373 17.159 5.90434C17.6609 6.40632 17.6609 7.35469 17.159 7.85591L13.8978 11.1176L11.9459 9.16533C12.8552 8.25581 14.7994 6.31186 15.207 5.90434C15.4579 5.65373 15.8161 5.52347 16.183 5.52347ZM11.2318 10.6416L12.422 11.855L7.35163 16.9015L5.75679 17.4492L5.63773 17.3304C5.81262 16.8055 6.03711 16.0849 6.16142 15.7117L11.2318 10.6416Z" fill="#2A343D"/>
</svg>
