<svg width="24" height="24" viewBox="0 0 24 24" fill="none" xmlns="http://www.w3.org/2000/svg">
<path d="M13.9583 6.55236L12.6067 6.42121L12.0617 5.15651C11.9961 5.02536 11.8436 4.96063 11.7125 5.02536C11.6469 5.0475 11.6035 5.11223 11.5813 5.15651L11.0363 6.42121L9.68472 6.55236C9.53228 6.5745 9.42327 6.7048 9.44455 6.83596C9.44455 6.90154 9.48798 6.96711 9.53142 7.01055L10.5559 7.90478L10.2511 9.23505C10.2076 9.3875 10.3166 9.51865 10.4469 9.56208C10.5125 9.58423 10.5781 9.56208 10.6428 9.53994L11.8198 8.84245L12.9967 9.53994C13.1279 9.62681 13.2803 9.58338 13.3672 9.45307C13.4106 9.3875 13.4106 9.32192 13.3893 9.23505L13.0845 7.90478L14.109 7.01055C14.218 6.90154 14.218 6.7491 14.109 6.64009C14.0673 6.5958 14.0026 6.55236 13.9583 6.55236Z" fill="black"/>
<path d="M6.78576 18.0852V15.687H8.96597V18.0852H10.7101V12.8527H12.8903V18.0852H14.6345V15.0329H16.8147V18.0852H18.5589V14.5969C18.5589 13.8772 17.9704 13.2887 17.2507 13.2887H14.6345V12.4167C14.6345 11.697 14.046 11.1085 13.3264 11.1085H10.2741C9.55445 11.1085 8.96597 11.697 8.96597 12.4167V13.9428H6.34972C5.63008 13.9428 5.0416 14.5313 5.0416 15.2509V18.0852H6.78576Z" fill="black"/>
</svg>
