<svg width="24" height="24" viewBox="0 0 24 24" fill="none" xmlns="http://www.w3.org/2000/svg">
<path d="M9.2852 4C8.86473 4 8.52347 4.34126 8.52347 4.76173V7.04694C8.35589 7.04694 7.85695 7.04694 7.76173 7.04694C7.34126 7.04694 7 7.3882 7 7.80867V11.6173C7 13.3 8.36427 14.6643 10.0469 14.6643H11.5704V16.5686C11.5704 17.1993 11.0585 17.7112 10.4278 17.7112H8.52347C8.10299 17.7112 7.76173 18.0525 7.76173 18.473C7.76173 18.8934 8.10299 19.2347 8.52347 19.2347H10.4278C11.9002 19.2347 13.0939 18.0411 13.0939 16.5686V14.6643H14.6173C16.3 14.6643 17.6643 13.3 17.6643 11.6173V7.80867C17.6643 7.3882 17.323 7.04694 16.9026 7.04694C16.8073 7.04694 16.3084 7.04694 16.1408 7.04694V4.76173C16.1408 4.34126 15.7996 4 15.3791 4C14.9586 4 14.6173 4.34126 14.6173 4.76173V7.04694C12.975 7.04694 11.6892 7.04694 10.0469 7.04694V4.76173C10.0469 4.34126 9.70568 4 9.2852 4ZM8.52347 8.57041C10.2031 8.57041 14.4612 8.57041 16.1408 8.57041V11.6173C16.1408 12.4591 15.4591 13.1408 14.6173 13.1408H12.3321H10.0469C9.20522 13.1408 8.52347 12.4591 8.52347 11.6173V8.57041Z" fill="#2A343D"/>
</svg>
