<svg width="24" height="24" viewBox="0 0 24 24" fill="none" xmlns="http://www.w3.org/2000/svg">
<path fill-rule="evenodd" clip-rule="evenodd" d="M13 9V7C13 6.44772 12.5523 6 12 6C11.4477 6 11 6.44772 11 7V9H9C8.44772 9 8 9.44772 8 10C8 10.5523 8.44772 11 9 11H11V13C11 13.5523 11.4477 14 12 14C12.5523 14 13 13.5523 13 13V11H15C15.5523 11 16 10.5523 16 10C16 9.44772 15.5523 9 15 9H13ZM16 17C16 17.5523 15.5523 18 15 18H9C8.44772 18 8 17.5523 8 17C8 16.4477 8.44772 16 9 16H15C15.5523 16 16 16.4477 16 17Z" fill="black"/>
</svg>
