<svg width="24" height="24" viewBox="0 0 24 24" fill="none" xmlns="http://www.w3.org/2000/svg">
<path d="M12 5C8.12542 5 5 8.12542 5 12C5 15.8746 8.12542 19 12 19C15.8746 19 19 15.8746 19 12C19 8.12542 15.8746 5 12 5ZM12 17.6653C8.87458 17.6653 6.33472 15.1254 6.33472 12C6.33472 8.87458 8.87458 6.33472 12 6.33472C15.1254 6.33472 17.6653 8.87458 17.6653 12C17.6653 15.1254 15.1254 17.6653 12 17.6653Z" fill="black"/>
<path d="M14.7672 11.5604H12.6676V9.33032C12.6676 8.95577 12.3744 8.66261 11.9999 8.66261C11.6253 8.66261 11.3322 8.95577 11.3322 9.33032V11.5604H9.33033C8.95578 11.5604 8.66263 11.8535 8.66263 12.2281C8.66263 12.6026 8.95578 12.8958 9.33033 12.8958H11.3328V14.8983C11.3328 15.2728 11.626 15.566 12.0005 15.566C12.3751 15.566 12.6682 15.2728 12.6682 14.8983L12.6676 12.8951H14.7673C15.1418 12.8951 15.435 12.602 15.435 12.2274C15.435 11.8694 15.1253 11.5604 14.7672 11.5604Z" fill="black"/>
</svg>
