<svg width="24" height="24" viewBox="0 0 24 24" fill="none" xmlns="http://www.w3.org/2000/svg">
<path d="M18.0109 17.25V13.3646C18.4433 13.033 18.6957 12.5306 18.6957 11.9999V10.2499C18.6948 9.3903 18.043 8.65972 17.1576 8.52385C17.4634 7.71977 17.3404 6.82256 16.8286 6.1211C16.3168 5.41956 15.4804 5.00085 14.587 5C13.5375 5.00171 12.5397 5.43579 11.8478 6.19201C11.1559 5.43579 10.1582 5.00171 9.1087 5C8.21526 5.00085 7.37892 5.41956 6.86711 6.1211C6.3553 6.82263 6.23227 7.71985 6.53809 8.52385C5.65269 8.65971 5.00089 9.3903 5 10.2499V11.9999C5 12.5306 5.25234 13.033 5.68478 13.3646V17.25C5.68478 17.714 5.87738 18.1592 6.21978 18.4873C6.56219 18.8154 7.02673 19 7.51087 19H16.1848C16.669 19 17.1335 18.8154 17.4759 18.4873C17.8183 18.1592 18.0109 17.714 18.0109 17.25ZM9.1087 10.25H10.9348V12H6.82609V10.25H9.1087ZM12.7609 10.25H16.8696V12H12.7609V10.25ZM14.587 6.74998C15.0916 6.74998 15.5 7.14135 15.5 7.62498C15.5 8.10862 15.0916 8.49998 14.587 8.49998H12.7609C12.7609 7.53354 13.5785 6.74998 14.587 6.74998ZM9.1087 6.74998C9.59287 6.74998 10.0574 6.93455 10.3998 7.26269C10.7422 7.59082 10.9348 8.03601 10.9348 8.49998H9.1087C8.60404 8.49998 8.19566 8.10862 8.19566 7.62498C8.19566 7.14135 8.60404 6.74998 9.1087 6.74998ZM7.51087 17.25V13.75H10.9348V17.25H7.51087ZM12.7609 13.75H16.1848V17.25H12.7609V13.75Z" fill="black"/>
</svg>
