<svg width="24" height="24" viewBox="0 0 24 24" fill="none" xmlns="http://www.w3.org/2000/svg">
<path d="M12.1528 15.2208L13.5483 13.7716L9.98035 10.0665C9.09681 9.14893 9.09681 7.65391 9.98035 6.73638C10.8639 5.81886 12.3035 5.81886 13.1871 6.73638L16.755 10.4416L18.1505 8.99241L14.5826 5.28723C12.9298 3.57092 10.2376 3.57092 8.58488 5.28723C6.93214 7.00354 6.93214 9.79929 8.58488 11.5156L12.1528 15.2208Z" fill="black"/>
<path d="M12.2861 7.68082C11.9015 7.28142 11.2753 7.28142 10.8907 7.68082C10.5061 8.08021 10.5061 8.73057 10.8907 9.12996L15.3603 13.7716L12.1536 17.1016L7.68393 12.46C7.29933 12.0606 6.67305 12.0606 6.28845 12.46C5.90385 12.8594 5.90385 13.5098 6.28845 13.9092L12.1536 19.9999L18.1513 13.7716L12.2861 7.68082Z" fill="black"/>
</svg>
