<svg width="24" height="24" viewBox="0 0 24 24" fill="none" xmlns="http://www.w3.org/2000/svg">
<path fill-rule="evenodd" clip-rule="evenodd" d="M4.99796 11.4818C4.99796 7.90087 7.90087 4.99796 11.4818 4.99796C15.0627 4.99796 17.9656 7.90087 17.9656 11.4818C17.9656 15.0627 15.0627 17.9656 11.4818 17.9656C7.90087 17.9656 4.99796 15.0627 4.99796 11.4818ZM11.4818 3C6.79743 3 3 6.79743 3 11.4818C3 16.1661 6.79743 19.9636 11.4818 19.9636C13.3647 19.9636 15.1044 19.35 16.5117 18.3119L18.9144 20.7083C19.305 21.0979 19.9376 21.0971 20.3272 20.7065C20.7168 20.3159 20.716 19.6833 20.3253 19.2937L17.9702 16.9447C19.2141 15.469 19.9636 13.5629 19.9636 11.4818C19.9636 6.79743 16.1661 3 11.4818 3Z" fill="black"/>
</svg>
