<svg width="24" height="24" viewBox="0 0 24 24" fill="none" xmlns="http://www.w3.org/2000/svg">
<path d="M18.1034 12.5704L18.1137 12.5712L19.1941 12.6842C19.2698 12.6923 19.3395 12.7292 19.3888 12.7872L19.3969 12.7971L19.3866 12.8022C19.4116 12.8337 19.43 12.87 19.4405 12.9088C19.4511 12.9476 19.4537 12.9882 19.4482 13.028C19.2122 14.9046 18.3227 16.6381 16.936 17.9242C15.4971 19.2587 13.607 20.0003 11.6445 20.0002C10.6915 20.0017 9.7464 19.8263 8.8574 19.4827L8.80897 19.4639C8.77304 19.4506 8.74016 19.4302 8.71229 19.404C8.68442 19.3777 8.66214 19.346 8.64678 19.3109L8.64213 19.2997C8.61191 19.2294 8.61012 19.1502 8.63712 19.0786L9.06356 18.0382C9.09127 17.9677 9.14526 17.9107 9.21416 17.8792C9.28306 17.8476 9.36151 17.8441 9.43299 17.8692L9.44283 17.8729C11.6225 18.7145 14.0912 18.2405 15.8043 16.6514C16.8946 15.6495 17.5977 14.296 17.7904 12.8279C17.8002 12.7551 17.8365 12.6886 17.8924 12.641C17.9483 12.5934 18.0197 12.5681 18.0931 12.57L18.1034 12.5704L18.1034 12.5704ZM6.62552 16.4538L6.64068 16.4537L6.65596 16.4538C7.14628 16.4594 7.54108 16.8558 7.54639 17.3444V17.3597C7.54639 17.3647 7.54639 17.3698 7.54627 17.3749C7.53782 17.8751 7.12539 18.2737 6.62516 18.2653C6.12494 18.2567 5.7264 17.8444 5.73479 17.3442C5.74318 16.8541 6.13913 16.4616 6.62552 16.4538ZM4.2977 12.8817H13.1329C13.2108 12.8824 13.2853 12.9133 13.3408 12.9679C13.3963 13.0224 13.4285 13.0964 13.4305 13.1742L13.4306 13.1846V14.2906C13.4313 14.3684 13.4017 14.4435 13.348 14.4999C13.2944 14.5563 13.221 14.5897 13.1432 14.5931L13.1329 14.5933H4.2977C4.21985 14.5927 4.1453 14.5618 4.08977 14.5073C4.03423 14.4527 4.00205 14.3787 4 14.3009V13.1742C4.00202 13.0982 4.03277 13.0258 4.08605 12.9716C4.13934 12.9174 4.21119 12.8854 4.28713 12.882L4.2977 12.8817ZM14.2388 4.44171C14.2767 4.45535 14.3114 4.47647 14.341 4.5038C14.3705 4.53114 14.3943 4.56413 14.4108 4.60082C14.4415 4.67563 14.4415 4.75951 14.4108 4.83433L14.0258 5.86081C14.0002 5.93389 13.9467 5.99384 13.8769 6.02751C13.8072 6.06117 13.7269 6.0658 13.6538 6.04039C12.6622 5.69439 11.5983 5.60968 10.5645 5.79441C9.53076 5.97914 8.56202 6.42709 7.7517 7.09507C6.72465 7.95475 5.99539 9.11689 5.66801 10.4156C5.65155 10.4794 5.6144 10.5359 5.56239 10.5763C5.51038 10.6167 5.44644 10.6387 5.38057 10.6389H5.31385L4.25663 10.3849C4.21763 10.3757 4.1809 10.3587 4.14868 10.3349C4.11647 10.3111 4.08945 10.2809 4.06926 10.2463H4.06413C4.04295 10.2117 4.02906 10.1731 4.02333 10.133C4.0176 10.0928 4.02014 10.0519 4.0308 10.0127C4.45069 8.35024 5.39015 6.86512 6.71248 5.77349C8.81501 4.0425 11.67 3.53733 14.2388 4.44171ZM10.3255 8.87599H19.1608C19.2368 8.87662 19.3098 8.90607 19.365 8.95842C19.4201 9.01076 19.4534 9.08208 19.458 9.15799L19.4585 9.1685V10.2746C19.4591 10.3524 19.4295 10.4275 19.3759 10.4839C19.3223 10.5403 19.2488 10.5738 19.171 10.5771L19.1608 10.5773H10.3255C10.2482 10.576 10.1743 10.5449 10.1194 10.4904C10.0644 10.4359 10.0326 10.3624 10.0306 10.285L10.0304 10.2745V9.17882C10.0298 9.10145 10.059 9.0268 10.112 8.97046C10.1651 8.91412 10.2378 8.88043 10.3151 8.87642L10.3255 8.87599ZM16.4589 5.50152L16.4741 5.5014L16.4894 5.50152C16.9797 5.50713 17.3745 5.90362 17.3798 6.39207V6.40735L17.3797 6.42262C17.3712 6.92285 16.9588 7.32145 16.4586 7.31294C15.9584 7.30448 15.5598 6.89205 15.5683 6.39189C15.5766 5.90181 15.9725 5.50931 16.4589 5.50152H16.4589Z" fill="black"/>
</svg>
