<svg width="24" height="24" viewBox="0 0 24 24" fill="none" xmlns="http://www.w3.org/2000/svg">
<path fill-rule="evenodd" clip-rule="evenodd" d="M17.4913 16.7783C17.2944 17.0582 17.0497 17.2987 16.7741 17.4955L18.2871 18.9999L19 18.2871L17.4956 16.774L17.4913 16.7783Z" fill="black"/>
<path fill-rule="evenodd" clip-rule="evenodd" d="M6.51746 8.7088H16.6252C17.0275 8.7088 17.4125 8.55135 17.6967 8.26289C17.9851 7.97873 18.1426 7.5937 18.1426 7.19145V6.51797C18.1426 6.11571 17.9851 5.73069 17.6967 5.44653C17.4125 5.15807 17.0275 5.00062 16.6252 5.00062L6.51746 5C6.11521 5 5.73449 5.15746 5.44603 5.44591C5.15758 5.73007 5.00012 6.1151 5.00012 6.51735V7.19084C5.00012 7.59309 5.15758 7.97811 5.44603 8.26227C5.73449 8.55073 6.11521 8.70819 6.51746 8.70819V8.7088ZM16.1179 6.34697C16.3978 6.34697 16.6253 6.57024 16.6253 6.8544C16.6253 7.13856 16.3978 7.36183 16.1179 7.36183C15.8381 7.36183 15.6105 7.13426 15.6105 6.8544C15.6105 6.57456 15.8381 6.34697 16.1179 6.34697ZM9.04113 6.34697C9.32098 6.34697 9.54856 6.57024 9.54856 6.8544C9.54856 7.13856 9.32099 7.36183 9.04113 7.36183C8.76128 7.36183 8.53371 7.13426 8.53371 6.8544C8.53371 6.57456 8.76128 6.34697 9.04113 6.34697ZM7.02068 6.34697C7.30053 6.34697 7.52811 6.57024 7.52811 6.8544C7.52811 7.13856 7.30054 7.36183 7.02068 7.36183C6.74082 7.36183 6.51326 7.13426 6.51326 6.8544C6.51326 6.57456 6.74082 6.34697 7.02068 6.34697Z" fill="black"/>
<path fill-rule="evenodd" clip-rule="evenodd" d="M6.51735 13.4282H11.757C12.2773 12.2645 13.4453 11.4558 14.8009 11.4558C15.9947 11.4558 17.0446 12.0856 17.635 13.039C17.6572 13.0261 17.6744 13.0039 17.6965 12.9824C17.985 12.694 18.1424 12.3132 18.1424 11.911V11.2332C18.1424 10.8309 17.985 10.4502 17.6965 10.1617C17.4081 9.87328 17.0274 9.71583 16.6251 9.71583L6.51734 9.71521C6.11509 9.71521 5.73437 9.87267 5.44591 10.1611C5.15745 10.4496 5 10.8303 5 11.2326V11.9104C5 12.3126 5.15745 12.6933 5.44591 12.9818C5.73437 13.266 6.11509 13.4277 6.51734 13.4277L6.51735 13.4282ZM9.04528 11.1015C9.32512 11.1015 9.5527 11.3291 9.5527 11.6089C9.5527 11.8888 9.32514 12.1164 9.04528 12.1164C8.76542 12.1164 8.53785 11.8888 8.53785 11.6089C8.53785 11.3291 8.76542 11.1015 9.04528 11.1015ZM7.02483 11.1015C7.30467 11.1015 7.53225 11.3291 7.53225 11.6089C7.53225 11.8888 7.30468 12.1164 7.02483 12.1164C6.74498 12.1164 6.5174 11.8888 6.5174 11.6089C6.5174 11.3291 6.74497 11.1015 7.02483 11.1015Z" fill="black"/>
<path fill-rule="evenodd" clip-rule="evenodd" d="M11.4593 14.8059C11.4593 14.6835 11.4636 14.5568 11.4815 14.443H6.51743C6.11518 14.443 5.73446 14.6004 5.446 14.8846C5.15755 15.1731 5.00009 15.5538 5.00009 15.9603V16.6338C5.00009 17.0361 5.15755 17.4168 5.446 17.7053C5.73446 17.9937 6.11518 18.1512 6.51743 18.1512L13.5942 18.1518C13.7603 18.1518 13.922 18.1253 14.0752 18.0731C12.5794 17.7409 11.4643 16.4069 11.4643 14.8145L11.4593 14.8059ZM7.01993 16.8177C6.74008 16.8177 6.5125 16.5901 6.5125 16.3103C6.5125 16.0304 6.74007 15.8028 7.01993 15.8028C7.29977 15.8028 7.52735 16.0261 7.52735 16.3103C7.52735 16.5944 7.29978 16.8177 7.01993 16.8177ZM9.04038 16.8177C8.76053 16.8177 8.53295 16.5901 8.53295 16.3103C8.53295 16.0304 8.76052 15.8028 9.04038 15.8028C9.32024 15.8028 9.5478 16.0261 9.5478 16.3103C9.5478 16.5944 9.32024 16.8177 9.04038 16.8177Z" fill="black"/>
<path fill-rule="evenodd" clip-rule="evenodd" d="M14.801 12.4706C13.5063 12.462 12.4614 13.5507 12.4699 14.806C12.4699 16.0921 13.5155 17.1371 14.801 17.1371C16.052 17.1458 17.1363 16.0965 17.1321 14.806C17.145 13.5507 16.0957 12.4614 14.801 12.4706Z" fill="black"/>
</svg>
