<svg width="24" height="24" viewBox="0 0 24 24" fill="none" xmlns="http://www.w3.org/2000/svg">
    <path fill-rule="evenodd" clip-rule="evenodd" d="M12.7002 7.33487V13.8788C12.7002 14.2553 12.3892 14.5607 12 14.5607C11.6135 14.5607 11.2998 14.2553 11.2998 13.8788V7.33241L10.5097 8.1039C10.2387 8.36832 9.79901 8.36768 9.52406 8.09941C9.25041 7.83243 9.25238 7.399 9.51946 7.13777L11.5085 5.19783C11.643 5.06594 11.8196 5 11.9967 5L12.002 5.00192C12.1798 5.00256 12.3564 5.06787 12.4896 5.19783L14.4779 7.13777C14.749 7.4022 14.749 7.83116 14.474 8.09942C14.2004 8.3664 13.7554 8.36448 13.4883 8.1039L12.7002 7.33487ZM6.40042 17.6338H17.5996V12.8505C17.5996 12.4747 17.9107 12.1706 18.2998 12.1706C18.6863 12.1706 19 12.4772 19 12.8505V18.3201C19 18.5076 18.9219 18.6773 18.7959 18.8002C18.668 18.9238 18.4934 19 18.3005 19H5.69955C5.50662 19 5.33271 18.9245 5.20606 18.8015C5.07875 18.676 5 18.5064 5 18.3201V12.8505C5 12.4747 5.31106 12.1706 5.7002 12.1706C6.08672 12.1706 6.4004 12.4773 6.4004 12.8505L6.40042 17.6338Z" fill="black"/>
</svg>