<svg width="24" height="24" viewBox="0 0 24 24" fill="none" xmlns="http://www.w3.org/2000/svg">
<path d="M15.3619 16.3619V8.59049C15.3619 7.15948 14.2025 6 12.7715 6H7.59049C6.15948 6 5 7.15948 5 8.59049V16.3619C5 17.793 6.15948 18.9524 7.59049 18.9524H12.7715C14.2025 18.9524 15.3619 17.793 15.3619 16.3619ZM6.72699 16.3619V8.59049C6.72699 8.11321 7.11321 7.72699 7.59049 7.72699H12.7715C13.0008 7.72699 13.2201 7.81806 13.382 7.97997C13.5439 8.14188 13.635 8.36112 13.635 8.59049V16.3619C13.635 16.5913 13.5439 16.8106 13.382 16.9725C13.2201 17.1344 13.0008 17.2254 12.7715 17.2254H7.59049C7.11321 17.2254 6.72699 16.8392 6.72699 16.3619Z" fill="black"/>
<path d="M18.1365 18.0892C18.3659 18.0892 18.5851 17.9981 18.747 17.8362C18.9089 17.6743 19 17.455 19 17.2257V7.72723C19 7.24996 18.6138 6.86374 18.1365 6.86374C17.6592 6.86374 17.273 7.24996 17.273 7.72723V17.2257C17.273 17.455 17.3641 17.6743 17.526 17.8362C17.6879 17.9981 17.9071 18.0892 18.1365 18.0892Z" fill="black"/>
</svg>
