<svg width="24" height="24" viewBox="0 0 24 24" fill="none" xmlns="http://www.w3.org/2000/svg">
<path d="M11.6396 6C8.75993 6 6.04282 7.22777 4.18891 9.30883C3.90905 9.62289 3.94614 10.1002 4.26036 10.38C4.57442 10.6595 5.05165 10.623 5.33151 10.3085C6.89672 8.55158 9.19511 7.52347 11.6396 7.52347C14.0767 7.52347 16.3278 8.54069 17.9001 10.3085C18.1797 10.623 18.6569 10.6595 18.9713 10.38C19.2857 10.1004 19.3224 9.62312 19.0427 9.30883C17.1828 7.21764 14.5141 6 11.6396 6ZM11.6396 9.04694C9.62861 9.04694 7.76769 9.91524 6.47411 11.4037C6.19814 11.7214 6.228 12.199 6.54556 12.4747C6.86306 12.7505 7.34074 12.7208 7.61672 12.4031C8.62396 11.2445 10.0744 10.5704 11.6396 10.5704C13.1772 10.5704 14.6091 11.2324 15.6149 12.3559C15.8956 12.669 16.3726 12.6842 16.6861 12.4031C16.9995 12.1228 17.0382 11.6452 16.7575 11.3321C15.4656 9.88919 13.615 9.04694 11.6396 9.04694ZM11.6396 12.0939C10.5206 12.0939 9.47779 12.5738 8.75932 13.4033C8.4838 13.7209 8.51274 14.1985 8.83077 14.4743C9.14864 14.75 9.6264 14.7211 9.90192 14.4027C10.334 13.9045 10.9672 13.6173 11.6396 13.6173C12.2972 13.6173 12.8984 13.8992 13.3297 14.3791C13.611 14.6922 14.112 14.7081 14.4247 14.4263C14.7376 14.1452 14.7536 13.6684 14.4723 13.3553C13.755 12.5578 12.7338 12.0939 11.6396 12.0939ZM11.6158 15.1408C11.4316 15.1408 11.2565 15.217 11.116 15.3549C11.116 15.3549 9.9867 16.4678 9.54482 16.9019C9.10301 17.3369 9.38067 18.19 10.0924 18.1878H12.2586H13.1393C13.8389 18.19 14.1341 17.3186 13.6868 16.8783C13.2395 16.438 12.1396 15.3549 12.1395 15.3549C11.9989 15.217 11.8001 15.1408 11.6158 15.1408Z" fill="#2A343D"/>
</svg>
