<svg width="24" height="24" viewBox="0 0 24 24" fill="none" xmlns="http://www.w3.org/2000/svg">
<path d="M12.0939 4C9.15328 4 6.7695 6.38728 6.7695 9.33214C6.7695 10.8244 7.18427 11.7133 8.10056 12.7836C8.14345 12.8338 8.30044 13.025 8.3383 13.0692C8.61587 13.3937 8.74354 13.5468 8.84752 13.7746L6.22281 16.4018C5.92573 16.6996 5.92573 17.1993 6.22281 17.4972C6.51981 17.7943 7.01912 17.7943 7.3162 17.4972L17.9649 6.83289C18.262 6.53505 18.262 6.03536 17.9649 5.73752C17.8165 5.58898 17.613 5.52347 17.4183 5.52347C17.2236 5.52347 17.0068 5.61716 16.8582 5.76646L16.4226 6.22426C15.4355 4.86533 13.8315 4 12.0939 4ZM12.0939 5.52347C13.4209 5.52347 14.6405 6.22503 15.3293 7.3166L9.9547 12.68C9.81751 12.469 9.73273 12.3539 9.5228 12.1087C9.48159 12.0607 9.28102 11.8299 9.24156 11.7842C8.54145 10.9661 8.29077 10.4108 8.29077 9.33214C8.29077 7.22899 9.99347 5.52347 12.0939 5.52347ZM12.0939 7.04694C10.8337 7.04694 9.81203 8.06995 9.81203 9.33214C9.81203 9.75262 10.1525 10.0939 10.5726 10.0939C10.9927 10.0939 11.3333 9.75262 11.3333 9.33214C11.3333 8.91167 11.6738 8.57041 12.0939 8.57041C12.514 8.57041 12.8545 8.22915 12.8545 7.80867C12.8545 7.3882 12.514 7.04694 12.0939 7.04694ZM15.8732 10.9028C15.6825 10.9417 15.4901 11.0377 15.3741 11.2129C15.2587 11.3873 15.1442 11.5526 14.9463 11.7842C14.9067 11.8299 14.726 12.0218 14.6848 12.0698C13.9303 12.9511 13.6151 13.6108 13.6151 14.6643H12.8545C12.4345 14.6643 12.0939 15.0055 12.0939 15.426C12.0939 15.8465 12.4345 16.1878 12.8545 16.1878H13.6151C13.6151 17.0295 12.9341 17.7112 12.0939 17.7112C11.5908 17.7112 11.1784 17.5223 10.9054 17.1635C10.6508 16.8291 10.1699 16.7659 9.83579 17.0211C9.50162 17.2763 9.43855 17.7333 9.69312 18.0685C10.2585 18.8112 11.1233 19.2347 12.0939 19.2347C13.7742 19.2347 15.1364 17.8704 15.1364 16.1878V15.426V14.6643C15.1364 14.045 15.3091 13.7007 15.8495 13.0692C15.8873 13.025 16.0443 12.8338 16.0872 12.7836C16.3223 12.5093 16.5009 12.3067 16.6577 12.0698C16.8897 11.7187 16.7939 11.2312 16.4437 10.9988C16.2686 10.8823 16.064 10.8648 15.8732 10.9028Z" fill="#2A343D"/>
</svg>
