<svg width="24" height="24" viewBox="0 0 24 24" fill="none" xmlns="http://www.w3.org/2000/svg">
<path d="M11.8556 5C11.6271 5 11.3894 5.10665 11.2371 5.30927C10.7046 6.01921 10.0783 6.61793 9.18954 7.30882C8.86961 7.55791 7.70241 8.42018 7.47564 8.59462C5.76836 9.90785 5 10.9865 5 12.6173C5 14.719 6.70507 16.4207 8.80867 16.426C9.0135 16.4268 9.15579 16.4184 9.34189 16.3773C9.29748 16.5494 9.29497 16.586 9.23715 16.7597C9.16082 16.9882 9.08038 17.1885 8.99911 17.3782C8.95165 17.4886 8.89749 17.5816 8.88013 17.6158C8.62685 18.1224 9.00414 18.7112 9.57041 18.7112H14.1408C14.7068 18.7112 15.0846 18.1224 14.8309 17.6158C14.8134 17.5816 14.7593 17.4886 14.7121 17.3782C14.6306 17.1885 14.5506 16.9882 14.4745 16.7597C14.4166 16.586 14.4082 16.5479 14.364 16.3765C14.5483 16.4169 14.6999 16.426 14.9026 16.426C17.0057 16.4291 18.7112 14.722 18.7112 12.6173C18.7112 10.9865 17.9426 9.90785 16.2356 8.59462C16.0086 8.42018 14.8416 7.55791 14.5217 7.30882C13.6327 6.61869 13.0066 6.01921 12.4741 5.30927C12.3218 5.10665 12.0841 5 11.8556 5ZM11.8625 6.95156C12.334 7.46878 12.8634 7.95553 13.5931 8.52302C13.9336 8.78735 15.0747 9.6245 15.2834 9.78446C16.6523 10.8379 17.1878 11.5768 17.1878 12.6173C17.1878 13.8803 16.1632 14.9041 14.9026 14.9026C14.6253 14.9026 14.4006 14.8073 14.2124 14.6649C14.1027 14.5819 14.038 14.5232 14.022 14.4981C13.6107 13.8582 12.6173 14.1423 12.6173 14.9026C12.6173 15.6468 12.7727 16.4245 13.0256 17.1946L10.6825 17.1893C10.9354 16.4192 11.0939 15.6468 11.0939 14.9026C11.0939 14.1454 10.1035 13.8635 9.68939 14.4981C9.67187 14.5247 9.6104 14.5803 9.49896 14.6649C9.3089 14.8081 9.08069 14.9033 8.80867 14.9026C7.54397 14.8995 6.52347 13.878 6.52347 12.6173C6.52347 11.5768 7.05897 10.8379 8.42781 9.78446C8.63629 9.6245 9.77783 8.78735 10.1179 8.52302C10.8478 7.95553 11.3544 7.48858 11.8625 6.95156Z" fill="#2A343D"/>
</svg>
