<svg width="24" height="24" viewBox="0 0 24 24" fill="none" xmlns="http://www.w3.org/2000/svg">
<path d="M16.9495 6C15.8168 6.00229 15.0573 6.84173 14.9736 6.90419C14.5249 7.24164 14.0374 7.55166 13.5217 7.80912C12.4385 8.35072 11.2639 8.68512 10.0939 8.88013C9.68406 8.94868 9.31387 8.99895 8.97489 9.02333C8.77684 9.03704 8.63516 9.04694 8.57041 9.04694H6.9997C5.32008 9.04694 4 10.4074 4 12.0939C4 13.7766 5.36427 15.1408 7.04694 15.1408V15.9026C7.04694 17.1648 8.06995 18.1878 9.33214 18.1878C10.5943 18.1878 11.6173 17.1648 11.6173 15.9026L11.6219 15.6428C12.2633 15.8271 12.9199 16.077 13.5217 16.3786C14.0343 16.6353 14.5272 16.9484 14.9736 17.2828C15.0573 17.3461 15.9059 18.1946 16.9495 18.1878C18.2003 18.1794 19.2347 17.2158 19.2347 15.9978V8.18999C19.2347 6.97198 18.2155 5.99772 16.9495 6ZM16.9495 7.52347C17.3814 7.52347 17.7112 7.83731 17.7112 8.18999V15.9978C17.7112 16.3505 17.3814 16.6643 16.9495 16.6643C16.5176 16.6643 16.1878 16.3505 16.1878 15.9978C16.1878 14.0721 16.1878 10.1157 16.1878 8.18999C16.1878 7.83731 16.5176 7.52347 16.9495 7.52347ZM14.6643 8.9106C14.6643 10.8264 14.6574 13.3424 14.6574 15.2581C14.5005 15.1705 14.3741 15.1027 14.2118 15.022C12.9801 14.4042 11.6661 14.0028 10.3559 13.7842C9.56675 13.6524 8.94061 13.6174 8.57041 13.6174V10.5704C8.94061 10.5704 9.56751 10.5354 10.3559 10.4036C11.6653 10.1857 12.9809 9.78126 14.2118 9.16578C14.3748 9.08427 14.5066 8.99897 14.6643 8.9106ZM6.9997 10.5704H7.04694V13.6174C6.20522 13.6174 5.52347 12.9356 5.52347 12.0939C5.52347 11.24 6.17017 10.5704 6.9997 10.5704ZM8.57041 15.1408C8.63516 15.1408 8.77684 15.1507 8.97489 15.1644C9.31387 15.1888 9.68406 15.2391 10.0939 15.3076V15.9026C10.0939 16.323 9.75262 16.6643 9.33214 16.6643C8.91167 16.6643 8.57041 16.323 8.57041 15.9026V15.1408Z" fill="#2A343D"/>
</svg>
