<svg width="24" height="24" viewBox="0 0 24 24" fill="none" xmlns="http://www.w3.org/2000/svg">
<path d="M11.7176 4.10038L6.38551 7.14732C5.87362 7.43975 5.87362 8.18792 6.38551 8.48035C7.05202 8.86122 11.0511 11.1464 11.7176 11.5273C11.9515 11.6611 12.2448 11.6611 12.4794 11.5273L17.8115 8.48035C18.3234 8.18792 18.3234 7.43975 17.8115 7.14732L12.4794 4.10038C12.2455 3.96654 11.9523 3.96654 11.7176 4.10038ZM12.0985 5.64761L15.8836 7.81383L12.0985 9.98006C11.3124 9.53079 9.59545 8.54647 8.31346 7.81383L12.0985 5.64761ZM6.57594 10.8845C6.38779 10.9359 6.20421 11.059 6.09986 11.2416C5.89114 11.6069 6.02064 12.0803 6.38551 12.289L11.7176 15.336C11.9515 15.4698 12.2448 15.4698 12.4794 15.336L17.8115 12.289C18.1771 12.0803 18.3059 11.6069 18.0972 11.2416C17.8884 10.8764 17.4154 10.7473 17.0498 10.956L12.0985 13.7887L7.14724 10.956C6.96442 10.8516 6.76409 10.8333 6.57594 10.8845ZM6.57594 14.6932C6.38779 14.7446 6.20421 14.8677 6.09986 15.0503C5.89114 15.4156 6.02064 15.889 6.38551 16.0977L11.7176 19.1446C11.9515 19.2785 12.2448 19.2785 12.4794 19.1446L17.8115 16.0977C18.1771 15.889 18.3059 15.4156 18.0972 15.0503C17.8884 14.6851 17.4154 14.556 17.0498 14.7647L12.0985 17.5974L7.14724 14.7647C6.96442 14.6603 6.76409 14.6419 6.57594 14.6932Z" fill="#2A343D"/>
</svg>
