<svg width="24" height="24" viewBox="0 0 24 24" fill="none" xmlns="http://www.w3.org/2000/svg">
<path d="M18.9163 14.9882L16.8068 14.2007L12.7661 15.7008C12.5432 15.7751 12.2908 15.8343 12.0528 15.8343C11.8004 15.8343 11.5625 15.7896 11.3396 15.7008L7.29886 14.2007L5.18942 14.9882C4.93698 15.0775 4.93698 15.4338 5.18942 15.5377L11.711 17.9443C11.9339 18.0186 12.1718 18.0186 12.3947 17.9443L18.9163 15.5377C19.1687 15.4338 19.1687 15.0769 18.9163 14.9882Z" fill="black"/>
<path d="M18.9163 11.7342L16.8068 10.9467L12.7661 12.4323C12.5432 12.5217 12.2908 12.5658 12.0528 12.5658C11.8004 12.5658 11.5625 12.5211 11.3396 12.4323L7.29886 10.9467L5.18942 11.7342C4.93698 11.8236 4.93698 12.1799 5.18942 12.2838L11.711 14.6759C11.9339 14.7653 12.1718 14.7653 12.3947 14.6759L18.9163 12.2694C19.1687 12.18 19.1687 11.8236 18.9163 11.7342Z" fill="black"/>
<path d="M5.18933 9.01533L11.7109 11.4219C11.8148 11.4666 11.9338 11.4811 12.0528 11.4811C12.1717 11.4811 12.2907 11.466 12.3946 11.4219L18.9162 9.01533C19.1686 8.92596 19.1686 8.55454 18.9162 8.46576L12.3946 6.05919C12.2907 6.01451 12.1717 6 12.0528 6C11.9338 6 11.8148 6.01509 11.7109 6.05919L5.18933 8.46576C4.93689 8.55513 4.93689 8.92655 5.18933 9.01533ZM12.0528 7.11417L16.4801 8.74836L12.0528 10.3826L7.62546 8.74836L12.0528 7.11417Z" fill="black"/>
</svg>
