<svg width="24" height="24" viewBox="0 0 24 24" fill="none" xmlns="http://www.w3.org/2000/svg">
<path fill-rule="evenodd" clip-rule="evenodd" d="M10.94 8.75747C10.94 8.07247 11.51 7.80747 12.431 7.80747C13.9553 7.84041 15.451 8.22744 16.8 8.93797V4.80297C15.409 4.25633 13.9254 3.98383 12.431 4.00047C8.881 4.00047 6.5 5.85997 6.5 8.96497C6.5 13.823 13.171 13.034 13.171 15.128C13.171 15.947 12.471 16.201 11.486 16.201C10.0335 16.201 8.1575 15.6 6.686 14.8V18.989C8.201 19.6482 9.83431 19.9922 11.4865 20C15.135 20 17.65 18.1975 17.65 15.0385C17.65 9.79548 10.94 10.731 10.94 8.75747Z" fill="black"/>
</svg>
