<svg width="24" height="24" viewBox="0 0 24 24" fill="none" xmlns="http://www.w3.org/2000/svg">
<path fill-rule="evenodd" clip-rule="evenodd" d="M3 12L3 21 12 21 21 21 21 12 21 3 12 3 3 3 3 12ZM16.78125 10.99425L16.78125 14.77725 12.1545 15.7545C9.6165 16.296 7.46475 16.746 7.38075 16.767L7.21875 16.7955 7.21875 13.02675C7.21875 10.95225 7.2255 9.258 7.23975 9.258 7.2465 9.258 9.35625 8.8005 11.9295 8.238 14.50275 7.683 16.64775 7.2255 16.69725 7.2255 16.76025 7.21875 16.78125 8.0205 16.78125 10.99425Z" fill="black"/>
</svg>
