<svg width="24" height="24" viewBox="0 0 24 24" fill="none" xmlns="http://www.w3.org/2000/svg">
<path d="M4.31121 5.11121C4.19996 5.11121 4.11121 5.19996 4.11121 5.31121V8.84433C4.11121 8.95558 4.19996 9.04433 4.31121 9.04433H6.60001C6.68876 9.04433 6.75563 8.99995 6.80001 8.9112L7.11125 8.1112C7.13376 8.02245 7.2225 7.97808 7.31125 7.97808H10.3556C10.4668 7.97808 10.5556 8.06683 10.5556 8.17808V20.645C10.5556 20.7562 10.6443 20.845 10.7556 20.845H13.2444C13.3556 20.845 13.4444 20.7562 13.4444 20.645V8.2224C13.4444 8.11115 13.5331 8.0224 13.6444 8.0224H16.6887C16.7774 8.0224 16.8443 8.06677 16.8887 8.15552L17.1999 8.95552C17.2224 9.04427 17.3112 9.08865 17.3999 9.08865H19.6887C19.8 9.08865 19.8887 8.9999 19.8887 8.88865V5.31121C19.8887 5.19996 19.8 5.11121 19.6887 5.11121H4.31121Z" fill="black"/>
</svg>
