<svg width="24" height="24" viewBox="0 0 24 24" fill="none" xmlns="http://www.w3.org/2000/svg">
<path d="M10.3823 4.00012C10.2104 3.99949 10.0513 4.08824 9.96407 4.23261L5.06616 12.2969C4.97892 12.4425 4.97763 12.6232 5.06424 12.7694C5.15084 12.9157 5.31058 13.0062 5.48443 13.0056H9.14488L7.46221 19.4106C7.40704 19.6162 7.50006 19.8325 7.6893 19.9381C7.87854 20.0431 8.1172 20.0125 8.27116 19.8619L18.5738 9.84556C18.7117 9.71056 18.7521 9.50868 18.677 9.33307C18.6027 9.15743 18.4269 9.04307 18.2318 9.04307H13.5514L16.3029 4.71876C16.3952 4.57314 16.3997 4.39001 16.3138 4.24064C16.2278 4.09126 16.0655 3.99876 15.8898 4.00001L10.3823 4.00012Z" fill="black"/>
</svg>
