<svg width="24" height="24" viewBox="0 0 24 24" fill="none" xmlns="http://www.w3.org/2000/svg">
<path d="M9.04694 4C7.36419 4 6 5.36426 6 7.04693C6 8.07375 6.50884 8.94137 7.22289 9.48448C6.94318 9.8265 6.76173 10.3285 6.76173 10.8556C6.76173 12.1178 7.78482 13.1408 9.04694 13.1408H9.17377C9.17377 13.1408 9.04526 13.5308 9.04694 13.9025C9.05258 15.1647 10.07 16.1877 11.3321 16.1877H12.0939C12.0939 17.6 13.0703 18.4828 14.5457 18.9254C15.0139 19.0655 15.5064 19.1379 15.9978 19.1867C16.2927 19.2164 16.5215 19.2347 16.6643 19.2347C17.085 19.2347 17.426 18.8934 17.426 18.4729C17.426 18.0524 17.085 17.7112 16.6643 17.7112C16.5691 17.7112 16.3812 17.7112 16.1406 17.6876C15.7393 17.6472 15.3392 17.5588 14.9741 17.4492C14.0691 17.178 13.6173 16.775 13.6173 16.1877H15.1408C15.5615 16.1877 15.9026 15.8465 15.9026 15.426C15.9026 15.0055 15.5615 14.6643 15.1408 14.6643H12.8556H11.3321C10.9114 14.6643 10.5704 14.323 10.5704 13.9025C10.5704 13.482 10.9114 13.1408 11.3321 13.1408H13.6173C13.8277 13.1408 14.027 13.0646 14.1649 12.9267C14.3027 12.7889 14.3791 12.5893 14.3791 12.3791C14.3791 11.9586 14.0381 11.6173 13.6173 11.6173H11.3321H9.04694C8.62623 11.6173 8.2852 11.2761 8.2852 10.8556C8.2852 10.4351 8.62623 10.0939 9.04694 10.0939H12.0463H12.1176C12.5383 10.0939 12.8795 9.7526 12.8794 9.33213C12.8794 8.91165 12.5383 8.5704 12.1176 8.5704H12.0463H9.04694C8.20553 8.5704 7.52347 7.88864 7.52347 7.04693C7.52347 6.20522 8.20553 5.52347 9.04694 5.52347H15.1408C15.9822 5.52347 16.6643 6.20522 16.6643 7.04693C16.6643 7.88864 15.9822 8.5704 15.1408 8.5704C14.7201 8.5704 14.3791 8.91165 14.3791 9.33213C14.3791 9.7526 14.7201 10.0939 15.1408 10.0939C16.8236 10.0939 18.1878 8.7296 18.1878 7.04693C18.1878 5.36426 16.8236 4 15.1408 4H9.04694Z" fill="#2A343D"/>
</svg>
