<svg width="24" height="24" viewBox="0 0 24 24" fill="none" xmlns="http://www.w3.org/2000/svg">
<path d="M7.04694 6C5.36419 6 4 7.36427 4 9.04694V13.6173C4 14.7721 4.57275 15.7091 5.56278 16.2659C5.7318 17.3613 6.66607 18.1878 7.80867 18.1878C8.7744 18.1878 9.63623 17.583 9.956 16.6635L12.5134 16.6628C12.8587 17.5723 13.6986 18.1878 14.6643 18.1878C15.6571 18.1878 16.4931 17.5692 16.8342 16.6224C18.3016 16.4167 19.2347 15.3823 19.2347 13.6173C19.2347 13.6173 19.2347 13.6173 19.2347 12.8556C19.2347 10.9117 17.3702 9.04694 15.426 9.04694C15.426 7.36427 14.0618 6 12.3791 6C11.7126 6 7.71346 6 7.04694 6ZM7.04694 7.52347C7.71346 7.52347 11.7126 7.52347 12.3791 7.52347C13.2205 7.52347 13.9026 8.20522 13.9026 9.04694C13.9026 9.04694 13.9026 9.64109 13.9026 9.80867C13.9026 10.7167 13.9065 13.0057 13.9065 13.7468C13.3115 13.9464 12.7398 14.4583 12.5071 15.1363C12.5071 15.1363 10.1365 15.1385 9.96096 15.1469C9.58062 14.0561 8.56485 13.6082 7.80867 13.6173C7.0525 13.6265 6.35787 13.9845 5.91058 14.6366C5.69745 14.4735 5.52347 14.0546 5.52347 13.6173V9.04694C5.52347 8.20522 6.20553 7.52347 7.04694 7.52347ZM15.426 10.5704C16.5288 10.5704 17.7112 11.7526 17.7112 12.8556C17.7112 13.6173 17.7112 13.6173 17.7112 13.6173C17.7112 14.5291 17.4401 14.9252 16.7974 15.0776C16.6027 14.5131 16.0183 13.938 15.4308 13.7567L15.426 10.5704ZM7.80867 15.1408C8.21491 15.1347 8.5698 15.479 8.57041 15.9026C8.57041 16.323 8.22938 16.6643 7.80867 16.6643C7.38797 16.6643 7.04694 16.323 7.04694 15.9026C7.10993 15.4828 7.41349 15.1469 7.80867 15.1408ZM14.6643 15.1408C15.085 15.1408 15.426 15.4821 15.426 15.9026C15.426 16.323 15.085 16.6643 14.6643 16.6643C14.2436 16.6643 13.9026 16.323 13.9026 15.9026C13.9026 15.6923 13.979 15.4927 14.1168 15.3549C14.2546 15.217 14.454 15.1408 14.6643 15.1408Z" fill="#2A343D"/>
</svg>
