<svg width="24" height="24" viewBox="0 0 24 24" fill="none" xmlns="http://www.w3.org/2000/svg">
<path d="M18.5287 10.496L13.3712 5.25648C13.0354 4.91451 12.4914 4.91451 12.1556 5.25648C11.819 5.59759 11.819 6.15021 12.1556 6.4913L12.4066 6.74715L5.99147 13.2658C5.36272 13.89 5.00512 14.7445 5.00007 15.6373C4.9942 16.5311 5.34172 17.3898 5.96293 18.0218C6.58496 18.6528 7.43029 19.0059 8.31006 18.9999C9.18896 18.9948 10.0301 18.6315 10.6445 17.9928L17.0612 11.4757L17.313 11.7315V11.7306C17.6488 12.0726 18.1928 12.0726 18.5286 11.7306C18.8652 11.3895 18.8652 10.8369 18.5286 10.4958L18.5287 10.496ZM9.4299 16.759C8.81626 17.3833 7.82067 17.3833 7.20612 16.759C6.59158 16.1348 6.59164 15.1234 7.20612 14.4999L10.2919 11.3667L12.5139 13.624L9.4299 16.759ZM13.7279 12.3927L11.5084 10.1312L13.623 7.98305L15.845 10.2404L13.7279 12.3927Z" fill="black"/>
</svg>
