<svg width="24" height="24" viewBox="0 0 24 24" fill="none" xmlns="http://www.w3.org/2000/svg">
<path d="M11.8082 4.0617C11.1394 4.34735 7.12828 6.06202 6.45993 6.34767C6.17969 6.46727 6.00831 6.73312 6.00831 7.03781C6.00831 11.2624 6.26958 13.1279 7.44829 15.1777L6.22334 16.4117C5.92626 16.7096 5.9252 17.194 6.22228 17.4911C6.51928 17.7889 7.0186 17.7889 7.31567 17.4911L8.95576 15.8244C9.22336 15.5609 17.3514 7.41409 17.4176 7.34782L17.9646 6.82376C18.2616 6.52592 18.2639 6.04604 17.9669 5.7482C17.8183 5.59966 17.6256 5.51815 17.4314 5.51739C17.2364 5.51739 17.0345 5.59583 16.886 5.74513L16.7237 5.91043L12.426 4.0617C12.2348 3.97943 11.9994 3.97943 11.8082 4.0617ZM12.0931 5.56155L15.54 7.06217C14.3699 8.23372 9.8658 12.7782 8.5688 14.0557C7.78802 12.5794 7.51441 10.717 7.51982 7.53066C8.52371 7.1216 11.2164 5.93709 12.0931 5.56155ZM17.3704 9.96668C16.9522 9.92403 16.5767 10.2386 16.5386 10.6576C16.2552 13.7769 14.9991 15.8031 12.0931 17.5855C11.7206 17.3563 11.3573 17.1224 11.0389 16.8817C10.7037 16.6281 10.2072 16.6555 9.95409 16.9914C9.70089 17.3273 9.76145 17.8095 10.0967 18.0624C10.5834 18.4311 11.1219 18.796 11.713 19.1342C11.9469 19.2682 12.2401 19.2682 12.474 19.1342C16.1372 17.0371 17.6804 14.4937 18.0598 10.8C18.1024 10.3818 17.7878 10.0101 17.3704 9.96668Z" fill="#2A343D"/>
</svg>
