<svg width="24" height="24" viewBox="0 0 24 24" fill="none" xmlns="http://www.w3.org/2000/svg">
<path fill-rule="evenodd" clip-rule="evenodd" d="M12.0001 16.4443C12.0001 15.9537 11.602 15.5556 11.1113 15.5556H6.22259C6.17696 15.5556 5.7776 15.5449 5.7776 15.1993V6.22255C5.7776 5.97692 5.97697 5.77756 6.22259 5.77756H15.1113C15.3557 5.77756 15.5557 5.97694 15.5557 6.22255V11.1113C15.5557 11.602 15.9538 12.0001 16.4444 12.0001C16.935 12.0001 17.3332 11.602 17.3332 11.1113V6.22255C17.3332 4.99443 16.3388 4 15.1113 4H6.22254C4.99442 4 4 4.99436 4 6.22255V15.1993C4 16.3956 4.97625 17.3331 6.22254 17.3331H11.1113C11.6019 17.3331 12.0001 16.9349 12.0001 16.4443ZM13.7775 14.6669C13.7775 14.6669 13.7775 13.7775 14.6669 13.7775L18.2225 14.6669C18.2225 14.6669 19.1113 14.6944 19.1113 15.5556L18.0069 16.6594L19.7394 18.4062C20.0869 18.7531 20.0869 19.3162 19.7394 19.6631L19.6631 19.7394C19.3162 20.0869 18.7538 20.0869 18.4063 19.7394L16.6738 17.9931L15.5557 19.1113C15.5557 19.1113 14.9407 19.0819 14.6669 18.2225C14.3607 17.2638 13.7775 14.6669 13.7775 14.6669ZM11.9238 10.6669L13.5175 9.07316C13.865 8.72566 13.865 8.16379 13.5175 7.81629C13.17 7.46879 12.6081 7.46879 12.2606 7.81629L10.6669 9.41003L9.07317 7.81629C8.72567 7.46879 8.1638 7.46879 7.8163 7.81629C7.4688 8.16379 7.4688 8.72566 7.8163 9.07316L9.41003 10.6669L7.8163 12.2606C7.4688 12.6069 7.4688 13.17 7.8163 13.5175C7.98942 13.6906 8.21692 13.7775 8.44442 13.7775C8.67192 13.7775 8.89943 13.6906 9.07317 13.5175L10.6669 11.9238L12 13.2569C12.1731 13.43 12.4006 13.5175 12.6288 13.5175C12.8563 13.5175 13.0838 13.43 13.2569 13.2569C13.6044 12.9094 13.6044 12.3469 13.2569 12L11.9238 10.6669Z" fill="black"/>
</svg>
