<svg width="24" height="24" viewBox="0 0 24 24" fill="none" xmlns="http://www.w3.org/2000/svg">
<path d="M11.6173 4C7.41028 4 4 7.41028 4 11.6173C4 15.8244 7.41028 19.2347 11.6173 19.2347C15.4869 19.2347 18.735 16.334 19.1875 12.5223C19.2362 12.1041 18.9384 11.7148 18.5202 11.6646C18.1027 11.6158 17.7127 11.9136 17.664 12.3318C17.3022 15.3788 14.713 17.7112 11.6173 17.7112C8.252 17.7112 5.52347 14.9827 5.52347 11.6173C5.52347 8.252 8.252 5.52347 11.6173 5.52347C12.3204 5.52347 13.0166 5.65067 13.6649 5.88072C14.061 6.02087 14.4761 5.80073 14.6171 5.40463C14.7572 5.00777 14.5607 4.56902 14.1646 4.4281C13.3541 4.14093 12.4941 4 11.6173 4ZM18.4729 5.52347C18.2779 5.52347 18.0738 5.59203 17.9253 5.73752L11.2837 12.2839C11.0879 12.4766 10.8906 12.4393 10.7368 12.2123L9.97504 11.0933C9.74195 10.7497 9.25292 10.6499 8.90405 10.8792C8.55441 11.1085 8.45615 11.5831 8.68924 11.9266L9.45097 13.0456C10.1373 14.0579 11.4802 14.192 12.3555 13.3312L19.0206 6.80926C19.3177 6.51676 19.3177 6.03002 19.0206 5.73752C18.8721 5.59127 18.6679 5.52347 18.4729 5.52347Z" fill="#2A343D"/>
</svg>
