<svg width="24" height="24" viewBox="0 0 24 24" fill="none" xmlns="http://www.w3.org/2000/svg">
<path d="M7.04694 5C5.36427 5 4 6.36349 4 8.0454C4 8.9671 4.39687 9.78295 5.04434 10.3413C4.39687 10.8997 4 11.6911 4 12.6128V15.6582C4 17.3393 5.36427 18.7112 7.04694 18.7112H12.3783C13.9612 18.7112 15.2767 17.5092 15.426 15.9667L17.9245 18.4888C18.4044 18.9687 19.2339 18.6198 19.2339 17.9419V10.3291C19.2339 9.9901 19.0229 9.72506 18.7578 9.61537C18.4928 9.50568 18.1645 9.54221 17.9245 9.78139C17.6061 10.0998 16.4437 11.311 15.4199 12.334C15.3232 11.3407 14.774 10.4898 13.9551 10.0076C14.416 9.47441 14.6635 8.80485 14.6635 8.0454C14.6635 6.36349 13.3 5 11.6173 5C10.6949 5 9.8905 5.42355 9.33214 6.07026C8.77303 5.42355 7.96864 5 7.04694 5ZM7.04694 6.52273C7.88789 6.52273 8.57041 7.20445 8.57041 8.0454C8.57041 8.8856 7.88789 9.56734 7.04694 9.56734C6.20522 9.56734 5.52347 8.88636 5.52347 8.0454C5.52347 7.20445 6.20522 6.52273 7.04694 6.52273ZM11.6173 6.52273C12.4583 6.52273 13.1401 7.20445 13.1401 8.0454C13.1401 8.8856 12.4583 9.56734 11.6173 9.56734C10.7756 9.56734 10.0939 8.88636 10.0939 8.0454C10.0939 7.20445 10.7756 6.52273 11.6173 6.52273ZM7.04694 11.0984H12.3783C13.22 11.0984 13.9018 11.7802 13.9018 12.6212V15.6658C13.9018 16.5068 13.22 17.1885 12.3783 17.1885H7.04694C6.20522 17.1885 5.52347 16.5068 5.52347 15.6658V12.6212C5.52347 11.7802 6.20522 11.0984 7.04694 11.0984ZM17.7105 12.1847V16.0863L15.7589 14.1355C16.3028 13.5916 16.916 12.9784 17.7105 12.1847Z" fill="#2A343D"/>
</svg>
