<svg width="24" height="24" viewBox="0 0 24 24" fill="none" xmlns="http://www.w3.org/2000/svg">
<path d="M18.829 13.1978L18.4013 11.1989L17.6833 13.1978H18.829Z" fill="black"/>
<path d="M3.06645 6H20.9335C21.5225 6 22 6.48849 22 7.09135V17.7576C22 18.3604 21.5223 18.849 20.9335 18.849H3.06645C2.47748 18.849 2 18.3605 2 17.7576V7.09135C2 6.48859 2.47771 6 3.06645 6ZM12.2864 11.4536C12.2864 12.2281 12.9404 12.5807 13.4829 12.8731C13.8674 13.0804 14.1959 13.2575 14.1959 13.5333C14.1959 13.8133 13.8752 14.0639 13.3274 14.0639C12.5499 14.0639 11.9689 13.7137 11.9689 13.7137L11.7202 14.8783C11.7202 14.8783 12.3896 15.1741 13.2783 15.1741C14.5955 15.1741 15.6319 14.5188 15.6319 13.345C15.6319 12.5047 14.9397 12.1373 14.3871 11.844C14.02 11.6492 13.7146 11.487 13.7146 11.2407C13.7146 11.0214 13.9778 10.7811 14.5241 10.7811C15.1404 10.7811 15.6432 11.0358 15.6432 11.0358L15.8865 9.91101C15.8865 9.91101 15.3394 9.67492 14.5678 9.67492C13.3631 9.67492 12.2864 10.2995 12.2864 11.4536ZM3.51628 9.92958C3.51628 9.92958 4.02313 10.0224 4.47962 10.2075C5.06741 10.4197 5.10926 10.5433 5.20827 10.927L6.28696 15.0865H7.73296L9.96065 9.75981H8.51797L7.08655 13.3815L6.50245 10.3116C6.44887 9.96025 6.17753 9.75981 5.84542 9.75981H3.54546L3.51628 9.92958ZM9.40903 15.0865H10.7848L11.9125 9.75981H10.5408L9.40903 15.0865ZM17.5772 10.2479L15.5617 15.0865H17.0044L17.2835 14.2801H19.0411L19.2108 15.0865H20.4838L19.3733 9.75981H18.2137C17.8819 9.75981 17.7062 9.93748 17.5772 10.2479Z" fill="black"/>
</svg>
