<svg width="24" height="24" viewBox="0 0 24 24" fill="none" xmlns="http://www.w3.org/2000/svg">
<path d="M12.0001 7.00002C10.3744 6.99656 8.7772 7.41171 7.37211 8.2019C5.96638 8.99275 4.80275 10.131 4 11.5003C5.07858 13.3311 6.79153 14.7329 8.83498 15.4567C10.8786 16.1811 13.1214 16.1811 15.165 15.4567C17.2087 14.7329 18.9215 13.3311 20 11.5003C19.1971 10.1309 18.0335 8.99279 16.6279 8.2019C15.2229 7.41173 13.6259 6.99657 12.0001 7.00002ZM12.0001 14.5115C11.1758 14.5115 10.3851 14.1939 9.80212 13.6293C9.21917 13.0647 8.89139 12.2987 8.89139 11.5001C8.89139 10.7016 9.21926 9.93571 9.80212 9.37102C10.385 8.80632 11.1757 8.48881 12.0001 8.48881C12.8245 8.48881 13.6151 8.80641 14.1981 9.37102C14.781 9.93562 15.1088 10.7016 15.1088 11.5001C15.1074 12.2986 14.7795 13.0632 14.1966 13.6278C13.6138 14.1925 12.8244 14.5101 12.0001 14.5115ZM13.8687 11.5002C13.8687 12.2323 13.4137 12.8924 12.7151 13.1726C12.0173 13.4528 11.213 13.2978 10.6786 12.7803C10.1443 12.2627 9.98434 11.4836 10.2736 10.8076C10.5629 10.1309 11.2444 9.69012 12.0001 9.69012C13.0308 9.69289 13.8658 10.5017 13.8687 11.5002Z" fill="black"/>
</svg>
