<svg width="24" height="24" viewBox="0 0 24 24" fill="none" xmlns="http://www.w3.org/2000/svg">
<path d="M6.2852 6C5.02309 6 4 7.02309 4 8.2852V15.7121C4 17.0794 5.1084 18.1878 6.47564 18.1878H16.7591C18.1263 18.1878 19.2347 17.0794 19.2347 15.7121V9.80867C19.2347 9.38797 18.8937 9.04694 18.473 9.04694H17.7112V6.76173C17.7112 6.34103 17.3702 6 16.9495 6H6.2852ZM6.2852 7.52347H16.1878V9.04694H6.2852C5.8645 9.04694 5.52347 8.70591 5.52347 8.2852C5.52347 7.8645 5.8645 7.52347 6.2852 7.52347ZM6.2852 10.5704H17.7112V15.7121C17.7112 16.238 17.2849 16.6643 16.7591 16.6643H6.47564C5.94974 16.6643 5.52347 16.238 5.52347 15.7121L5.52789 10.4364C5.52789 10.4364 5.80059 10.5728 6.2852 10.5704ZM15.426 12.8556C15.0053 12.8556 14.6643 13.1966 14.6643 13.6173C14.6643 14.0381 15.0053 14.3791 15.426 14.3791C15.8467 14.3791 16.1878 14.0381 16.1878 13.6173C16.1878 13.1966 15.8467 12.8556 15.426 12.8556Z" fill="#2A343D"/>
</svg>
