<svg width="24" height="24" viewBox="0 0 24 24" fill="none" xmlns="http://www.w3.org/2000/svg">
<path d="M9.80867 4C8.96696 4 8.2852 4.68206 8.2852 5.52347L8.28597 5.62478C6.9796 5.96832 6 7.15625 6 8.57041V14.6643C6 16.0785 6.99025 17.272 8.29663 17.6155L8.2852 17.7112C8.2852 18.5526 8.96696 19.2347 9.80867 19.2347H14.3791C15.2208 19.2347 15.9026 18.5526 15.9026 17.7112C15.9026 17.6934 15.9102 17.6627 15.9102 17.6177C17.2165 17.2741 18.1878 16.0785 18.1878 14.6643V13.9026C18.6082 13.9026 18.9495 13.5615 18.9495 13.1408V10.0939C18.9495 9.67317 18.6082 9.33215 18.1878 9.33215V8.57041C18.1878 7.15625 17.2181 5.97365 15.9125 5.63011C15.9125 5.58502 15.9026 5.54129 15.9026 5.52347C15.9026 4.68206 15.2208 4 14.3791 4H9.80867ZM9.04694 7.04694H15.1408C15.9825 7.04694 16.6643 7.729 16.6643 8.57041V14.6643C16.6643 15.5057 15.9825 16.1878 15.1408 16.1878H9.04694C8.20522 16.1878 7.52347 15.5057 7.52347 14.6643V8.57041C7.52347 7.729 8.20522 7.04694 9.04694 7.04694ZM12.0939 8.57041C11.6734 8.57041 11.3321 8.91144 11.3321 9.33215V10.8556H9.80867C9.3882 10.8556 9.04694 11.1966 9.04694 11.6174C9.04694 12.0381 9.3882 12.3791 9.80867 12.3791H12.0939C12.5144 12.3791 12.8556 12.0381 12.8556 11.6174V9.33215C12.8556 8.91144 12.5144 8.57041 12.0939 8.57041Z" fill="#2A343D"/>
</svg>
