<svg width="24" height="24" viewBox="0 0 24 24" fill="none" xmlns="http://www.w3.org/2000/svg">
<path d="M12.0939 5C11.5294 5 10.9566 5.08684 10.38 5.23766C9.97306 5.34506 9.74957 5.75945 9.85628 6.16622C9.963 6.57299 10.3777 6.82055 10.7845 6.7139C11.24 6.59431 11.6665 6.52347 12.0939 6.52347C12.5342 6.52347 12.9729 6.59431 13.4269 6.7139C13.8337 6.82055 14.2481 6.57299 14.3555 6.16622C14.4621 5.75945 14.2146 5.34506 13.8078 5.23766C13.2319 5.08684 12.6698 5 12.0939 5ZM12.0939 7.2852C8.72831 7.2852 6 10.0137 6 13.3791C6 16.7444 8.72831 19.473 12.0939 19.473C15.4592 19.473 18.1878 16.7444 18.1878 13.3791C18.1878 10.0137 15.4592 7.2852 12.0939 7.2852ZM17.426 7.2852C17.0056 7.2852 16.6643 7.62646 16.6643 8.04694C16.6643 8.46742 17.0056 8.80867 17.426 8.80867C17.8465 8.80867 18.1878 8.46742 18.1878 8.04694C18.1878 7.62646 17.8465 7.2852 17.426 7.2852ZM12.0939 8.80867C14.6183 8.80867 16.6643 10.8547 16.6643 13.3791C16.6643 15.9035 14.6183 17.9495 12.0939 17.9495C9.56972 17.9495 7.52347 15.9035 7.52347 13.3791C7.52347 10.8547 9.56972 8.80867 12.0939 8.80867ZM12.0939 10.3321C11.6734 10.3321 11.3321 10.6734 11.3321 11.0939V13.3791C11.3321 13.5809 11.4037 13.7836 11.5462 13.9268L13.0697 15.4502C13.3675 15.7473 13.8672 15.7473 14.165 15.4502C14.4621 15.1524 14.4621 14.6527 14.165 14.3549L12.8556 13.0454V11.0939C12.8556 10.6734 12.5144 10.3321 12.0939 10.3321Z" fill="#2A343D"/>
</svg>
