<svg width="24" height="24" viewBox="0 0 24 24" fill="none" xmlns="http://www.w3.org/2000/svg">
<path d="M12.451 4.00942C12.1988 3.96669 11.9238 4.07059 11.7372 4.29492C8.07404 8.68731 7 10.9496 7 13.9059C7 16.8492 9.38728 19.235 12.3321 19.235C15.277 19.235 17.6643 16.8492 17.6643 13.9059C17.6643 12.8204 17.4213 11.9901 16.8789 11.1225C16.6458 10.75 15.485 9.22365 15.165 8.74353C14.3782 7.56375 13.7002 6.2525 13.0467 4.50897C12.9438 4.23566 12.7031 4.05216 12.451 4.00942ZM12.1173 6.23171C12.6216 7.42915 13.2775 8.66164 13.9028 9.59995C14.2601 10.1345 15.3791 11.6268 15.5695 11.9315C15.9656 12.5645 16.1408 13.1152 16.1408 13.9059C16.1408 16.0083 14.4353 17.7123 12.3321 17.7123C10.229 17.7123 8.53413 16.0083 8.52347 13.9059C8.51128 11.4866 9.45583 9.58494 12.1173 6.23171ZM11.284 10.1262C11.0981 10.1848 10.929 10.3173 10.8323 10.504C10.1955 11.7349 9.97763 12.9613 10.0706 14.0247C10.1071 14.4437 10.4613 14.7514 10.8803 14.7148C11.2992 14.6783 11.6306 14.3012 11.594 13.8823C11.5255 13.0977 11.6892 12.1836 12.1889 11.2177C12.3824 10.8445 12.2293 10.3882 11.8561 10.1947C11.6694 10.0981 11.4691 10.0668 11.284 10.1262Z" fill="#2A343D"/>
</svg>
