<svg width="24" height="24" viewBox="0 0 24 24" fill="none" xmlns="http://www.w3.org/2000/svg">
<path d="M4.69462 7.00936C4.50266 7.04379 4.33052 7.11059 4.19493 7.27117C3.92375 7.59239 3.91766 8.02543 4.29014 8.39C5.05264 9.13658 5.87759 9.29456 6.50374 9.29456C7.0301 9.29456 7.67605 9.15212 8.19403 8.79463C8.35247 8.68517 8.63584 8.53595 8.95577 8.53283C9.28712 8.52955 9.66189 8.58417 9.88432 8.74703C10.3558 9.09285 10.9919 9.29273 11.5982 9.29456C12.2533 9.29647 12.9092 9.10611 13.3121 8.79463C13.5848 8.58363 13.9329 8.53283 14.2643 8.53283C14.5949 8.53283 14.7609 8.59437 15.1685 8.84224C15.6636 9.14328 16.1892 9.29776 16.7635 9.29456C17.7409 9.289 18.3769 8.95231 19.0251 8.29478C19.3199 7.99535 19.3062 7.53617 19.0008 7.2474C18.6953 6.95863 18.2428 6.91863 17.9534 7.22356C17.9138 7.26583 17.7287 7.42511 17.7157 7.43783C17.4902 7.65813 17.1086 7.7765 16.7635 7.77109C16.4474 7.76606 16.1702 7.67633 15.9538 7.53305C15.3147 7.10853 14.7769 7.00928 14.1211 7.00936C13.68 7.00936 13.0173 7.15218 12.574 7.4616C12.0134 7.8529 11.2699 7.84285 10.7885 7.50921C10.2477 7.13443 9.5941 6.98689 8.95577 7.00936C8.29458 7.03259 7.78041 7.23018 7.31346 7.55682C6.91203 7.83713 6.11069 7.84254 5.6704 7.53305L5.24231 7.19979C5.02446 7.04744 4.90105 6.97226 4.69462 7.00936ZM4.69462 10.818C4.50266 10.8525 4.33052 10.9192 4.19493 11.0798C3.92375 11.4011 3.94126 11.8341 4.31375 12.1987C5.07701 12.9453 5.87759 13.1032 6.50374 13.1032C7.0301 13.1032 7.67605 12.9608 8.19403 12.6033C8.35247 12.4938 8.63584 12.3445 8.95577 12.3415C9.28712 12.3382 9.66189 12.3928 9.88432 12.5557C10.3558 12.9015 10.9919 13.1014 11.5982 13.1032C12.2533 13.1051 12.9092 12.9148 13.3121 12.6033C13.5848 12.3923 13.9329 12.3415 14.2643 12.3415C14.5949 12.3415 14.7609 12.403 15.1685 12.6509C15.6636 12.952 16.1892 13.1064 16.7635 13.1032C17.7409 13.0977 18.3769 12.761 19.0251 12.1035C19.3199 11.804 19.3062 11.321 19.0008 11.0322C18.6953 10.7435 18.2428 10.7273 17.9534 11.0322C17.9138 11.0745 17.7287 11.2338 17.7157 11.2465C17.4902 11.4668 17.1086 11.5852 16.7635 11.5798C16.4474 11.5747 16.1702 11.485 15.9538 11.3417C15.3147 10.9172 14.7769 10.818 14.1211 10.818C13.68 10.818 13.0173 10.9609 12.574 11.2703C12.0134 11.6616 11.2699 11.6515 10.7885 11.3179C10.2477 10.9431 9.5941 10.7956 8.95577 10.818C8.29458 10.8413 7.78041 11.0389 7.31346 11.3655C6.91203 11.6458 6.11069 11.6512 5.6704 11.3417L5.24231 10.9846C5.02446 10.8324 4.90105 10.7809 4.69462 10.818ZM4.69462 14.6267C4.50266 14.6611 4.33052 14.7279 4.19493 14.8885C3.92375 15.2097 3.94126 15.6428 4.31375 16.0073C5.07701 16.7539 5.87759 16.9119 6.50374 16.9119C7.0301 16.9119 7.67605 16.7695 8.19403 16.412C8.35247 16.3025 8.63584 16.1533 8.95577 16.1502C9.28712 16.1469 9.66189 16.2015 9.88432 16.3644C10.3558 16.7102 10.9919 16.9101 11.5982 16.9119C12.2533 16.9138 12.9092 16.7235 13.3121 16.412C13.5848 16.201 13.9329 16.1502 14.2643 16.1502C14.5949 16.1502 14.7609 16.2117 15.1685 16.4596C15.6636 16.7606 16.1892 16.9151 16.7635 16.9119C17.7409 16.9063 18.3769 16.5697 19.0251 15.9121C19.3199 15.6127 19.3062 15.1534 19.0008 14.8647C18.6953 14.576 18.2428 14.536 17.9534 14.8409C17.9138 14.8832 17.7287 15.0425 17.7157 15.0552C17.4902 15.2755 17.1086 15.3938 16.7635 15.3884C16.4474 15.3834 16.1702 15.2937 15.9538 15.1504C15.3147 14.7259 14.7769 14.6267 14.1211 14.6267C13.68 14.6267 13.0173 14.7695 12.574 15.0789C12.0134 15.4703 11.2699 15.4602 10.7885 15.1266C10.2477 14.7518 9.5941 14.6042 8.95577 14.6267C8.29458 14.6499 7.78041 14.8475 7.31346 15.1742C6.91203 15.4545 6.11069 15.4599 5.6704 15.1504L5.24231 14.8171C5.02446 14.6648 4.90105 14.5896 4.69462 14.6267Z" fill="#2A343D"/>
</svg>
