<svg width="24" height="24" viewBox="0 0 24 24" fill="none" xmlns="http://www.w3.org/2000/svg">
<path d="M10.6561 17.9837C10.0986 18.7819 9.24789 19.3271 8.28974 19.5001C7.33159 19.6731 6.34392 19.4598 5.54253 18.9068C4.9172 18.4558 4.44761 17.8215 4.19881 17.0917C3.95002 16.3619 3.93434 15.5728 4.15395 14.8337C4.37356 14.0947 4.81759 13.4422 5.42451 12.9666C6.03144 12.4911 6.77123 12.2161 7.54139 12.1798V13.3277C7.16432 13.3574 6.79862 13.4709 6.4709 13.6597C6.14318 13.8486 5.86169 14.1081 5.64689 14.4194C5.26792 14.9659 5.12102 15.6403 5.23839 16.2948C5.35576 16.9494 5.72782 17.5307 6.27304 17.9114C6.82159 18.2797 7.49378 18.4156 8.14231 18.2892C8.79084 18.1628 9.36282 17.7845 9.73291 17.2371C9.97131 16.8924 10.1253 16.4964 10.1824 16.0811V15.2784H14.6618L14.718 15.1901C14.8707 14.9345 15.0955 14.7298 15.3642 14.6017C15.6329 14.4737 15.9335 14.4279 16.2282 14.4702C16.5229 14.5126 16.7984 14.6411 17.0202 14.8396C17.242 15.0382 17.4001 15.2979 17.4747 15.5861C17.5492 15.8743 17.5369 16.1781 17.4392 16.4593C17.3415 16.7405 17.1629 16.9865 16.9257 17.1664C16.6885 17.3464 16.4034 17.4521 16.1063 17.4704C15.8092 17.4887 15.5133 17.4187 15.2559 17.2692C14.94 17.0958 14.7018 16.8089 14.5896 16.4665H11.3224C11.2082 17.013 10.9813 17.5298 10.6561 17.9837ZM16.5001 12.252C17.0046 12.2731 17.4991 12.3986 17.9526 12.6204C18.4061 12.8423 18.8087 13.1558 19.135 13.5411C19.4612 13.9264 19.704 14.3751 19.8481 14.859C19.9922 15.3429 20.0344 15.8514 19.972 16.3524C19.9097 16.8534 19.7442 17.3361 19.4859 17.7699C19.2276 18.2037 18.8822 18.5792 18.4715 18.8728C18.0607 19.1664 17.5936 19.3717 17.0995 19.4756C16.6055 19.5796 16.0953 19.58 15.601 19.4768C15.0371 19.411 14.4956 19.217 14.0183 18.9094C13.541 18.6019 13.1405 18.1891 12.8476 17.7027L13.843 17.1809C14.0489 17.4998 14.3226 17.7694 14.6444 17.9705C14.9663 18.1717 15.3285 18.2995 15.7054 18.3449C16.0248 18.3844 16.3489 18.3607 16.6591 18.275C16.9694 18.1892 17.2597 18.0433 17.5135 17.8454C17.7673 17.6474 17.9797 17.4015 18.1384 17.1215C18.2972 16.8415 18.3992 16.533 18.4388 16.2136C18.4783 15.8942 18.4545 15.5701 18.3688 15.2599C18.2831 14.9496 18.1371 14.6593 17.9392 14.4055C17.7413 14.1517 17.4953 13.9393 17.2154 13.7806C16.9354 13.6218 16.6269 13.5198 16.3075 13.4802C15.8924 13.4335 15.4721 13.4829 15.0792 13.6247L14.3969 13.9779L12.3258 10.1167H12.1492C11.7489 10.1028 11.3706 9.93057 11.0973 9.63776C10.962 9.49277 10.8566 9.32256 10.7871 9.13683C10.7176 8.95111 10.6853 8.75351 10.6922 8.55533C10.6991 8.35714 10.7449 8.16224 10.827 7.98176C10.9092 7.80128 11.0261 7.63875 11.1711 7.50346C11.4639 7.23022 11.8533 7.08449 12.2536 7.09833C12.656 7.115 13.0362 7.28776 13.3134 7.57998C13.5906 7.87221 13.7432 8.26091 13.7386 8.6637C13.7234 9.0043 13.5932 9.32969 13.3694 9.58686L14.8946 12.4045C15.4128 12.2398 15.9602 12.1878 16.5001 12.252ZM8.88199 10.0685C8.6954 9.62734 8.59753 9.15373 8.59397 8.67472C8.59041 8.19572 8.68124 7.72071 8.86126 7.27681C9.04128 6.83291 9.30697 6.42881 9.64316 6.08759C9.97935 5.74637 10.3795 5.47471 10.8206 5.28812C11.2618 5.10153 11.7354 5.00366 12.2144 5.0001C12.6934 4.99654 13.1684 5.08737 13.6123 5.26739C14.0562 5.44741 14.4603 5.7131 14.8016 6.04929C15.1428 6.38548 15.4144 6.78559 15.601 7.22677C15.8264 7.74724 15.9292 8.31257 15.9014 8.87907C15.8735 9.44558 15.7158 9.99811 15.4405 10.494L14.4451 9.95613C14.6197 9.61933 14.7168 9.24774 14.7293 8.86855C14.7418 8.48937 14.6694 8.11219 14.5173 7.76461C14.4114 7.4452 14.2407 7.15105 14.016 6.90053C13.7913 6.65002 13.5174 6.44852 13.2113 6.30861C12.9053 6.1687 12.5736 6.09338 12.2372 6.08737C11.9007 6.08136 11.5666 6.14477 11.2557 6.27366C10.9448 6.40254 10.6639 6.59412 10.4304 6.83645C10.1969 7.07877 10.0158 7.36664 9.89852 7.68206C9.78123 7.99749 9.73023 8.33371 9.74869 8.66973C9.76716 9.00575 9.8547 9.33435 10.0058 9.63503C10.2268 10.1455 10.607 10.5707 11.0896 10.8472L11.4026 11.0158L8.93818 15.0295C8.96989 15.0776 8.99678 15.1287 9.01846 15.1821C9.15016 15.4482 9.20044 15.7472 9.16302 16.0417C9.12559 16.3363 9.00211 16.6132 8.80805 16.8379C8.61398 17.0626 8.35794 17.2251 8.07199 17.305C7.78603 17.3849 7.48286 17.3787 7.20042 17.2871C6.91799 17.1955 6.66884 17.0227 6.48416 16.7902C6.29949 16.5577 6.18749 16.2759 6.16219 15.9801C6.13689 15.6843 6.19941 15.3876 6.34193 15.1271C6.48444 14.8666 6.70062 14.654 6.96341 14.5158C7.26526 14.3525 7.61598 14.3041 7.95079 14.3793L9.80515 11.3529C9.4045 10.9999 9.0889 10.5608 8.88199 10.0685Z" fill="black"/>
</svg>
