<svg width="24" height="24" viewBox="0 0 24 24" fill="none" xmlns="http://www.w3.org/2000/svg">
<path d="M8.80867 5C8.40419 5 8.00961 5.11136 7.66607 5.30941C7.3012 5.51942 7.17018 5.96847 7.38042 6.33304C7.59066 6.6976 8.06294 6.82862 8.42781 6.61869C8.54207 6.55295 8.67309 6.52347 8.80867 6.52347C9.22915 6.52347 9.57041 6.8645 9.57041 7.2852C9.57041 7.70591 9.22915 8.04694 8.80867 8.04694C8.31583 8.04694 6.14641 8.04694 5.76173 8.04694C5.34126 8.04694 5 8.38797 5 8.80867C5 9.22938 5.34126 9.57041 5.76173 9.57041C6.14641 9.57041 8.31583 9.57041 8.80867 9.57041C10.0709 9.57041 11.0939 8.54732 11.0939 7.2852C11.0939 6.02309 10.0709 5 8.80867 5ZM15.2834 5.76173C13.584 5.76173 12.1565 7.00131 11.9028 8.66585C11.8396 9.08176 12.1062 9.48335 12.5221 9.54665C12.938 9.60987 13.3395 9.3198 13.4027 8.90389C13.5436 7.98105 14.3396 7.2852 15.2834 7.2852C16.3354 7.2852 17.1878 8.13781 17.1878 9.18954C17.1878 10.2413 16.3354 11.0939 15.2834 11.0939C14.8797 11.0939 6.95385 11.0939 5.76173 11.0939C5.34126 11.0939 5 11.4351 5 11.8556C5 12.2761 5.34126 12.6173 5.76173 12.6173C6.95385 12.6173 14.8797 12.6173 15.2834 12.6173C17.1763 12.6173 18.7112 11.0825 18.7112 9.18954C18.7112 7.2964 17.1763 5.76173 15.2834 5.76173ZM5.76173 14.1408C5.34126 14.1408 5 14.4821 5 14.9026C5 15.323 5.34126 15.6643 5.76173 15.6643C6.71543 15.6643 13.0508 15.6643 13.3791 15.6643C13.7996 15.6643 14.1408 16.0055 14.1408 16.426C14.1408 16.8465 13.7996 17.1878 13.3791 17.1878C13.2435 17.1878 13.1125 17.158 12.9982 17.0925C12.6333 16.8823 12.1611 17.0133 11.9508 17.3782C11.7406 17.7431 11.8716 18.1917 12.2365 18.402C12.58 18.6 12.9746 18.7112 13.3791 18.7112C14.6413 18.7112 15.6643 17.6882 15.6643 16.426C15.6643 15.1638 14.6413 14.1408 13.3791 14.1408C13.0508 14.1408 6.71543 14.1408 5.76173 14.1408Z" fill="#2A343D"/>
</svg>
