<svg width="24" height="24" viewBox="0 0 24 24" fill="none" xmlns="http://www.w3.org/2000/svg">
<path fill-rule="evenodd" clip-rule="evenodd" d="M1 12C1 12.437 1.119 12.834 1.318 13.191L5.17 19.863C5.567 20.538 6.162 21.094 6.917 21.332C8.347 21.809 9.895 21.213 10.65 19.942L11.563 18.314L7.91 11.96L11.801 5.249L12.715 3.661C12.993 3.184 13.35 2.787 13.787 2.469H7.83C6.798 2.469 5.805 3.025 5.289 3.939L1.318 10.809C1.119 11.166 1 11.563 1 12z" fill="black"/>
<path fill-rule="evenodd" clip-rule="evenodd" d="M23 12C23 11.563 22.881 11.166 22.682 10.809L18.791 4.058C18.036 2.747 16.487 2.191 15.058 2.668C14.303 2.906 13.708 3.462 13.31 4.137L12.397 5.646L16.09 12L12.199 18.711L11.285 20.339C11.007 20.816 10.65 21.213 10.213 21.531H16.209C17.242 21.531 18.235 20.975 18.751 20.061L22.722 13.191C22.881 12.834 23 12.437 23 12z" fill="black"/>
</svg>
